%TF.GenerationSoftware,KiCad,Pcbnew,8.0.6*%
%TF.CreationDate,2024-10-30T16:41:28+09:00*%
%TF.ProjectId,badge24,62616467-6532-4342-9e6b-696361645f70,A*%
%TF.SameCoordinates,Original*%
%TF.FileFunction,Soldermask,Bot*%
%TF.FilePolarity,Negative*%
%FSLAX46Y46*%
G04 Gerber Fmt 4.6, Leading zero omitted, Abs format (unit mm)*
G04 Created by KiCad (PCBNEW 8.0.6) date 2024-10-30 16:41:28*
%MOMM*%
%LPD*%
G01*
G04 APERTURE LIST*
G04 Aperture macros list*
%AMRoundRect*
0 Rectangle with rounded corners*
0 $1 Rounding radius*
0 $2 $3 $4 $5 $6 $7 $8 $9 X,Y pos of 4 corners*
0 Add a 4 corners polygon primitive as box body*
4,1,4,$2,$3,$4,$5,$6,$7,$8,$9,$2,$3,0*
0 Add four circle primitives for the rounded corners*
1,1,$1+$1,$2,$3*
1,1,$1+$1,$4,$5*
1,1,$1+$1,$6,$7*
1,1,$1+$1,$8,$9*
0 Add four rect primitives between the rounded corners*
20,1,$1+$1,$2,$3,$4,$5,0*
20,1,$1+$1,$4,$5,$6,$7,0*
20,1,$1+$1,$6,$7,$8,$9,0*
20,1,$1+$1,$8,$9,$2,$3,0*%
%AMHorizOval*
0 Thick line with rounded ends*
0 $1 width*
0 $2 $3 position (X,Y) of the first rounded end (center of the circle)*
0 $4 $5 position (X,Y) of the second rounded end (center of the circle)*
0 Add line between two ends*
20,1,$1,$2,$3,$4,$5,0*
0 Add two circle primitives to create the rounded ends*
1,1,$1,$2,$3*
1,1,$1,$4,$5*%
%AMFreePoly0*
4,1,38,0.609719,0.832196,0.646627,0.781396,0.651600,0.750000,0.651600,-0.750000,0.632196,-0.809719,0.581396,-0.846627,0.550000,-0.851600,0.000000,-0.851600,-0.015662,-0.846511,-0.071157,-0.846511,-0.099781,-0.842395,-0.236332,-0.802300,-0.262637,-0.790287,-0.382359,-0.713346,-0.404214,-0.694409,-0.497411,-0.586854,-0.513046,-0.562526,-0.572165,-0.433072,-0.580312,-0.405326,-0.600566,-0.264460,
-0.601600,-0.250000,-0.601600,0.250000,-0.600566,0.264460,-0.580312,0.405326,-0.572165,0.433072,-0.513046,0.562526,-0.497411,0.586854,-0.404214,0.694409,-0.382359,0.713346,-0.262637,0.790287,-0.236332,0.802300,-0.099781,0.842395,-0.071157,0.846511,-0.031556,0.846511,-0.031396,0.846627,0.000000,0.851600,0.550000,0.851600,0.609719,0.832196,0.609719,0.832196,$1*%
%AMFreePoly1*
4,1,38,0.015662,0.846511,0.071157,0.846511,0.099781,0.842395,0.236332,0.802300,0.262637,0.790287,0.382359,0.713346,0.404214,0.694409,0.497411,0.586854,0.513046,0.562526,0.572165,0.433072,0.580312,0.405326,0.600566,0.264460,0.601600,0.250000,0.601600,-0.250000,0.600566,-0.264460,0.580312,-0.405326,0.572165,-0.433072,0.513046,-0.562526,0.497411,-0.586854,0.404214,-0.694409,
0.382359,-0.713346,0.262637,-0.790287,0.236332,-0.802300,0.099781,-0.842395,0.071157,-0.846511,0.031556,-0.846511,0.031396,-0.846627,0.000000,-0.851600,-0.550000,-0.851600,-0.609719,-0.832196,-0.646627,-0.781396,-0.651600,-0.750000,-0.651600,0.750000,-0.632196,0.809719,-0.581396,0.846627,-0.550000,0.851600,0.000000,0.851600,0.015662,0.846511,0.015662,0.846511,$1*%
G04 Aperture macros list end*
%ADD10HorizOval,1.903200X0.000000X0.000000X0.000000X0.000000X0*%
%ADD11HorizOval,1.903200X0.000000X0.000000X0.000000X0.000000X0*%
%ADD12HorizOval,1.903200X0.000000X0.000000X0.000000X0.000000X0*%
%ADD13HorizOval,1.903200X0.000000X0.000000X0.000000X0.000000X0*%
%ADD14HorizOval,1.903200X0.000000X0.000000X0.000000X0.000000X0*%
%ADD15HorizOval,1.903200X0.000000X0.000000X0.000000X0.000000X0*%
%ADD16RoundRect,0.288300X-0.313300X0.288300X-0.313300X-0.288300X0.313300X-0.288300X0.313300X0.288300X0*%
%ADD17RoundRect,0.101600X-1.905000X-0.787400X1.905000X-0.787400X1.905000X0.787400X-1.905000X0.787400X0*%
%ADD18O,4.013200X1.778000*%
%ADD19RoundRect,0.101600X-1.000000X1.000000X-1.000000X-1.000000X1.000000X-1.000000X1.000000X1.000000X0*%
%ADD20C,2.203200*%
%ADD21RoundRect,0.288300X0.313300X-0.288300X0.313300X0.288300X-0.313300X0.288300X-0.313300X-0.288300X0*%
%ADD22RoundRect,0.101600X-1.270000X-1.270000X1.270000X-1.270000X1.270000X1.270000X-1.270000X1.270000X0*%
%ADD23O,2.743200X2.743200*%
%ADD24RoundRect,0.101600X-0.457200X0.584200X-0.457200X-0.584200X0.457200X-0.584200X0.457200X0.584200X0*%
%ADD25RoundRect,0.101600X-0.750000X-0.750000X0.750000X-0.750000X0.750000X0.750000X-0.750000X0.750000X0*%
%ADD26C,1.803200*%
%ADD27FreePoly0,90.000000*%
%ADD28RoundRect,0.101600X-0.750000X0.500000X-0.750000X-0.500000X0.750000X-0.500000X0.750000X0.500000X0*%
%ADD29FreePoly1,90.000000*%
%ADD30RoundRect,0.284483X-1.341117X-0.553717X1.341117X-0.553717X1.341117X0.553717X-1.341117X0.553717X0*%
G04 APERTURE END LIST*
D10*
%TO.C,J1*%
X109274590Y-58598420D03*
X111380345Y-60018770D03*
X107854240Y-60704175D03*
X109959996Y-62124525D03*
X106433890Y-62809931D03*
X108539645Y-64230281D03*
%TD*%
D11*
%TO.C,J6*%
X195730960Y-58872730D03*
X193903837Y-60637162D03*
X193966528Y-57045607D03*
X192139405Y-58810040D03*
X192202095Y-55218484D03*
X190374972Y-56982916D03*
%TD*%
D12*
%TO.C,J5*%
X200587220Y-104218790D03*
X198053407Y-104041609D03*
X200764401Y-101684977D03*
X198230589Y-101507797D03*
X200941583Y-99151165D03*
X198407770Y-98973983D03*
%TD*%
D13*
%TO.C,J2*%
X96324750Y-102384890D03*
X98840031Y-102031390D03*
X96678250Y-104900171D03*
X99193530Y-104546670D03*
X97031749Y-107415452D03*
X99547030Y-107061952D03*
%TD*%
D14*
%TO.C,J4*%
X174293270Y-139601920D03*
X173100812Y-137359233D03*
X176535957Y-138409462D03*
X175343498Y-136166776D03*
X178778644Y-137217004D03*
X177586186Y-134974318D03*
%TD*%
D15*
%TO.C,J3*%
X122098130Y-138717100D03*
X123329546Y-136495566D03*
X124319664Y-139948516D03*
X125551080Y-137726982D03*
X126541198Y-141179933D03*
X127772615Y-138958399D03*
%TD*%
D16*
%TO.C,R5*%
X111726250Y-107988570D03*
X111726250Y-106338570D03*
%TD*%
D17*
%TO.C,J7*%
X118319050Y-87805970D03*
D18*
X118319050Y-90345970D03*
X118319050Y-92885970D03*
X118319050Y-95425970D03*
X118319050Y-97965970D03*
X118319050Y-100505970D03*
X118319050Y-103045970D03*
X118319050Y-105585970D03*
X118319050Y-108125970D03*
%TD*%
D19*
%TO.C,BT1*%
X129086250Y-78343570D03*
D20*
X129086250Y-130333570D03*
%TD*%
D21*
%TO.C,R2*%
X184586250Y-92593570D03*
X184586250Y-94243570D03*
%TD*%
D22*
%TO.C,J99*%
X181736250Y-68949570D03*
D23*
X181736250Y-72759570D03*
%TD*%
D19*
%TO.C,BT2*%
X171534600Y-78358710D03*
D20*
X171534600Y-130348710D03*
%TD*%
D21*
%TO.C,R3*%
X111736250Y-99693570D03*
X111736250Y-101343570D03*
%TD*%
D24*
%TO.C,T1*%
X185433890Y-103598200D03*
X183533890Y-103598200D03*
X184483890Y-101723200D03*
%TD*%
D25*
%TO.C,S1*%
X171608250Y-72769170D03*
D26*
X169068250Y-72769170D03*
X174148250Y-72769170D03*
%TD*%
D16*
%TO.C,R1*%
X184586250Y-90418570D03*
X184586250Y-88768570D03*
%TD*%
D27*
%TO.C,JP1*%
X184586250Y-98893570D03*
D28*
X184586250Y-97593570D03*
D29*
X184586250Y-96293570D03*
%TD*%
D21*
%TO.C,R4*%
X111711250Y-103043570D03*
X111711250Y-104693570D03*
%TD*%
D30*
%TO.C,M1*%
X140176250Y-128798570D03*
X140176250Y-126258570D03*
X140176250Y-123718570D03*
X140176250Y-121178570D03*
X140176250Y-118638570D03*
X140176250Y-116098570D03*
X140176250Y-113558570D03*
X140176250Y-111018570D03*
X140176250Y-108478570D03*
X140176250Y-105938570D03*
X140176250Y-103398570D03*
X140176250Y-100858570D03*
X140176250Y-98318570D03*
X140176250Y-95778570D03*
X140176250Y-93238570D03*
X140176250Y-90698570D03*
X140176250Y-88158570D03*
X140176250Y-85618570D03*
X140176250Y-83078570D03*
X140176250Y-80538570D03*
X160496250Y-80538570D03*
X160496250Y-83078570D03*
X160496250Y-85618570D03*
X160496250Y-88158570D03*
X160496250Y-90698570D03*
X160496250Y-93238570D03*
X160496250Y-95778570D03*
X160496250Y-98318570D03*
X160496250Y-100858570D03*
X160496250Y-103398570D03*
X160496250Y-105938570D03*
X160496250Y-108478570D03*
X160496250Y-111018570D03*
X160496250Y-113558570D03*
X160496250Y-116098570D03*
X160496250Y-118638570D03*
X160496250Y-121178570D03*
X160496250Y-123718570D03*
X160496250Y-126258570D03*
X160496250Y-128798570D03*
%TD*%
M02*
