M48
; DRILL file {KiCad 8.0.6} date 2024-10-30T16:41:32+0900
; FORMAT={-:-/ absolute / inch / decimal}
; #@! TF.CreationDate,2024-10-30T16:41:32+09:00
; #@! TF.GenerationSoftware,Kicad,Pcbnew,8.0.6
; #@! TF.FileFunction,Plated,1,2,PTH
FMAT,2
INCH
; #@! TA.AperFunction,Plated,PTH,ViaDrill
T1C0.0120
; #@! TA.AperFunction,Plated,PTH,ComponentDrill
T2C0.0315
; #@! TA.AperFunction,Plated,PTH,ComponentDrill
T3C0.0394
; #@! TA.AperFunction,Plated,PTH,ComponentDrill
T4C0.0402
%
G90
G05
T1
X3.9712Y-4.0749
X3.9822Y-4.0359
X4.0831Y-4.107
X4.091Y-4.1434
X4.1018Y-4.1818
X4.5072Y-2.5039
X4.5212Y-2.4599
X4.5332Y-2.4179
X4.5442Y-2.3709
X5.0082Y-5.3549
X5.0832Y-5.3869
X5.2152Y-4.9289
X5.2232Y-4.9819
X5.2542Y-4.9509
X5.2552Y-5.0099
X5.6692Y-4.7389
X5.7302Y-4.7389
X5.8382Y-4.6773
X5.8502Y-4.8599
X5.9452Y-4.762
X5.9502Y-4.86
X5.9702Y-4.6773
X6.2272Y-4.9139
X6.2312Y-4.8069
X6.4272Y-4.8529
X6.4272Y-4.8929
X6.4302Y-4.7369
X6.4302Y-4.7749
X6.4592Y-4.8739
X6.4602Y-4.9189
X6.4612Y-4.7919
X6.6522Y-5.3709
X6.7032Y-5.3919
X6.8243Y-4.8856
X6.8243Y-4.9256
X6.8243Y-4.9656
X6.8617Y-4.9249
X6.8622Y-4.9689
X6.8622Y-5.0076
X6.8636Y-5.0529
X7.4422Y-2.372
X7.4422Y-2.4119
X7.4422Y-2.4519
X7.4422Y-2.4919
X7.5862Y-2.4669
X7.6052Y-2.4959
X7.6602Y-3.9739
X7.6832Y-3.9429
X7.7092Y-4.1279
X7.7252Y-4.1609
T2
X6.6562Y-2.8649
X6.7562Y-2.8649
X6.8562Y-2.8649
T3
X3.7923Y-4.0309
X3.8062Y-4.1299
X3.8201Y-4.229
X3.8913Y-4.017
X3.9053Y-4.116
X3.9192Y-4.215
X4.1903Y-2.4728
X4.2462Y-2.3899
X4.2732Y-2.5288
X4.3021Y-2.307
X4.3291Y-2.4458
X4.3851Y-2.3629
X4.807Y-5.4613
X4.8555Y-5.3738
X4.8945Y-5.5098
X4.943Y-5.4223
X4.9819Y-5.5583
X5.0304Y-5.4708
X6.815Y-5.4078
X6.8619Y-5.4961
X6.9033Y-5.3609
X6.9502Y-5.4492
X6.9916Y-5.3139
X7.0385Y-5.4022
X7.4951Y-2.2434
X7.5645Y-2.3154
X7.567Y-2.174
X7.634Y-2.3873
X7.6365Y-2.2459
X7.7059Y-2.3178
X7.7974Y-4.0961
X7.8044Y-3.9964
X7.8113Y-3.8966
X7.8971Y-4.1031
X7.9041Y-4.0033
X7.9111Y-3.9036
T4
X5.0821Y-3.0844
X5.0821Y-5.1312
X6.7533Y-3.085
X6.7533Y-5.1318
M30
