%TF.GenerationSoftware,KiCad,Pcbnew,8.0.6*%
%TF.CreationDate,2024-10-30T16:41:27+09:00*%
%TF.ProjectId,badge24,62616467-6532-4342-9e6b-696361645f70,A*%
%TF.SameCoordinates,Original*%
%TF.FileFunction,Copper,L2,Bot*%
%TF.FilePolarity,Positive*%
%FSLAX46Y46*%
G04 Gerber Fmt 4.6, Leading zero omitted, Abs format (unit mm)*
G04 Created by KiCad (PCBNEW 8.0.6) date 2024-10-30 16:41:27*
%MOMM*%
%LPD*%
G01*
G04 APERTURE LIST*
G04 Aperture macros list*
%AMRoundRect*
0 Rectangle with rounded corners*
0 $1 Rounding radius*
0 $2 $3 $4 $5 $6 $7 $8 $9 X,Y pos of 4 corners*
0 Add a 4 corners polygon primitive as box body*
4,1,4,$2,$3,$4,$5,$6,$7,$8,$9,$2,$3,0*
0 Add four circle primitives for the rounded corners*
1,1,$1+$1,$2,$3*
1,1,$1+$1,$4,$5*
1,1,$1+$1,$6,$7*
1,1,$1+$1,$8,$9*
0 Add four rect primitives between the rounded corners*
20,1,$1+$1,$2,$3,$4,$5,0*
20,1,$1+$1,$4,$5,$6,$7,0*
20,1,$1+$1,$6,$7,$8,$9,0*
20,1,$1+$1,$8,$9,$2,$3,0*%
%AMHorizOval*
0 Thick line with rounded ends*
0 $1 width*
0 $2 $3 position (X,Y) of the first rounded end (center of the circle)*
0 $4 $5 position (X,Y) of the second rounded end (center of the circle)*
0 Add line between two ends*
20,1,$1,$2,$3,$4,$5,0*
0 Add two circle primitives to create the rounded ends*
1,1,$1,$2,$3*
1,1,$1,$4,$5*%
%AMFreePoly0*
4,1,19,0.550000,-0.750000,0.000000,-0.750000,0.000000,-0.744911,-0.071157,-0.744911,-0.207708,-0.704816,-0.327430,-0.627875,-0.420627,-0.520320,-0.479746,-0.390866,-0.500000,-0.250000,-0.500000,0.250000,-0.479746,0.390866,-0.420627,0.520320,-0.327430,0.627875,-0.207708,0.704816,-0.071157,0.744911,0.000000,0.744911,0.000000,0.750000,0.550000,0.750000,0.550000,-0.750000,0.550000,-0.750000,
$1*%
%AMFreePoly1*
4,1,19,0.000000,0.744911,0.071157,0.744911,0.207708,0.704816,0.327430,0.627875,0.420627,0.520320,0.479746,0.390866,0.500000,0.250000,0.500000,-0.250000,0.479746,-0.390866,0.420627,-0.520320,0.327430,-0.627875,0.207708,-0.704816,0.071157,-0.744911,0.000000,-0.744911,0.000000,-0.750000,-0.550000,-0.750000,-0.550000,0.750000,0.000000,0.750000,0.000000,0.744911,0.000000,0.744911,
$1*%
G04 Aperture macros list end*
%TA.AperFunction,Conductor*%
%ADD10C,0.406400*%
%TD*%
%TA.AperFunction,Conductor*%
%ADD11C,0.838200*%
%TD*%
%TA.AperFunction,ComponentPad*%
%ADD12HorizOval,1.700000X0.000000X0.000000X0.000000X0.000000X0*%
%TD*%
%TA.AperFunction,ComponentPad*%
%ADD13HorizOval,1.700000X0.000000X0.000000X0.000000X0.000000X0*%
%TD*%
%TA.AperFunction,ComponentPad*%
%ADD14HorizOval,1.700000X0.000000X0.000000X0.000000X0.000000X0*%
%TD*%
%TA.AperFunction,ComponentPad*%
%ADD15HorizOval,1.700000X0.000000X0.000000X0.000000X0.000000X0*%
%TD*%
%TA.AperFunction,ComponentPad*%
%ADD16HorizOval,1.700000X0.000000X0.000000X0.000000X0.000000X0*%
%TD*%
%TA.AperFunction,ComponentPad*%
%ADD17HorizOval,1.700000X0.000000X0.000000X0.000000X0.000000X0*%
%TD*%
%TA.AperFunction,SMDPad,CuDef*%
%ADD18RoundRect,0.237500X-0.262500X0.237500X-0.262500X-0.237500X0.262500X-0.237500X0.262500X0.237500X0*%
%TD*%
%TA.AperFunction,SMDPad,CuDef*%
%ADD19R,3.810000X1.574800*%
%TD*%
%TA.AperFunction,SMDPad,CuDef*%
%ADD20O,3.810000X1.574800*%
%TD*%
%TA.AperFunction,ComponentPad*%
%ADD21R,2.000000X2.000000*%
%TD*%
%TA.AperFunction,ComponentPad*%
%ADD22C,2.000000*%
%TD*%
%TA.AperFunction,SMDPad,CuDef*%
%ADD23RoundRect,0.237500X0.262500X-0.237500X0.262500X0.237500X-0.262500X0.237500X-0.262500X-0.237500X0*%
%TD*%
%TA.AperFunction,SMDPad,CuDef*%
%ADD24R,2.540000X2.540000*%
%TD*%
%TA.AperFunction,SMDPad,CuDef*%
%ADD25O,2.540000X2.540000*%
%TD*%
%TA.AperFunction,SMDPad,CuDef*%
%ADD26R,0.914400X1.168400*%
%TD*%
%TA.AperFunction,ComponentPad*%
%ADD27R,1.500000X1.500000*%
%TD*%
%TA.AperFunction,ComponentPad*%
%ADD28C,1.600000*%
%TD*%
%TA.AperFunction,SMDPad,CuDef*%
%ADD29FreePoly0,90.000000*%
%TD*%
%TA.AperFunction,SMDPad,CuDef*%
%ADD30R,1.500000X1.000000*%
%TD*%
%TA.AperFunction,SMDPad,CuDef*%
%ADD31FreePoly1,90.000000*%
%TD*%
%TA.AperFunction,SMDPad,CuDef*%
%ADD32RoundRect,0.250000X-1.274000X-0.486600X1.274000X-0.486600X1.274000X0.486600X-1.274000X0.486600X0*%
%TD*%
%TA.AperFunction,ViaPad*%
%ADD33C,0.584200*%
%TD*%
%TA.AperFunction,Conductor*%
%ADD34C,0.762000*%
%TD*%
%TA.AperFunction,Conductor*%
%ADD35C,0.228600*%
%TD*%
%TA.AperFunction,Conductor*%
%ADD36C,0.558800*%
%TD*%
%TA.AperFunction,Conductor*%
%ADD37C,0.355600*%
%TD*%
%TA.AperFunction,Conductor*%
%ADD38C,0.660000*%
%TD*%
%TA.AperFunction,Conductor*%
%ADD39C,0.660400*%
%TD*%
G04 APERTURE END LIST*
D10*
%TO.N,VDD*%
X151009250Y-120954370D02*
X152279250Y-122224370D01*
D11*
%TO.N,Net-(BT1-+)*%
X133461250Y-125743570D02*
X132661250Y-126543570D01*
X132661250Y-126543570D02*
X133486250Y-127243570D01*
D10*
%TO.N,VDD*%
X152279250Y-129056970D02*
X152279250Y-122224370D01*
%TD*%
D12*
%TO.P,J1,1*%
%TO.N,/S1P1*%
X109274590Y-58598420D03*
%TO.P,J1,2*%
%TO.N,/S1P2*%
X111380345Y-60018770D03*
%TO.P,J1,3*%
%TO.N,/SDA0*%
X107854240Y-60704175D03*
%TO.P,J1,4*%
%TO.N,/SCL0*%
X109959996Y-62124525D03*
%TO.P,J1,5*%
%TO.N,VDD*%
X106433890Y-62809931D03*
%TO.P,J1,6*%
%TO.N,GND*%
X108539645Y-64230281D03*
%TD*%
D13*
%TO.P,J6,1*%
%TO.N,/S6P1*%
X195730960Y-58872730D03*
%TO.P,J6,2*%
%TO.N,/S6P2*%
X193903837Y-60637162D03*
%TO.P,J6,3*%
%TO.N,/SDA1*%
X193966528Y-57045607D03*
%TO.P,J6,4*%
%TO.N,/SCL1*%
X192139405Y-58810040D03*
%TO.P,J6,5*%
%TO.N,VDD*%
X192202095Y-55218484D03*
%TO.P,J6,6*%
%TO.N,GND*%
X190374972Y-56982916D03*
%TD*%
D14*
%TO.P,J5,1*%
%TO.N,/S5P1*%
X200587220Y-104218790D03*
%TO.P,J5,2*%
%TO.N,/S252*%
X198053407Y-104041609D03*
%TO.P,J5,3*%
%TO.N,/SDA1*%
X200764401Y-101684977D03*
%TO.P,J5,4*%
%TO.N,/SCL1*%
X198230589Y-101507797D03*
%TO.P,J5,5*%
%TO.N,VDD*%
X200941583Y-99151165D03*
%TO.P,J5,6*%
%TO.N,GND*%
X198407770Y-98973983D03*
%TD*%
D15*
%TO.P,J2,1*%
%TO.N,/S2P1*%
X96324750Y-102384890D03*
%TO.P,J2,2*%
%TO.N,/S2P2*%
X98840031Y-102031390D03*
%TO.P,J2,3*%
%TO.N,/SDA0*%
X96678250Y-104900171D03*
%TO.P,J2,4*%
%TO.N,/SCL0*%
X99193530Y-104546670D03*
%TO.P,J2,5*%
%TO.N,VDD*%
X97031749Y-107415452D03*
%TO.P,J2,6*%
%TO.N,GND*%
X99547030Y-107061952D03*
%TD*%
D16*
%TO.P,J4,1*%
%TO.N,/S4P1*%
X174293270Y-139601920D03*
%TO.P,J4,2*%
%TO.N,/S4P2*%
X173100812Y-137359233D03*
%TO.P,J4,3*%
%TO.N,/SDA1*%
X176535957Y-138409462D03*
%TO.P,J4,4*%
%TO.N,/SCL1*%
X175343498Y-136166776D03*
%TO.P,J4,5*%
%TO.N,VDD*%
X178778644Y-137217004D03*
%TO.P,J4,6*%
%TO.N,GND*%
X177586186Y-134974318D03*
%TD*%
D17*
%TO.P,J3,1*%
%TO.N,/S3P1*%
X122098130Y-138717100D03*
%TO.P,J3,2*%
%TO.N,/S3P2*%
X123329546Y-136495566D03*
%TO.P,J3,3*%
%TO.N,/SDA0*%
X124319664Y-139948516D03*
%TO.P,J3,4*%
%TO.N,/SCL0*%
X125551080Y-137726982D03*
%TO.P,J3,5*%
%TO.N,VDD*%
X126541198Y-141179933D03*
%TO.P,J3,6*%
%TO.N,GND*%
X127772615Y-138958399D03*
%TD*%
D18*
%TO.P,R5,1*%
%TO.N,Net-(LD1-K)*%
X111726250Y-107988570D03*
%TO.P,R5,2*%
%TO.N,GND*%
X111726250Y-106338570D03*
%TD*%
D19*
%TO.P,J7,1,Pin_1*%
%TO.N,VDD*%
X118319050Y-87805970D03*
D20*
%TO.P,J7,2,Pin_2*%
%TO.N,/GP16*%
X118319050Y-90345970D03*
%TO.P,J7,3,Pin_3*%
%TO.N,/GP15*%
X118319050Y-92885970D03*
%TO.P,J7,4,Pin_4*%
%TO.N,/GP14*%
X118319050Y-95425970D03*
%TO.P,J7,5,Pin_5*%
%TO.N,/GP13*%
X118319050Y-97965970D03*
%TO.P,J7,6,Pin_6*%
%TO.N,/GP12*%
X118319050Y-100505970D03*
%TO.P,J7,7,Pin_7*%
%TO.N,/GP11*%
X118319050Y-103045970D03*
%TO.P,J7,8,Pin_8*%
%TO.N,/GP10*%
X118319050Y-105585970D03*
%TO.P,J7,9,Pin_9*%
%TO.N,GND*%
X118319050Y-108125970D03*
%TD*%
D21*
%TO.P,BT1,1,+*%
%TO.N,Net-(BT1-+)*%
X129086250Y-78343570D03*
D22*
%TO.P,BT1,2,-*%
%TO.N,GND*%
X129086250Y-130333570D03*
%TD*%
D23*
%TO.P,R2,1*%
%TO.N,/SCL1*%
X184586250Y-92593570D03*
%TO.P,R2,2*%
%TO.N,VDD*%
X184586250Y-94243570D03*
%TD*%
D24*
%TO.P,J99,1,Pin_1*%
%TO.N,Net-(J99-Pin_1)*%
X181736250Y-68949570D03*
D25*
%TO.P,J99,2,Pin_2*%
%TO.N,GND*%
X181736250Y-72759570D03*
%TD*%
D21*
%TO.P,BT2,1,+*%
%TO.N,Net-(BT2-+)*%
X171534600Y-78358710D03*
D22*
%TO.P,BT2,2,-*%
%TO.N,Net-(BT1-+)*%
X171534600Y-130348710D03*
%TD*%
D23*
%TO.P,R3,1*%
%TO.N,VDD*%
X111736250Y-99693570D03*
%TO.P,R3,2*%
%TO.N,/SCL0*%
X111736250Y-101343570D03*
%TD*%
D26*
%TO.P,T1,1,G*%
%TO.N,Net-(M1-VBUS)*%
X185433890Y-103598200D03*
%TO.P,T1,2,S*%
%TO.N,Net-(M1-VSYS)*%
X183533890Y-103598200D03*
%TO.P,T1,3,D*%
%TO.N,Net-(JP1-A)*%
X184483890Y-101723200D03*
%TD*%
D27*
%TO.P,S1,1,C*%
%TO.N,Net-(M1-VBUS)*%
X171608250Y-72769170D03*
D28*
%TO.P,S1,2,A*%
%TO.N,Net-(BT2-+)*%
X169068250Y-72769170D03*
%TO.P,S1,3,B*%
%TO.N,Net-(J99-Pin_1)*%
X174148250Y-72769170D03*
%TD*%
D18*
%TO.P,R1,1*%
%TO.N,/SDA1*%
X184586250Y-90418570D03*
%TO.P,R1,2*%
%TO.N,VDD*%
X184586250Y-88768570D03*
%TD*%
D29*
%TO.P,JP1,1,A*%
%TO.N,Net-(JP1-A)*%
X184586250Y-98893570D03*
D30*
%TO.P,JP1,2,C*%
%TO.N,VDD*%
X184586250Y-97593570D03*
D31*
%TO.P,JP1,3,B*%
%TO.N,Net-(JP1-B)*%
X184586250Y-96293570D03*
%TD*%
D23*
%TO.P,R4,1*%
%TO.N,VDD*%
X111711250Y-103043570D03*
%TO.P,R4,2*%
%TO.N,/SDA0*%
X111711250Y-104693570D03*
%TD*%
D32*
%TO.P,M1,1,GP0*%
%TO.N,/SDA0*%
X140176250Y-128798570D03*
%TO.P,M1,2,GP1*%
%TO.N,/SCL0*%
X140176250Y-126258570D03*
%TO.P,M1,3,GND*%
%TO.N,GND*%
X140176250Y-123718570D03*
%TO.P,M1,4,GP2*%
%TO.N,/S3P2*%
X140176250Y-121178570D03*
%TO.P,M1,5,GP3*%
%TO.N,/S3P1*%
X140176250Y-118638570D03*
%TO.P,M1,6,GP4*%
%TO.N,/S2P2*%
X140176250Y-116098570D03*
%TO.P,M1,7,GP5*%
%TO.N,/S2P1*%
X140176250Y-113558570D03*
%TO.P,M1,8,GND*%
%TO.N,GND*%
X140176250Y-111018570D03*
%TO.P,M1,9,GP6*%
%TO.N,/S1P2*%
X140176250Y-108478570D03*
%TO.P,M1,10,GP7*%
%TO.N,/S1P1*%
X140176250Y-105938570D03*
%TO.P,M1,11,GP8*%
%TO.N,/SW1*%
X140176250Y-103398570D03*
%TO.P,M1,12,GP9*%
%TO.N,/SW2*%
X140176250Y-100858570D03*
%TO.P,M1,13,GND*%
%TO.N,GND*%
X140176250Y-98318570D03*
%TO.P,M1,14,GP10*%
%TO.N,/GP10*%
X140176250Y-95778570D03*
%TO.P,M1,15,GP11*%
%TO.N,/GP11*%
X140176250Y-93238570D03*
%TO.P,M1,16,GP12*%
%TO.N,/GP12*%
X140176250Y-90698570D03*
%TO.P,M1,17,GP13*%
%TO.N,/GP13*%
X140176250Y-88158570D03*
%TO.P,M1,18,GND*%
%TO.N,GND*%
X140176250Y-85618570D03*
%TO.P,M1,19,GP14*%
%TO.N,/GP14*%
X140176250Y-83078570D03*
%TO.P,M1,20,GP15*%
%TO.N,/GP15*%
X140176250Y-80538570D03*
%TO.P,M1,21,GP16*%
%TO.N,/GP16*%
X160496250Y-80538570D03*
%TO.P,M1,22,GP17*%
%TO.N,/S6P2*%
X160496250Y-83078570D03*
%TO.P,M1,23,GND*%
%TO.N,GND*%
X160496250Y-85618570D03*
%TO.P,M1,24,GP18*%
%TO.N,/S6P1*%
X160496250Y-88158570D03*
%TO.P,M1,25,GP19*%
%TO.N,/S252*%
X160496250Y-90698570D03*
%TO.P,M1,26,GP20*%
%TO.N,/S5P1*%
X160496250Y-93238570D03*
%TO.P,M1,27,GP21*%
%TO.N,/S4P2*%
X160496250Y-95778570D03*
%TO.P,M1,28,GND*%
%TO.N,GND*%
X160496250Y-98318570D03*
%TO.P,M1,29,GP22*%
%TO.N,/S4P1*%
X160496250Y-100858570D03*
%TO.P,M1,30,RUN*%
%TO.N,unconnected-(M1-RUN-Pad30)*%
X160496250Y-103398570D03*
%TO.P,M1,31,GP26*%
%TO.N,/SDA1*%
X160496250Y-105938570D03*
%TO.P,M1,32,GP27*%
%TO.N,/SCL1*%
X160496250Y-108478570D03*
%TO.P,M1,33,AGND*%
%TO.N,GND*%
X160496250Y-111018570D03*
%TO.P,M1,34,GP28*%
%TO.N,/SW3*%
X160496250Y-113558570D03*
%TO.P,M1,35,ADC_VREF*%
%TO.N,unconnected-(M1-ADC_VREF-Pad35)*%
X160496250Y-116098570D03*
%TO.P,M1,36,3V3_OUT*%
%TO.N,Net-(JP1-B)*%
X160496250Y-118638570D03*
%TO.P,M1,37,3V3_EN*%
%TO.N,unconnected-(M1-3V3_EN-Pad37)*%
X160496250Y-121178570D03*
%TO.P,M1,38,GND*%
%TO.N,GND*%
X160496250Y-123718570D03*
%TO.P,M1,39,VSYS*%
%TO.N,Net-(M1-VSYS)*%
X160496250Y-126258570D03*
%TO.P,M1,40,VBUS*%
%TO.N,Net-(M1-VBUS)*%
X160496250Y-128798570D03*
%TD*%
D33*
%TO.N,VDD*%
X151009250Y-120954370D03*
%TO.N,GND*%
X189032650Y-61262970D03*
X115423450Y-60221570D03*
X151136250Y-123443570D03*
X158171650Y-124813770D03*
X189032650Y-60247800D03*
X148595850Y-123442170D03*
X189032650Y-62278970D03*
X114483650Y-63599770D03*
X104186250Y-106218570D03*
X189032650Y-63294970D03*
X114839250Y-62482170D03*
X115144050Y-61415370D03*
%TO.N,/SCL0*%
X103711250Y-104318570D03*
%TO.N,/SDA0*%
X103911250Y-105243570D03*
%TO.N,/S2P1*%
X101148650Y-102512570D03*
%TO.N,/S2P2*%
X100869250Y-103503170D03*
%TO.N,/S3P2*%
X129114050Y-136827970D03*
%TO.N,/S3P1*%
X127209050Y-136015170D03*
%TO.N,/SCL1*%
X168966650Y-136421570D03*
X194569811Y-100937797D03*
%TO.N,/SDA1*%
X195154011Y-100150397D03*
X170262050Y-136954970D03*
%TO.N,/S252*%
X195814450Y-104849370D03*
%TO.N,/S5P1*%
X196220850Y-105687570D03*
%TO.N,/S6P2*%
X192690250Y-62659970D03*
%TO.N,/S6P1*%
X193172850Y-63396570D03*
%TO.N,/SW1*%
X143998450Y-120368770D03*
%TO.N,/SW2*%
X148291050Y-118804560D03*
X145547850Y-120368770D03*
X151643850Y-118804560D03*
%TO.N,/SW3*%
X158273250Y-122095970D03*
%TO.N,Net-(BT1-+)*%
X133457450Y-125753570D03*
X133482850Y-127252170D03*
X132670050Y-126540970D03*
%TO.N,Net-(M1-VBUS)*%
X174336250Y-128343570D03*
X164089850Y-124940770D03*
%TO.N,Net-(M1-VSYS)*%
X164064450Y-123797770D03*
X163251650Y-123264370D03*
X174286250Y-125093570D03*
X174300650Y-127193570D03*
X174300650Y-126210770D03*
X163251650Y-124280370D03*
%TO.N,Net-(JP1-B)*%
X164115250Y-121714970D03*
X173336250Y-126125570D03*
X173336250Y-125109570D03*
X173336250Y-124093570D03*
X163327850Y-121283170D03*
X163327850Y-120317970D03*
%TO.N,Net-(LD1-K)*%
X132466850Y-125194770D03*
%TD*%
D34*
%TO.N,VDD*%
X140942000Y-130817820D02*
X143390600Y-129763720D01*
X182836250Y-89643570D02*
X182886250Y-90143570D01*
X194641100Y-108143420D02*
X196723600Y-107965620D01*
X184155825Y-78534974D02*
X184142325Y-78072074D01*
X190302625Y-59942174D02*
X190328025Y-63675974D01*
X187420325Y-68630874D02*
X188296025Y-67358974D01*
X201592300Y-107346320D02*
X201790200Y-107179620D01*
X168691900Y-138653420D02*
X168705300Y-138666820D01*
X184155825Y-85773995D02*
X184155825Y-78534974D01*
X188977600Y-86291220D02*
X189810100Y-87884020D01*
X119870400Y-128311420D02*
X119870500Y-128324820D01*
X202041400Y-106748920D02*
X202469250Y-105306570D01*
X127898630Y-142205570D02*
X128633570Y-142296300D01*
X196838000Y-94552020D02*
X196896600Y-94567020D01*
X185130600Y-112467820D02*
X185322400Y-112297520D01*
X184686250Y-87643570D02*
X184586250Y-88768570D01*
X190680500Y-89322320D02*
X190865500Y-89600020D01*
X166231900Y-136117620D02*
X166248000Y-136134020D01*
X202061770Y-99857370D02*
X202577250Y-100486290D01*
X193974800Y-93029820D02*
X194454800Y-93386220D01*
X102570300Y-111239420D02*
X102639000Y-111241120D01*
X106876400Y-111605220D02*
X107163300Y-111646320D01*
X105314250Y-64031570D02*
X106433910Y-62809920D01*
X195158500Y-64856820D02*
X195175200Y-64838220D01*
X118903250Y-138072570D02*
X119030250Y-138834570D01*
X202469250Y-105306570D02*
X202690920Y-101186660D01*
X186356950Y-97072870D02*
X185836250Y-97593570D01*
X156570900Y-129667120D02*
X158658700Y-130466520D01*
X186824400Y-111075620D02*
X187104200Y-110889520D01*
X198206900Y-61310220D02*
X198405250Y-60856570D01*
X198532250Y-59459570D02*
X198659250Y-59967570D01*
X118935800Y-137084620D02*
X119024600Y-136591620D01*
X111444300Y-112993520D02*
X111789200Y-113159020D01*
X191941300Y-68427320D02*
X193524900Y-66602320D01*
X184675325Y-74426674D02*
X185606925Y-71840974D01*
X119819600Y-126356020D02*
X119870400Y-128311420D01*
X190124825Y-59510374D02*
X190302625Y-59942174D01*
X102639000Y-111241120D02*
X104771900Y-111343120D01*
X112169300Y-78270520D02*
X112182700Y-78430220D01*
X94976450Y-99743970D02*
X95688200Y-99192820D01*
X196794600Y-94539520D02*
X196795300Y-94539720D01*
X182305900Y-115773620D02*
X182330400Y-115739220D01*
X105847650Y-60704170D02*
X105898450Y-61313770D01*
X189077300Y-72671120D02*
X190167900Y-70778320D01*
X186356950Y-95028470D02*
X186356950Y-97072870D01*
D35*
X112968803Y-91030553D02*
X113654663Y-89106103D01*
D34*
X119919500Y-130489420D02*
X119921500Y-130701220D01*
X192202095Y-55218484D02*
X192207625Y-54938374D01*
X183486250Y-94143570D02*
X183161250Y-93793570D01*
X182936250Y-92868570D02*
X182911250Y-92093570D01*
X188243000Y-83922920D02*
X188307100Y-84149220D01*
X184586250Y-87093570D02*
X184686250Y-87643570D01*
X105847650Y-60704170D02*
X106000050Y-59891370D01*
X189892200Y-88024720D02*
X190680500Y-89322320D01*
X188448425Y-56513174D02*
X188804025Y-55624174D01*
X189591425Y-65784174D02*
X190124825Y-64768174D01*
X169588400Y-139576320D02*
X170325700Y-140363020D01*
X198001600Y-61710420D02*
X198206900Y-61310220D01*
X115962500Y-116295820D02*
X116243500Y-116584120D01*
X105060250Y-65301570D02*
X105314250Y-64031570D01*
X188895600Y-73034520D02*
X189077300Y-72671120D01*
X97541850Y-109751570D02*
X98202250Y-110386570D01*
X166248000Y-136134020D02*
X167594500Y-137531420D01*
X200941610Y-99151170D02*
X202061770Y-99857370D01*
X188530800Y-110025320D02*
X188801600Y-109874620D01*
X102708400Y-96328720D02*
X104765800Y-95109120D01*
X188905625Y-58468974D02*
X189616825Y-59053174D01*
X189616825Y-59053174D02*
X190124825Y-59510374D01*
X173894250Y-141958770D02*
X177995950Y-139759870D01*
X184180025Y-77528474D02*
X184558925Y-74964074D01*
X184142325Y-78072074D02*
X184180025Y-77538174D01*
X107783400Y-69203120D02*
X109051100Y-70912520D01*
X197890150Y-58330500D02*
X198532250Y-59459570D01*
X153749500Y-129107120D02*
X156033700Y-129554420D01*
X182886250Y-90143570D02*
X182911250Y-90693570D01*
X118358180Y-71995720D02*
X129570950Y-75395120D01*
X100447800Y-97511620D02*
X100767200Y-97378520D01*
X190167900Y-70778320D02*
X190347600Y-70488520D01*
X98202250Y-110386570D02*
X99218250Y-110894570D01*
X187778800Y-81741320D02*
X188243000Y-83922920D01*
X180493200Y-126702620D02*
X180542400Y-129384320D01*
X94366850Y-101674370D02*
X94976450Y-105814570D01*
X183642400Y-114000220D02*
X185130600Y-112467820D01*
X178462360Y-139184660D02*
X178722550Y-138414210D01*
X187740900Y-81408920D02*
X187778800Y-81741320D01*
X158797100Y-130524020D02*
X158819600Y-130534620D01*
X107612400Y-68990520D02*
X107783400Y-69203120D01*
X198532250Y-60475570D02*
X198659250Y-59967570D01*
X143390600Y-129763720D02*
X143830100Y-129639520D01*
X111789200Y-113159020D02*
X113798600Y-114408520D01*
X183186250Y-88868570D02*
X182911250Y-89168570D01*
X180468500Y-124217120D02*
X180499500Y-122183520D01*
X180367760Y-136609360D02*
X180834160Y-136034190D01*
X182290500Y-115796120D02*
X182303600Y-115776820D01*
X190404225Y-54887574D02*
X192207625Y-54938374D01*
X111442100Y-75380720D02*
X111557900Y-75749320D01*
X180920100Y-132692220D02*
X181133250Y-134008570D01*
X183445100Y-114226120D02*
X183642400Y-114000220D01*
X99218250Y-110894570D02*
X100498900Y-111165320D01*
X105898450Y-61313770D02*
X106433910Y-62809920D01*
D35*
X112661250Y-99718570D02*
X111686250Y-99718570D01*
X123108363Y-77662223D02*
X124450703Y-77324703D01*
D34*
X192284900Y-91342520D02*
X192443500Y-91521220D01*
X119775400Y-133343220D02*
X119775400Y-133342820D01*
X116243500Y-116584120D02*
X117795300Y-118601720D01*
X136839500Y-133560220D02*
X138334250Y-132357570D01*
X182961250Y-93318570D02*
X182936250Y-92868570D01*
D35*
X113654663Y-89106103D02*
X114213463Y-87404303D01*
X111686250Y-99718570D02*
X111721871Y-99682949D01*
D34*
X98675100Y-98168420D02*
X98843100Y-98107420D01*
X118933400Y-121022420D02*
X119093600Y-121469020D01*
X158658700Y-130466520D02*
X158760900Y-130507720D01*
X190738500Y-109036120D02*
X192313900Y-108579220D01*
X97229200Y-98619120D02*
X97278100Y-98602320D01*
X119870500Y-128324820D02*
X119919500Y-130489420D01*
X95357450Y-106449570D02*
X95992450Y-106957570D01*
X201027760Y-96781180D02*
X201268360Y-97481520D01*
X167603200Y-137540720D02*
X168691900Y-138653420D01*
X104771900Y-111343120D02*
X105005900Y-111369920D01*
X106874100Y-93321220D02*
X107095600Y-93116220D01*
X158771900Y-130512520D02*
X158797100Y-130524020D01*
X128633570Y-142296300D02*
X129603100Y-142086780D01*
X168705300Y-138666820D02*
X169539300Y-139526320D01*
X190466300Y-109131620D02*
X190738500Y-109036120D01*
X196795300Y-94539720D02*
X196836000Y-94551420D01*
X181133250Y-134008570D02*
X181170250Y-135100950D01*
X118903250Y-138072570D02*
X118903300Y-137584420D01*
X119578600Y-123727820D02*
X119616400Y-124057320D01*
X180499500Y-122183520D02*
X180508200Y-121888220D01*
X182303600Y-115776820D02*
X182305900Y-115773620D01*
X147087400Y-129072720D02*
X153280300Y-129079620D01*
X94976450Y-105814570D02*
X95357450Y-106449570D01*
X158819600Y-130534620D02*
X158828700Y-130539020D01*
X180468600Y-124264820D02*
X180468600Y-124262720D01*
X105359200Y-66588420D02*
X107612400Y-68990520D01*
X108876100Y-91155920D02*
X109157900Y-90792420D01*
X111557900Y-75749320D02*
X112124800Y-78043420D01*
X169539300Y-139526320D02*
X169588400Y-139576320D01*
X202577250Y-100486290D02*
X202690920Y-101186660D01*
X180542400Y-129384320D02*
X180544000Y-129539620D01*
X98843100Y-98107420D02*
X100447800Y-97511620D01*
X180468600Y-124264820D02*
X180493000Y-126672620D01*
X200827600Y-107698820D02*
X201278200Y-107523520D01*
X109146000Y-71048520D02*
X110312100Y-72902820D01*
X198405250Y-60856570D02*
X198532250Y-60475570D01*
D35*
X112936250Y-102768570D02*
X112936250Y-99993570D01*
D34*
X119535420Y-139492810D02*
X123889210Y-141974060D01*
X184560325Y-74964274D02*
X184675325Y-74426674D01*
X185779150Y-94243570D02*
X186356950Y-94821370D01*
X138334250Y-132357570D02*
X140554800Y-131046920D01*
X186042625Y-70959974D02*
X186046125Y-70962274D01*
X119772700Y-133359120D02*
X119775400Y-133343220D01*
X201946300Y-106972620D02*
X202041400Y-106748920D01*
D35*
X111725650Y-103033770D02*
X112671050Y-103033770D01*
D34*
X187595600Y-78233720D02*
X187974500Y-75669320D01*
X193613800Y-66500220D02*
X195158500Y-64856820D01*
X190347600Y-70488520D02*
X191824700Y-68564820D01*
X95688200Y-99192820D02*
X97229200Y-98619120D01*
X126541190Y-141179940D02*
X127898630Y-142205570D01*
X187974500Y-75669320D02*
X188099400Y-75228220D01*
X190124825Y-64768174D02*
X190328025Y-63675974D01*
X112305300Y-81477620D02*
X112329700Y-81074120D01*
X180493000Y-126672620D02*
X180493200Y-126702620D01*
X112168000Y-78260420D02*
X112169300Y-78270520D01*
X196924200Y-107960620D02*
X200337400Y-107828320D01*
X183911250Y-94243570D02*
X183486250Y-94143570D01*
X185606925Y-71840974D02*
X185804525Y-71389974D01*
X100767200Y-97378520D02*
X102615600Y-96379820D01*
X117803800Y-118612920D02*
X117808300Y-118619020D01*
X188448425Y-57402174D02*
X188448425Y-56513174D01*
X182911250Y-90693570D02*
X182911250Y-92093570D01*
X125415430Y-141877150D02*
X126541190Y-141179940D01*
X119024600Y-136591620D02*
X119242500Y-135861420D01*
X182351100Y-115711220D02*
X183445100Y-114226120D01*
X146638700Y-129100020D02*
X147087400Y-129072720D01*
X124624170Y-142064770D02*
X125415430Y-141877150D01*
X119755100Y-133451320D02*
X119772700Y-133359120D01*
X118026800Y-119000920D02*
X118933400Y-121022420D01*
X118903300Y-137584420D02*
X118935800Y-137084620D01*
X180508200Y-121888220D02*
X180730100Y-119952120D01*
X170325700Y-140363020D02*
X170417500Y-140468720D01*
D35*
X126617173Y-75331983D02*
X126862663Y-74577303D01*
D34*
X183286250Y-88768570D02*
X183186250Y-88868570D01*
X185804525Y-71389974D02*
X186042625Y-70959974D01*
X200941610Y-99151170D02*
X201268360Y-97481520D01*
X159050400Y-130668020D02*
X160940250Y-131722570D01*
X130628920Y-141598910D02*
X131476250Y-140485570D01*
X186046125Y-70962274D02*
X187420325Y-68630874D01*
X172370250Y-141958770D02*
X173132250Y-142085770D01*
X164242250Y-134262570D02*
X166231900Y-136117620D01*
X177995950Y-139759870D02*
X178462360Y-139184660D01*
X184586250Y-94243570D02*
X183911250Y-94243570D01*
X171354250Y-141323770D02*
X172370250Y-141958770D01*
X194294070Y-54932790D02*
X194925450Y-55293970D01*
X97278100Y-98602320D02*
X98675100Y-98168420D01*
X188307100Y-84149220D02*
X188817300Y-85911820D01*
X109157900Y-90792420D02*
X110665700Y-88212820D01*
X97031750Y-107415450D02*
X97237050Y-108938770D01*
X123889210Y-141974060D02*
X124624170Y-142064770D01*
X200337400Y-107828320D02*
X200827600Y-107698820D01*
X109538900Y-112223720D02*
X111444300Y-112993520D01*
X187104200Y-110889520D02*
X188530800Y-110025320D01*
X196723600Y-107965620D02*
X196924200Y-107960620D01*
X180614100Y-130807120D02*
X180640400Y-131117020D01*
X113798600Y-114408520D02*
X114118700Y-114663820D01*
X196896600Y-94567020D02*
X199421250Y-95400570D01*
X119093600Y-121469020D02*
X119578600Y-123727820D01*
X193524900Y-66602320D02*
X193613800Y-66500220D01*
X190865500Y-89600020D02*
X192284900Y-91342520D01*
X140554800Y-131046920D02*
X140942000Y-130817820D01*
X181382000Y-117630520D02*
X182150200Y-116045920D01*
X158760900Y-130507720D02*
X158771900Y-130512520D01*
X173132250Y-142085770D02*
X173894250Y-141958770D01*
X192202120Y-55218480D02*
X193482550Y-54880860D01*
X178778650Y-137217040D02*
X180367760Y-136609360D01*
X107095600Y-93116220D02*
X108876100Y-91155920D01*
X162845250Y-133119570D02*
X164242250Y-134262570D01*
X170417500Y-140468720D02*
X171354250Y-141323770D01*
X196836000Y-94551420D02*
X196838000Y-94552020D01*
X180468500Y-124251320D02*
X180468500Y-124217120D01*
X132619250Y-138834570D02*
X133828400Y-137050920D01*
X180640400Y-131117020D02*
X180920100Y-132692220D01*
X184180025Y-77538174D02*
X184180025Y-77528474D01*
X107163300Y-111646320D02*
X109222100Y-112118720D01*
X196470100Y-94405220D02*
X196758600Y-94528220D01*
X184586250Y-88768570D02*
X183286250Y-88768570D01*
X188448425Y-57402174D02*
X188905625Y-58468974D01*
X200414430Y-96001620D02*
X201027760Y-96781180D01*
X117808300Y-118619020D02*
X118026800Y-119000920D01*
X158828700Y-130539020D02*
X159050400Y-130668020D01*
X189810100Y-87884020D02*
X189892200Y-88024720D01*
X184586250Y-94243570D02*
X185779150Y-94243570D01*
X184675325Y-74426674D02*
X184812025Y-74035174D01*
X188099400Y-75228220D02*
X188895600Y-73034520D01*
X180468500Y-124251320D02*
X180468600Y-124262720D01*
X195175200Y-64838220D02*
X197659600Y-62136020D01*
D35*
X111721871Y-99682949D02*
X111721871Y-98740699D01*
D34*
X160940250Y-131722570D02*
X161575250Y-132103570D01*
X105005900Y-111369920D02*
X106876400Y-111605220D01*
X187587200Y-78676320D02*
X187740900Y-81408920D01*
X117795300Y-118601720D02*
X117803800Y-118612920D01*
X113472040Y-62469900D02*
X114134240Y-60240680D01*
X184675325Y-74426674D02*
X184812025Y-74035174D01*
X192629000Y-108493420D02*
X194443800Y-108171020D01*
X100498900Y-111165320D02*
X100523200Y-111166720D01*
X180834160Y-136034190D02*
X181170250Y-135100950D01*
X110490000Y-73215720D02*
X111442100Y-75380720D01*
X182330400Y-115739220D02*
X182351100Y-115711220D01*
X188296025Y-67358974D02*
X189591425Y-65784174D01*
X112159200Y-78203020D02*
X112160500Y-78210920D01*
X110312100Y-72902820D02*
X110490000Y-73215720D01*
X112160500Y-78210920D02*
X112164400Y-78235720D01*
X156033700Y-129554420D02*
X156570900Y-129667120D01*
X153280300Y-129079620D02*
X153749500Y-129107120D01*
X183161250Y-93793570D02*
X182961250Y-93318570D01*
X186356950Y-94821370D02*
X186356950Y-95028470D01*
X194454800Y-93386220D02*
X196470100Y-94405220D01*
X191824700Y-68564820D02*
X191941300Y-68427320D01*
X125053310Y-86292580D02*
X130855470Y-80501950D01*
X133828400Y-137050920D02*
X134997000Y-135571620D01*
X97237050Y-108938770D02*
X97541850Y-109751570D01*
X112164400Y-78235720D02*
X112168000Y-78260420D01*
X111943200Y-84262820D02*
X112305300Y-81477620D01*
X193482550Y-54880860D02*
X194294070Y-54932790D01*
X180544000Y-129539620D02*
X180614100Y-130807120D01*
X180813200Y-119583020D02*
X181254100Y-117991720D01*
X131476250Y-140485570D02*
X132619250Y-138834570D01*
X194925450Y-55293970D02*
X197890150Y-58330500D01*
X188817300Y-85911820D02*
X188977600Y-86291220D01*
X143830100Y-129639520D02*
X146638700Y-129100020D01*
X192313900Y-108579220D02*
X192629000Y-108493420D01*
X184558925Y-74964074D02*
X184560325Y-74964274D01*
X119794900Y-133137920D02*
X119921500Y-130701220D01*
X104765800Y-95109120D02*
X105088900Y-94863820D01*
X201790200Y-107179620D02*
X201946300Y-106972620D01*
X194443800Y-108171020D02*
X194641100Y-108143420D01*
X199421250Y-95400570D02*
X200414430Y-96001620D01*
D35*
X112936250Y-99993570D02*
X112661250Y-99718570D01*
D34*
X111862100Y-84675220D02*
X111943200Y-84262820D01*
X94544650Y-100556770D02*
X94976450Y-99743970D01*
X129603100Y-142086780D02*
X130628920Y-141598910D01*
X189591425Y-55116174D02*
X190404225Y-54887574D01*
X187587200Y-78676320D02*
X187595600Y-78233720D01*
X109222100Y-112118720D02*
X109538900Y-112223720D01*
X105060250Y-65301570D02*
X105359200Y-66588420D01*
X136712200Y-133685320D02*
X136839500Y-133560220D01*
X119293400Y-135638720D02*
X119755100Y-133451320D01*
X188804025Y-55624174D02*
X189591425Y-55116174D01*
X185836250Y-97593570D02*
X184586250Y-97593570D01*
X182911250Y-89168570D02*
X182836250Y-89643570D01*
X119616400Y-124057320D02*
X119807100Y-126184320D01*
X182150200Y-116045920D02*
X182290500Y-115796120D01*
X94366850Y-101674370D02*
X94544650Y-100556770D01*
D35*
X114213463Y-87404303D02*
X114899263Y-85067503D01*
D34*
X188801600Y-109874620D02*
X190466300Y-109131620D01*
X184211250Y-86343570D02*
X184586250Y-87093570D01*
X105088900Y-94863820D02*
X106874100Y-93321220D01*
X102615600Y-96379820D02*
X102708400Y-96328720D01*
X100523200Y-111166720D02*
X102570300Y-111239420D01*
X110846300Y-87778820D02*
X111862100Y-84675220D01*
X112124800Y-78043420D02*
X112159200Y-78203020D01*
X167594500Y-137531420D02*
X167603200Y-137540720D01*
X135154700Y-135373320D02*
X136712200Y-133685320D01*
X110665700Y-88212820D02*
X110846300Y-87778820D01*
X185322400Y-112297520D02*
X186824400Y-111075620D01*
X161575250Y-132103570D02*
X162845250Y-133119570D01*
X180730100Y-119952120D02*
X180813200Y-119583020D01*
X119775400Y-133342820D02*
X119794900Y-133137920D01*
D35*
X112671050Y-103033770D02*
X112936250Y-102768570D01*
D34*
X201278200Y-107523520D02*
X201592300Y-107346320D01*
X134997000Y-135571620D02*
X135154700Y-135373320D01*
X119242500Y-135861420D02*
X119293400Y-135638720D01*
X181254100Y-117991720D02*
X181382000Y-117630520D01*
X192443500Y-91521220D02*
X193974800Y-93029820D01*
X184155825Y-85773995D02*
X184211250Y-86343570D01*
X118039650Y-87805970D02*
X121443250Y-87787920D01*
X112182700Y-78430220D02*
X112329700Y-81074120D01*
X106000050Y-59891370D02*
X107930450Y-56919570D01*
X178722550Y-138414210D02*
X178727850Y-137090040D01*
X109051100Y-70912520D02*
X109146000Y-71048520D01*
X95992450Y-106957570D02*
X97234950Y-107415450D01*
X119807100Y-126184320D02*
X119819600Y-126356020D01*
X197659600Y-62136020D02*
X198001600Y-61710420D01*
X119030250Y-138834570D02*
X119535420Y-139492810D01*
X196758600Y-94528220D02*
X196794600Y-94539520D01*
X114118700Y-114663820D02*
X115962500Y-116295820D01*
X118358174Y-71995722D02*
G75*
G02*
X113472047Y-62469901I2382326J7238022D01*
G01*
X107993269Y-56880789D02*
G75*
G02*
X109403650Y-56296634I1410331J-1410411D01*
G01*
D35*
X114891815Y-85092874D02*
G75*
G02*
X123108359Y-77662230I10836835J-3724886D01*
G01*
X111721871Y-98740699D02*
G75*
G02*
X112968749Y-91030687I28179429J-601401D01*
G01*
X126617177Y-75331986D02*
G75*
G02*
X124450698Y-77324681I-2904077J983286D01*
G01*
D34*
X113188672Y-57650318D02*
G75*
G02*
X114134266Y-60240682I-1519572J-2022482D01*
G01*
X129570944Y-75395123D02*
G75*
G02*
X130857660Y-80499830I-881344J-2936677D01*
G01*
X125053313Y-86292583D02*
G75*
G02*
X121443250Y-87787879I-3610013J3610083D01*
G01*
X109403650Y-56296590D02*
G75*
G02*
X113213280Y-57617597I-50J-6153910D01*
G01*
D11*
%TO.N,GND*%
X140645620Y-98341660D02*
X142682960Y-98341660D01*
X128651180Y-106291500D02*
X135638110Y-99265110D01*
X137806140Y-98367080D02*
X140925010Y-98367080D01*
X118801650Y-108151370D02*
X124161050Y-108151370D01*
X158171650Y-123741710D02*
X160483010Y-123741710D01*
X142830050Y-122426170D02*
X142830050Y-112266170D01*
X142682960Y-98341660D02*
X142906250Y-98118370D01*
D34*
X115423450Y-60221570D02*
X189032650Y-60247800D01*
X114483650Y-63599770D02*
X115423450Y-60221100D01*
D11*
X146690850Y-121791170D02*
X146690850Y-102207770D01*
X142906250Y-98118370D02*
X142906250Y-87653570D01*
D34*
X183952650Y-71676970D02*
X185679850Y-68527370D01*
D11*
X142880850Y-121689570D02*
X146690850Y-121689570D01*
D34*
X183261250Y-72118570D02*
X183952650Y-71676970D01*
D11*
X141605560Y-111041680D02*
X142830050Y-112266170D01*
D36*
X158171650Y-124813770D02*
X158171650Y-123741710D01*
D34*
X146690850Y-119886170D02*
X157130250Y-119886170D01*
D35*
X104186250Y-106218570D02*
X111740650Y-106218570D01*
D11*
X157130250Y-122781770D02*
X157130250Y-99484030D01*
D34*
X181736250Y-72759570D02*
X183261250Y-72118570D01*
D11*
X157689050Y-98321570D02*
X157689050Y-98296170D01*
D34*
X189032650Y-63396570D02*
X189032650Y-60272370D01*
D11*
X157689050Y-98296170D02*
X157689050Y-87526680D01*
X146690850Y-111046970D02*
X160660850Y-111046970D01*
X157689050Y-98346970D02*
X160483040Y-98346970D01*
X148595850Y-123442170D02*
X151135850Y-123442170D01*
D34*
X185679850Y-68527370D02*
X189032650Y-63294970D01*
D11*
X142682961Y-98341658D02*
G75*
G02*
X146690942Y-102207769I70939J-3937042D01*
G01*
X142830049Y-122426172D02*
G75*
G02*
X140874236Y-123874050I-1701849J253972D01*
G01*
X142245849Y-86002571D02*
G75*
G02*
X142906236Y-87596920I-1594349J-1594329D01*
G01*
X157137488Y-99484026D02*
G75*
G02*
X158025203Y-98354284I1008712J121026D01*
G01*
X135638115Y-99265105D02*
G75*
G02*
X137806140Y-98367099I2167985J-2167995D01*
G01*
X158171653Y-123741711D02*
G75*
G02*
X157130190Y-122781775I-40753J1000711D01*
G01*
X141387360Y-85646960D02*
G75*
G02*
X142245887Y-86002533I40J-1214140D01*
G01*
X128651178Y-106291498D02*
G75*
G02*
X124161050Y-108151343I-4490078J4490098D01*
G01*
X157680832Y-87526681D02*
G75*
G02*
X159390842Y-85621556I1887868J25481D01*
G01*
X148595850Y-123442170D02*
G75*
G02*
X146690930Y-121537170I50J1904970D01*
G01*
D35*
%TO.N,/S1P1*%
X122165950Y-119524770D02*
X122350150Y-119942570D01*
X123255750Y-125433870D02*
X123273750Y-125636370D01*
X114762100Y-81906620D02*
X114766200Y-81907320D01*
X110032200Y-108695410D02*
X110418100Y-108806510D01*
X114431700Y-84448220D02*
X114433400Y-84448320D01*
X123053950Y-123160570D02*
X123053950Y-123150770D01*
X110445050Y-58062570D02*
X111257850Y-57960970D01*
X120763950Y-116661170D02*
X120768650Y-116657670D01*
X114638700Y-77947920D02*
X114638700Y-77908820D01*
X123053950Y-123160570D02*
X123072850Y-123471870D01*
X111316100Y-92052220D02*
X112823900Y-89472620D01*
X108407300Y-95293920D02*
X108673900Y-95054220D01*
X118674650Y-114069570D02*
X119184350Y-114603270D01*
X123419900Y-130274110D02*
X123576850Y-130909770D01*
X114235100Y-85446720D02*
X114366200Y-84950120D01*
X104044250Y-107160770D02*
X105657100Y-107917310D01*
X122341550Y-119945670D02*
X122503150Y-120493970D01*
X131628650Y-132255970D02*
X134473450Y-129362120D01*
X112949400Y-109826810D02*
X113361600Y-110046110D01*
X111257850Y-57960970D02*
X112019850Y-58062570D01*
X113892900Y-74819320D02*
X114009100Y-75270820D01*
X114668000Y-78144820D02*
X114671200Y-78293620D01*
X114538900Y-77416020D02*
X114585100Y-77594520D01*
X121066050Y-117105770D02*
X121281650Y-117553070D01*
X122341550Y-119945670D02*
X122350150Y-119942570D01*
X114640000Y-77948220D02*
X114668000Y-78144820D01*
X112577000Y-71824020D02*
X112775200Y-72209820D01*
X110826050Y-68933770D02*
X111053100Y-69428120D01*
X106438700Y-96978020D02*
X106769600Y-96705520D01*
X105657100Y-107917310D02*
X107279200Y-108121310D01*
X114635100Y-77884120D02*
X114638700Y-77908820D01*
X114366200Y-84950120D02*
X114433400Y-84448320D01*
X102901250Y-100175770D02*
X103231450Y-99235970D01*
X114638700Y-77947920D02*
X114640000Y-77948220D01*
X114009100Y-75270820D02*
X114538900Y-77416020D01*
X112775200Y-72209820D02*
X113727300Y-74374820D01*
X114819400Y-81423220D02*
X114819900Y-80937420D01*
X127513850Y-133805370D02*
X129317250Y-133856170D01*
X123072850Y-123471870D02*
X123248850Y-125434670D01*
X102698050Y-101598170D02*
X102850450Y-104519170D01*
X108673900Y-95054220D02*
X108678700Y-95059420D01*
X110699050Y-68095570D02*
X110826050Y-68933770D01*
X120745850Y-116640370D02*
X120763950Y-116661170D01*
X113727300Y-74374820D02*
X113892900Y-74819320D01*
X114621400Y-77830020D02*
X114625300Y-77854820D01*
X111001300Y-92517120D02*
X111316100Y-92052220D01*
X129317250Y-133856170D02*
X130307850Y-133373570D01*
X111140900Y-69553220D02*
X111150700Y-69553220D01*
X113075400Y-88958620D02*
X113225100Y-88532520D01*
X106035300Y-97257520D02*
X106438700Y-96978020D01*
X110720700Y-92834620D02*
X110996600Y-92513420D01*
X108678700Y-95059420D02*
X108941300Y-94795920D01*
X111053100Y-69428120D02*
X111140900Y-69553220D01*
X114672900Y-78293520D02*
X114819900Y-80937420D01*
X107973900Y-108220910D02*
X110032700Y-108693310D01*
X106769600Y-96705520D02*
X108405700Y-95291820D01*
X103281780Y-106629620D02*
X104044250Y-107160770D01*
X112985050Y-60653370D02*
X113162850Y-59789770D01*
X115474250Y-111275570D02*
X116235800Y-111880710D01*
X113010450Y-59002370D02*
X113162850Y-59789770D01*
X112387100Y-71520020D02*
X112577000Y-71824020D01*
X114431700Y-84448220D02*
X114762100Y-81906620D01*
X110797900Y-108946610D02*
X112626000Y-109685210D01*
X122503150Y-120493970D02*
X122988150Y-122752770D01*
X102698050Y-101598170D02*
X102901250Y-100175770D01*
X110699050Y-68095570D02*
X112985050Y-60653370D01*
X113225100Y-88532520D02*
X114235100Y-85446720D01*
X103977900Y-98477120D02*
X106035300Y-97257520D01*
X107279200Y-108121310D02*
X107626700Y-108155410D01*
X102850450Y-104519170D02*
X103281780Y-106629620D01*
X110418100Y-108806510D02*
X110798800Y-108944710D01*
X110720700Y-92834620D02*
X110721800Y-92835620D01*
X120768650Y-116657670D02*
X121066050Y-117105770D01*
X116235800Y-111880710D02*
X117926500Y-113377110D01*
X123248850Y-125434670D02*
X123255750Y-125433870D01*
X107964200Y-108220910D02*
X107973900Y-108220910D01*
X123273750Y-125636370D02*
X123419900Y-130274110D01*
X111150700Y-69553220D02*
X112387100Y-71520020D01*
X110032200Y-108695410D02*
X110032700Y-108693310D01*
X114620100Y-77792820D02*
X114621400Y-77830020D01*
X112823900Y-89472620D02*
X113075400Y-88958620D01*
X108405700Y-95291820D02*
X108407300Y-95293920D01*
X103231450Y-99235970D02*
X103977900Y-98477120D01*
X117926500Y-113377110D02*
X118674650Y-114069570D01*
X123576850Y-130909770D02*
X123957850Y-131519370D01*
X114625300Y-77854820D02*
X114635100Y-77884120D01*
X110996600Y-92513420D02*
X111001300Y-92517120D01*
X114585100Y-77604220D02*
X114620100Y-77792820D01*
X112019850Y-58062570D02*
X112680250Y-58494370D01*
X120736150Y-116620870D02*
X120745850Y-116640370D01*
X114585100Y-77604220D02*
X114585100Y-77594520D01*
X123957850Y-131519370D02*
X125837450Y-133297370D01*
X114766200Y-81907320D02*
X114819400Y-81423220D01*
X108941300Y-94795920D02*
X110721800Y-92835620D01*
X114671200Y-78293620D02*
X114672900Y-78293520D01*
X110797900Y-108946610D02*
X110798800Y-108944710D01*
X112680250Y-58494370D02*
X113010450Y-59002370D01*
X119184350Y-114603270D02*
X120736150Y-116620870D01*
X109274590Y-58598420D02*
X110445050Y-58062570D01*
X125837450Y-133297370D02*
X127513850Y-133805370D01*
X113361600Y-110046110D02*
X115474250Y-111275570D01*
X130307850Y-133373570D02*
X131628650Y-132255970D01*
X121281650Y-117553070D02*
X122165950Y-119524770D01*
X112626000Y-109685210D02*
X112949400Y-109826810D01*
X134473450Y-129362120D02*
X134473450Y-110234170D01*
X107626700Y-108155410D02*
X107964200Y-108220910D01*
X122988150Y-122752770D02*
X123053950Y-123150770D01*
X134473444Y-110234170D02*
G75*
G02*
X139401045Y-105840045I4660856J-266730D01*
G01*
%TO.N,/SCL0*%
X113436300Y-84374020D02*
X113437300Y-84374120D01*
X121295400Y-126008520D02*
X121309500Y-126164120D01*
X113650400Y-78049520D02*
X113671900Y-78226920D01*
X113671900Y-78226920D02*
X113675700Y-78348320D01*
X111861100Y-72612220D02*
X112813200Y-74777220D01*
X113385700Y-84758720D02*
X113437300Y-84374120D01*
X120435500Y-120737720D02*
X120440600Y-120735920D01*
X113608500Y-77811320D02*
X113608500Y-77805420D01*
X116910600Y-115139420D02*
X117183500Y-115388720D01*
X135725500Y-132554620D02*
X135809000Y-132477120D01*
X103365400Y-97679220D02*
X103383000Y-97667520D01*
X130434850Y-137234370D02*
X132085850Y-136218370D01*
X121413600Y-130389820D02*
X121417800Y-130583720D01*
X99193530Y-104546670D02*
X100691450Y-105484370D01*
X112153500Y-88575820D02*
X112275500Y-88225320D01*
X111555600Y-72070720D02*
X111709800Y-72316220D01*
X113637100Y-77982420D02*
X113641000Y-78007220D01*
X119399100Y-118407420D02*
X120291100Y-120396220D01*
X119230700Y-118059320D02*
X119399100Y-118407420D01*
X135808200Y-132476220D02*
X137642020Y-130415860D01*
X121043400Y-123417320D02*
X121093600Y-123721520D01*
X119001200Y-117718520D02*
X119003600Y-117716720D01*
X110209400Y-91901620D02*
X110212200Y-91903820D01*
X135808200Y-132476220D02*
X135809000Y-132477120D01*
X125551080Y-137726990D02*
X126370850Y-136346480D01*
X133900400Y-134538020D02*
X134053100Y-134359620D01*
X118984800Y-117699420D02*
X119001200Y-117718520D01*
X119003600Y-117716720D02*
X119230700Y-118059320D01*
X105058600Y-109864220D02*
X106965600Y-110111220D01*
X100208850Y-102842770D02*
X100386650Y-102004570D01*
X113676800Y-78348220D02*
X113823800Y-80992120D01*
X109632250Y-68247970D02*
X109810050Y-66749370D01*
X113675700Y-78348320D02*
X113676800Y-78348220D01*
X114589600Y-113137020D02*
X114898000Y-113355120D01*
X110324500Y-70123520D02*
X110330400Y-70123520D01*
X109810050Y-69162370D02*
X110252300Y-70021920D01*
X137642020Y-130415860D02*
X137673190Y-127367480D01*
X134053100Y-134359620D02*
X135610600Y-132671620D01*
X109810050Y-66749370D02*
X110064050Y-64590370D01*
X113572100Y-77662520D02*
X113608500Y-77805420D01*
X111709800Y-72316220D02*
X111861100Y-72612220D01*
X113779400Y-81735020D02*
X113781900Y-81735420D01*
X135610600Y-132671620D02*
X135725500Y-132554620D01*
X103714050Y-104290570D02*
X107727250Y-104290570D01*
X108203000Y-94124020D02*
X109983100Y-92163320D01*
X105527500Y-96398220D02*
X105837100Y-96185120D01*
X102342450Y-98626370D02*
X103318700Y-97704020D01*
X105837100Y-96185120D02*
X106099900Y-95966720D01*
X110452800Y-91548320D02*
X111960600Y-88968720D01*
X113436300Y-84374020D02*
X113779400Y-81735020D01*
X113285900Y-85138120D02*
X113385700Y-84758720D01*
X101021650Y-106068570D02*
X101531660Y-107890500D01*
X115160800Y-113590720D02*
X116910600Y-115139420D01*
X112939800Y-75116220D02*
X113028600Y-75462220D01*
X113646800Y-78024820D02*
X113650400Y-78049520D01*
X128961650Y-137539170D02*
X130434850Y-137234370D01*
X120291100Y-120396220D02*
X120440600Y-120735920D01*
X127615450Y-137208970D02*
X128961650Y-137539170D01*
X107491400Y-110187320D02*
X107497300Y-110187320D01*
X108002900Y-94325120D02*
X108203000Y-94124020D01*
X110674250Y-101343570D02*
X111736250Y-101343570D01*
X108000000Y-94321920D02*
X108002900Y-94325120D01*
X109555800Y-110661020D02*
X109556100Y-110659720D01*
X109555800Y-110661020D02*
X109851600Y-110745620D01*
X113641000Y-78007220D02*
X113646800Y-78024820D01*
X120435500Y-120737720D02*
X120558400Y-121158520D01*
X113823300Y-81364620D02*
X113823800Y-80992120D01*
X121291200Y-126009020D02*
X121295400Y-126008520D01*
X117183500Y-115388720D02*
X117427100Y-115670020D01*
X121412000Y-130389920D02*
X121413600Y-130389820D01*
X112580200Y-111887520D02*
X114589600Y-113137020D01*
X110252300Y-70021920D02*
X110324500Y-70123520D01*
X112813200Y-74777220D02*
X112939800Y-75116220D01*
X103317600Y-97702020D02*
X103318700Y-97704020D01*
X121415600Y-130771520D02*
X121417800Y-130583720D01*
X110141900Y-110853720D02*
X112000900Y-111604820D01*
X110141900Y-110853720D02*
X110142400Y-110852620D01*
X113608500Y-77811320D02*
X113635800Y-77956920D01*
X99218250Y-104214370D02*
X100208850Y-102842770D01*
X113781900Y-81735420D02*
X113823300Y-81364620D01*
X113635800Y-77956920D02*
X113637100Y-77982420D01*
X121109400Y-123980520D02*
X121291200Y-126009020D01*
X121468650Y-131341570D02*
X121976650Y-132611570D01*
X111960600Y-88968720D02*
X112153500Y-88575820D01*
X100691450Y-105484370D02*
X101021650Y-106068570D01*
X110330400Y-70123520D02*
X111555600Y-72070720D01*
X107232000Y-110137520D02*
X107491400Y-110187320D01*
X110212200Y-91903820D02*
X110452800Y-91548320D01*
X103470100Y-97617820D02*
X105527500Y-96398220D01*
X114898000Y-113355120D02*
X115160800Y-113590720D01*
X106965600Y-110111220D02*
X107232000Y-110137520D01*
X124719850Y-135202370D02*
X127615450Y-137208970D01*
X109851600Y-110745620D02*
X110142400Y-110852620D01*
X120558400Y-121158520D02*
X121043400Y-123417320D01*
X100386650Y-102004570D02*
X102342450Y-98626370D01*
X117427100Y-115670020D02*
X118978900Y-117687620D01*
X121309500Y-126164120D02*
X121412000Y-130389920D01*
X109632250Y-68247970D02*
X109810050Y-69162370D01*
X107727250Y-104290570D02*
X110674250Y-101343570D01*
X118978900Y-117687620D02*
X118984800Y-117699420D01*
X101531660Y-107890500D02*
X102952050Y-109014970D01*
X113028600Y-75462220D02*
X113572100Y-77662520D01*
X133763100Y-134724220D02*
X133900400Y-134538020D01*
X107794000Y-94504820D02*
X108000000Y-94321920D01*
X107793000Y-94503620D02*
X107794000Y-94504820D01*
X112000900Y-111604820D02*
X112265700Y-111719020D01*
X121415600Y-130771520D02*
X121468650Y-131341570D01*
X103318700Y-97704020D02*
X103365400Y-97679220D01*
X109960000Y-62124510D02*
X110064050Y-64590370D01*
X102952050Y-109014970D02*
X105058600Y-109864220D01*
X121093600Y-123727320D02*
X121093600Y-123721520D01*
X107497300Y-110187320D02*
X109556100Y-110659720D01*
X121093600Y-123727320D02*
X121109400Y-123980520D01*
X112265700Y-111719020D02*
X112580200Y-111887520D01*
X109983100Y-92163320D02*
X110209400Y-91901620D01*
X112275500Y-88225320D02*
X113285900Y-85138120D01*
X103383000Y-97667520D02*
X103470100Y-97617820D01*
X132085850Y-136218370D02*
X133763100Y-134724220D01*
X106099900Y-95966720D02*
X107793000Y-94503620D01*
X121976650Y-132611570D02*
X124719850Y-135202370D01*
X137673195Y-127367473D02*
G75*
G02*
X139147062Y-126109098I1366105J-107727D01*
G01*
%TO.N,/SDA0*%
X114587500Y-113745720D02*
X114812400Y-113947420D01*
X112538400Y-75557920D02*
X112700600Y-76181020D01*
X99407310Y-109446520D02*
X100533140Y-109856380D01*
X108479300Y-68468420D02*
X108607600Y-68640620D01*
X134174800Y-135006220D02*
X134291000Y-134848520D01*
X107854250Y-60704170D02*
X108184450Y-62583770D01*
X100031050Y-98880370D02*
X100773400Y-98453420D01*
X103084400Y-97262620D02*
X103131100Y-97237820D01*
X111141800Y-72349220D02*
X111276200Y-72562320D01*
X120780400Y-133334620D02*
X120791000Y-133188720D01*
X107486700Y-94109420D02*
X107487400Y-94110320D01*
X120811500Y-126199320D02*
X120914500Y-130423120D01*
X117032600Y-115974720D02*
X118584400Y-117992320D01*
X107663100Y-93955820D02*
X107665000Y-93957920D01*
X113178000Y-78375520D02*
X113325800Y-81019420D01*
X109614200Y-91827620D02*
X109815800Y-91595720D01*
X98928990Y-109028790D02*
X99407310Y-109446520D01*
X120070200Y-121262020D02*
X120555200Y-123520820D01*
X111529000Y-88716720D02*
X111692600Y-88384420D01*
X118584400Y-117992320D02*
X118603900Y-118018420D01*
X113325300Y-81335320D02*
X113325800Y-81019420D01*
X116597200Y-115527220D02*
X116826000Y-115736420D01*
X97414850Y-100937770D02*
X97694250Y-100277370D01*
X135977800Y-133009520D02*
X136075100Y-132910120D01*
X107382100Y-110673620D02*
X109444800Y-111146020D01*
X105765500Y-95596720D02*
X107486700Y-94109420D01*
X136075100Y-132910120D02*
X136152500Y-132838020D01*
X109916300Y-70408720D02*
X109920200Y-70408720D01*
X112938600Y-84336920D02*
X113288000Y-81649220D01*
X100993400Y-98374920D02*
X101239900Y-98257420D01*
X120741100Y-133604620D02*
X120748900Y-133577320D01*
X108339000Y-68306920D02*
X108479300Y-68468420D01*
X106889050Y-66596970D02*
X108339000Y-68306920D01*
X112895500Y-84663020D02*
X112938600Y-84336920D01*
X129850650Y-140510970D02*
X131786700Y-138032320D01*
X96678250Y-104900170D02*
X98202250Y-106449570D01*
X136152500Y-132838020D02*
X139859230Y-128658650D01*
X113148800Y-78083420D02*
X113152700Y-78095120D01*
X113156300Y-78119820D02*
X113173900Y-78267920D01*
X134420300Y-134697520D02*
X135977800Y-133009520D01*
X119966400Y-120905120D02*
X120070200Y-121262020D01*
X104818800Y-110347020D02*
X105002000Y-110360320D01*
X124319680Y-139948540D02*
X126015250Y-139444170D01*
X114325900Y-113560820D02*
X114587500Y-113745720D01*
X101239900Y-98257420D02*
X103083700Y-97261220D01*
X100533140Y-109856380D02*
X102671930Y-110170020D01*
X100773400Y-98453420D02*
X100993400Y-98374920D01*
X113027200Y-77456520D02*
X113148800Y-78083420D01*
X98100650Y-99820170D02*
X99142050Y-99312170D01*
X109989800Y-70517220D02*
X111141800Y-72349220D01*
X110021200Y-91296320D02*
X111529000Y-88716720D01*
X119966400Y-120905120D02*
X119969900Y-120903920D01*
X109695300Y-111218320D02*
X109941200Y-111309620D01*
X120909850Y-136446970D02*
X121519450Y-137005770D01*
X112463200Y-75264620D02*
X112538400Y-75557920D01*
X120579650Y-135024570D02*
X120605050Y-135786570D01*
X106482650Y-64869770D02*
X106965250Y-64183970D01*
X128428250Y-140764970D02*
X129088650Y-140790370D01*
X102671930Y-110170020D02*
X104818800Y-110347020D01*
X105164600Y-110386320D02*
X106935900Y-110609220D01*
X105273600Y-95968520D02*
X105536400Y-95788620D01*
X118605200Y-118017420D02*
X118797100Y-118307320D01*
X120762900Y-133474620D02*
X120780400Y-133334620D01*
X129088650Y-140790370D02*
X129850650Y-140510970D01*
X112700600Y-76181020D02*
X112870700Y-76818120D01*
X106431850Y-65631770D02*
X106889050Y-66596970D01*
X109817700Y-91597220D02*
X110021200Y-91296320D01*
X120597500Y-123782020D02*
X120611800Y-124007120D01*
X112870700Y-76818120D02*
X113027200Y-77456520D01*
X116826000Y-115736420D02*
X117032600Y-115974720D01*
X119838900Y-120605720D02*
X119969900Y-120903920D01*
X131899900Y-137881720D02*
X132016200Y-137739420D01*
X107487400Y-94110320D02*
X107663100Y-93955820D01*
X103131100Y-97237820D02*
X105273600Y-95968520D01*
X105002000Y-110360320D02*
X105164600Y-110386320D01*
X118603900Y-118018420D02*
X118605200Y-118017420D01*
X120611800Y-124007120D02*
X120796500Y-126067420D01*
X118941100Y-118603720D02*
X119838900Y-120605720D01*
X113173900Y-78267920D02*
X113178000Y-78375520D01*
X96678250Y-104900170D02*
X97719650Y-103249170D01*
X120914500Y-130423120D02*
X120915600Y-130423020D01*
X107665000Y-93957920D02*
X107833900Y-93788120D01*
X111276200Y-72562320D02*
X111404100Y-72813420D01*
X111692600Y-88384420D02*
X111799200Y-88076020D01*
X112316500Y-112311320D02*
X114325900Y-113560820D01*
X111799200Y-88076020D02*
X112811300Y-84983820D01*
X111404100Y-72813420D02*
X112356200Y-74978420D01*
X121519450Y-137005770D02*
X123957850Y-138250370D01*
X106431850Y-65631770D02*
X106482650Y-64869770D01*
X109815800Y-91595720D02*
X109817700Y-91597220D01*
X114812400Y-113947420D02*
X116597200Y-115527220D01*
X111814400Y-112067320D02*
X112050900Y-112168320D01*
X131786700Y-138032320D02*
X131896000Y-137881720D01*
X134291000Y-134848520D02*
X134420300Y-134697520D01*
X120757100Y-133531020D02*
X120762900Y-133474620D01*
X109844800Y-70309220D02*
X109916300Y-70408720D01*
X126015250Y-139444170D02*
X128428250Y-140764970D01*
X120791000Y-133188720D02*
X120917600Y-130748120D01*
X120915600Y-130423020D02*
X120919800Y-130587620D01*
X107833900Y-93788120D02*
X109614200Y-91827620D01*
X109920200Y-70408720D02*
X109989800Y-70517220D01*
X109444800Y-111146020D02*
X109695300Y-111218320D01*
X106935900Y-110609220D02*
X107161700Y-110631620D01*
X107161700Y-110631620D02*
X107382100Y-110673620D01*
X113152700Y-78095120D02*
X113156300Y-78119820D01*
X120605050Y-135786570D02*
X120909850Y-136446970D01*
X112811300Y-84983820D02*
X112895500Y-84663020D01*
X105536400Y-95788620D02*
X105765500Y-95596720D01*
X98405450Y-108329170D02*
X98928990Y-109028790D01*
X108936250Y-104693570D02*
X111711250Y-104693570D01*
X108607600Y-68640620D02*
X109844800Y-70309220D01*
X109941200Y-111309620D02*
X111814400Y-112067320D01*
X99142050Y-99312170D02*
X100031050Y-98880370D01*
X112050900Y-112168320D02*
X112316500Y-112311320D01*
X113288000Y-81649220D02*
X113289700Y-81649520D01*
X120555200Y-123520820D02*
X120597500Y-123778120D01*
X97414850Y-100937770D02*
X97495360Y-101673140D01*
X132016200Y-137739420D02*
X134174800Y-135006220D01*
X120597500Y-123782020D02*
X120597500Y-123778120D01*
X108399450Y-105230370D02*
X108936250Y-104693570D01*
X118797100Y-118307320D02*
X118941100Y-118603720D01*
X106965250Y-64183970D02*
X108184450Y-62583770D01*
X120796500Y-126067420D02*
X120799300Y-126067120D01*
X103083700Y-97261220D02*
X103084400Y-97262620D01*
X97495360Y-101673140D02*
X97719650Y-103249170D01*
X131896000Y-137881720D02*
X131899900Y-137881720D01*
X120748900Y-133577320D02*
X120757100Y-133531020D01*
X113289700Y-81649520D02*
X113325300Y-81335320D01*
X120579650Y-135024570D02*
X120741100Y-133604620D01*
X112356200Y-74978420D02*
X112463200Y-75264620D01*
X97694250Y-100277370D02*
X98100650Y-99820170D01*
X123957850Y-138250370D02*
X124211850Y-140129970D01*
X120799300Y-126067120D02*
X120811500Y-126199320D01*
X103917250Y-105230370D02*
X108399450Y-105230370D01*
X98202250Y-106449570D02*
X98405450Y-108329170D01*
X120917600Y-130748120D02*
X120919800Y-130587620D01*
%TO.N,/S1P2*%
X102190050Y-101471170D02*
X102393250Y-100124970D01*
X102393250Y-100124970D02*
X102774250Y-98880370D01*
X106435700Y-96335220D02*
X108099400Y-94897620D01*
X120632450Y-117353770D02*
X120824950Y-117752670D01*
X109921000Y-109181310D02*
X110261800Y-109279210D01*
X115093250Y-111656570D02*
X115474250Y-111910570D01*
X113416400Y-74967720D02*
X113518800Y-75366520D01*
X117610400Y-113762510D02*
X118268250Y-114348970D01*
X123500650Y-131798770D02*
X125532650Y-133754570D01*
X114055800Y-77540320D02*
X114096800Y-77699920D01*
X122923290Y-130351550D02*
X123043450Y-131036770D01*
X110352000Y-92499020D02*
X110602900Y-92207620D01*
X125532650Y-133754570D02*
X127386850Y-134338770D01*
X114170000Y-78185820D02*
X114173500Y-78320920D01*
X109921000Y-109181310D02*
X109921400Y-109179610D01*
X110740500Y-69838420D02*
X111971300Y-71795320D01*
X110732700Y-69838420D02*
X110740500Y-69838420D01*
X108336900Y-94688020D02*
X108340800Y-94692320D01*
X107862600Y-108707210D02*
X109921400Y-109179610D01*
X115889200Y-112239110D02*
X117610400Y-113762510D01*
X108340800Y-94692320D02*
X108572200Y-94460020D01*
X112440500Y-110148110D02*
X112734600Y-110276010D01*
X113518800Y-75366520D02*
X114055800Y-77540320D01*
X122557850Y-123215170D02*
X122575250Y-123498370D01*
X110596900Y-109403310D02*
X110597600Y-109401810D01*
X118789750Y-114907870D02*
X120341550Y-116925470D01*
X120824950Y-117752670D02*
X121712250Y-119731170D01*
X108099400Y-94897620D02*
X108100700Y-94899320D01*
X103566010Y-107532070D02*
X105575600Y-108459510D01*
X130587250Y-133830770D02*
X132085850Y-132611570D01*
X114144600Y-77979120D02*
X114145900Y-78012720D01*
X112750500Y-88378320D02*
X113760500Y-85292420D01*
X121712250Y-119731170D02*
X121879450Y-120110470D01*
X122557850Y-123215170D02*
X122557850Y-123207370D01*
X114128000Y-77874920D02*
X114129300Y-77906220D01*
X121872550Y-120112970D02*
X122014850Y-120597470D01*
X115474250Y-111910570D02*
X115889200Y-112239110D01*
X102190050Y-101471170D02*
X102327840Y-104456640D01*
X122754150Y-125493170D02*
X122759650Y-125492470D01*
X113270200Y-74576020D02*
X113416400Y-74967720D01*
X114141000Y-77954420D02*
X114144600Y-77979120D01*
X120366650Y-116961170D02*
X120370250Y-116958470D01*
X102813410Y-106900700D02*
X103566010Y-107532070D01*
X118268250Y-114348970D02*
X118789750Y-114907870D01*
X120349350Y-116941170D02*
X120366650Y-116961170D01*
X114129300Y-77906220D02*
X114133200Y-77931020D01*
X122575250Y-123498370D02*
X122754150Y-125493170D01*
X121872550Y-120112970D02*
X121879450Y-120110470D01*
X102774250Y-98880370D02*
X103724000Y-98047520D01*
X120370250Y-116958470D02*
X120632450Y-117353770D01*
X112318100Y-72411020D02*
X113270200Y-74576020D01*
X122775750Y-125671570D02*
X122923290Y-130351550D01*
X112734600Y-110276010D02*
X113097900Y-110469910D01*
X106137900Y-96581520D02*
X106435700Y-96335220D01*
X114274100Y-81821420D02*
X114321400Y-81393920D01*
X123043450Y-131036770D02*
X123500650Y-131798770D01*
X108100700Y-94899320D02*
X108336900Y-94688020D01*
X107854800Y-108707210D02*
X107862600Y-108707210D01*
X122759650Y-125492470D02*
X122775750Y-125671570D01*
X127386850Y-134338770D02*
X129444250Y-134389570D01*
X110652700Y-69725020D02*
X110732700Y-69838420D01*
X110602900Y-92207620D02*
X110606700Y-92210520D01*
X112614500Y-88767220D02*
X112750500Y-88378320D01*
X114270800Y-81820820D02*
X114274100Y-81821420D01*
X135006850Y-129512770D02*
X135006850Y-112291570D01*
X110606700Y-92210520D02*
X110884500Y-91800220D01*
X113934000Y-84411120D02*
X113935400Y-84411220D01*
X105575600Y-108459510D02*
X107249500Y-108619310D01*
X112143400Y-72070120D02*
X112318100Y-72411020D01*
X122499850Y-122856270D02*
X122557850Y-123207370D01*
X114096800Y-77707720D02*
X114128000Y-77874920D01*
X105781400Y-96827920D02*
X106137900Y-96581520D01*
X110884500Y-91800220D02*
X112392300Y-89220620D01*
X102327840Y-104456640D02*
X102813410Y-106900700D01*
X114145900Y-78012720D02*
X114170000Y-78185820D01*
X110140250Y-68095570D02*
X111892850Y-62050370D01*
X114173500Y-78320920D02*
X114174900Y-78320820D01*
X114096800Y-77707720D02*
X114096800Y-77699920D01*
X120341550Y-116925470D02*
X120349350Y-116941170D01*
X107556400Y-108649510D02*
X107854800Y-108707210D01*
X107249500Y-108619310D02*
X107556400Y-108649510D01*
X112392300Y-89220620D02*
X112614500Y-88767220D01*
X114174900Y-78320820D02*
X114321900Y-80964720D01*
X129444250Y-134389570D02*
X130587250Y-133830770D01*
X113097900Y-110469910D02*
X115093250Y-111656570D01*
X103724000Y-98047520D02*
X105781400Y-96827920D01*
X110261800Y-109279210D02*
X110597600Y-109401810D01*
X110318050Y-69136970D02*
X110652700Y-69725020D01*
X132085850Y-132611570D02*
X135006850Y-129512770D01*
X110596900Y-109403310D02*
X112440500Y-110148110D01*
X108572200Y-94460020D02*
X110352000Y-92499020D01*
X113934000Y-84411120D02*
X114270800Y-81820820D01*
X113760500Y-85292420D02*
X113875900Y-84854420D01*
X110140250Y-68095570D02*
X110318050Y-69136970D01*
X114133200Y-77931020D02*
X114141000Y-77954420D01*
X114321400Y-81393920D02*
X114321900Y-80964720D01*
X113875900Y-84854420D02*
X113935400Y-84411220D01*
X111971300Y-71795320D02*
X112143400Y-72070120D01*
X122014850Y-120597470D02*
X122499850Y-122856270D01*
X111380350Y-60018770D02*
X111892850Y-62050370D01*
X135006846Y-112291569D02*
G75*
G02*
X139604255Y-108379940I4254554J-342931D01*
G01*
%TO.N,/S2P1*%
X122916450Y-131951170D02*
X125253250Y-134262570D01*
X112695400Y-110820620D02*
X113107600Y-111039920D01*
X107372700Y-109149220D02*
X107710200Y-109214720D01*
X119768000Y-117078320D02*
X119777700Y-117097820D01*
X119800500Y-117115120D02*
X120097900Y-117563220D01*
X110543900Y-109940420D02*
X110544800Y-109938520D01*
X107719900Y-109214720D02*
X109778700Y-109687120D01*
X127386850Y-134897570D02*
X129723650Y-134948370D01*
X109778200Y-109689220D02*
X110164100Y-109800320D01*
X117898300Y-114693420D02*
X118216200Y-115060720D01*
X120313500Y-118010520D02*
X121197800Y-119982220D01*
X121535000Y-120951420D02*
X122020000Y-123210220D01*
X130993650Y-134287970D02*
X132492250Y-132992570D01*
X101631250Y-103122170D02*
X101722190Y-103527240D01*
X122085800Y-123618020D02*
X122104700Y-123929320D01*
X121373400Y-120403120D02*
X121382000Y-120400020D01*
X105403100Y-108911120D02*
X107025200Y-109115120D01*
X110543900Y-109940420D02*
X112372000Y-110679020D01*
X119777700Y-117097820D02*
X119795800Y-117118620D01*
X135514850Y-129715970D02*
X135514850Y-117015970D01*
X101148650Y-102512570D02*
X101631250Y-103122170D01*
X122020000Y-123210220D02*
X122085800Y-123608220D01*
X121373400Y-120403120D02*
X121535000Y-120951420D01*
X122104700Y-123929320D02*
X122280700Y-125892120D01*
X125253250Y-134262570D02*
X127386850Y-134897570D01*
X122305600Y-126093820D02*
X122407100Y-130323620D01*
X122407100Y-130323620D02*
X122484650Y-131062170D01*
X113107600Y-111039920D02*
X115117000Y-112289420D01*
X117545500Y-114370920D02*
X117898300Y-114693420D01*
X120097900Y-117563220D02*
X120313500Y-118010520D01*
X115117000Y-112289420D02*
X115519100Y-112573920D01*
X122484650Y-131062170D02*
X122916450Y-131951170D01*
X122280700Y-125892120D02*
X122287600Y-125891320D01*
X122287600Y-125891320D02*
X122305600Y-126093820D01*
X101722190Y-103527240D02*
X101758250Y-104468370D01*
X101758250Y-104468370D02*
X102422910Y-107287890D01*
X132492250Y-132992570D02*
X135514850Y-129715970D01*
X103419360Y-108041300D02*
X105403100Y-108911120D01*
X121197800Y-119982220D02*
X121382000Y-120400020D01*
X115854800Y-112874520D02*
X117545500Y-114370920D01*
X119795800Y-117118620D02*
X119800500Y-117115120D01*
X107710200Y-109214720D02*
X107719900Y-109214720D01*
X107025200Y-109115120D02*
X107372700Y-109149220D01*
X118216200Y-115060720D02*
X119768000Y-117078320D01*
X109778200Y-109689220D02*
X109778700Y-109687120D01*
X129723650Y-134948370D02*
X130993650Y-134287970D01*
X110164100Y-109800320D02*
X110544800Y-109938520D01*
X115519100Y-112573920D02*
X115854800Y-112874520D01*
X112372000Y-110679020D02*
X112695400Y-110820620D01*
X122085800Y-123618020D02*
X122085800Y-123608220D01*
X102422910Y-107287890D02*
X103419360Y-108041300D01*
X135514852Y-117015970D02*
G75*
G02*
X139604252Y-113459947I3822748J-266730D01*
G01*
%TO.N,/S2P2*%
X136048250Y-129893770D02*
X136048250Y-119022570D01*
X101979610Y-107529490D02*
X103136250Y-108497290D01*
X119373400Y-117382920D02*
X119381200Y-117398620D01*
X117821600Y-115365320D02*
X119373400Y-117382920D01*
X114853300Y-112713220D02*
X115208600Y-112964520D01*
X117229400Y-114756320D02*
X117540900Y-115041120D01*
X100869250Y-103503170D02*
X101225460Y-104663710D01*
X131273050Y-134770570D02*
X132949450Y-133322770D01*
X120904400Y-120570420D02*
X120911300Y-120567920D01*
X120744100Y-120188620D02*
X120911300Y-120567920D01*
X129825250Y-135507170D02*
X131273050Y-134770570D01*
X112186500Y-111141920D02*
X112480600Y-111269820D01*
X105321600Y-109402520D02*
X106995500Y-109613120D01*
X115208600Y-112964520D02*
X115508200Y-113232920D01*
X103136250Y-108497290D02*
X105321600Y-109402520D01*
X121807600Y-126129020D02*
X121909600Y-130356720D01*
X106995500Y-109613120D02*
X107302400Y-109643320D01*
X110342900Y-110397120D02*
X112186500Y-111141920D01*
X117540900Y-115041120D02*
X117821600Y-115365320D01*
X121531700Y-123313720D02*
X121589700Y-123664820D01*
X121909600Y-130356720D02*
X122002050Y-131189170D01*
X101225460Y-104663710D02*
X101979610Y-107529490D01*
X107608600Y-109701020D02*
X109667400Y-110173420D01*
X132949450Y-133322770D02*
X136048250Y-129893770D01*
X109667000Y-110175120D02*
X110007800Y-110273020D01*
X122459250Y-132281370D02*
X123297450Y-133043370D01*
X119856800Y-118210120D02*
X120744100Y-120188620D01*
X115508200Y-113232920D02*
X117229400Y-114756320D01*
X119398500Y-117418620D02*
X119402100Y-117415920D01*
X119381200Y-117398620D02*
X119398500Y-117418620D01*
X121589700Y-123672620D02*
X121589700Y-123664820D01*
X107600800Y-109701020D02*
X107608600Y-109701020D01*
X110007800Y-110273020D02*
X110343600Y-110395620D01*
X110342900Y-110397120D02*
X110343600Y-110395620D01*
X121589700Y-123672620D02*
X121607100Y-123955820D01*
X121786000Y-125950620D02*
X121791500Y-125949920D01*
X120904400Y-120570420D02*
X121046700Y-121054920D01*
X119664300Y-117811220D02*
X119856800Y-118210120D01*
X109667000Y-110175120D02*
X109667400Y-110173420D01*
X112843900Y-111463720D02*
X114853300Y-112713220D01*
X112480600Y-111269820D02*
X112843900Y-111463720D01*
X123297450Y-133043370D02*
X125050050Y-134745170D01*
X127285250Y-135354770D02*
X129825250Y-135507170D01*
X121607100Y-123955820D02*
X121786000Y-125950620D01*
X125050050Y-134745170D02*
X127285250Y-135354770D01*
X121791500Y-125949920D02*
X121807600Y-126129020D01*
X121046700Y-121054920D02*
X121531700Y-123313720D01*
X122002050Y-131189170D02*
X122459250Y-132281370D01*
X107302400Y-109643320D02*
X107600800Y-109701020D01*
X119402100Y-117415920D02*
X119664300Y-117811220D01*
X136048246Y-119022570D02*
G75*
G02*
X139655042Y-116076247I3276554J-330230D01*
G01*
%TO.N,/S3P2*%
X133685900Y-134021720D02*
X135243400Y-132333720D01*
X129110250Y-136804200D02*
X130231650Y-136624770D01*
X135243400Y-132333720D02*
X135375900Y-132199120D01*
X135375900Y-132199120D02*
X135465500Y-132116020D01*
X131755650Y-135761170D02*
X133685900Y-134021720D01*
X137136210Y-130194880D02*
X137136210Y-122913010D01*
X135464500Y-132114920D02*
X137136210Y-130194880D01*
X135464500Y-132114920D02*
X135465500Y-132116020D01*
X130231650Y-136624770D02*
X131755650Y-135761170D01*
X137136211Y-122913010D02*
G75*
G02*
X139375644Y-121181618I1985389J-253990D01*
G01*
%TO.N,/S3P1*%
X127209050Y-136015170D02*
X129952250Y-136091370D01*
X129952250Y-136091370D02*
X131476250Y-135278570D01*
X134876300Y-131995820D02*
X135026300Y-131843720D01*
X131476250Y-135278570D02*
X133318800Y-133683820D01*
X136556250Y-130096970D02*
X136556250Y-121054570D01*
X135026300Y-131843720D02*
X135122000Y-131755020D01*
X135120700Y-131753620D02*
X135122000Y-131755020D01*
X135120700Y-131753620D02*
X136556250Y-130096970D01*
X133318800Y-133683820D02*
X134876300Y-131995820D01*
X136556254Y-121054570D02*
G75*
G02*
X139299451Y-118539951I2628946J-114330D01*
G01*
%TO.N,/SCL1*%
X186127800Y-109727920D02*
X186380000Y-109582420D01*
X194518100Y-106649820D02*
X195357250Y-106576570D01*
X179302700Y-119437020D02*
X179395200Y-119096720D01*
X190846400Y-67407320D02*
X193261920Y-64623570D01*
X179896000Y-117309620D02*
X180034300Y-116980120D01*
X191242200Y-92425020D02*
X191394700Y-92587620D01*
X193172850Y-62024970D02*
X193655450Y-62532970D01*
X196627250Y-96924570D02*
X196754250Y-97813570D01*
X187511250Y-92518570D02*
X187036250Y-92618570D01*
X194553430Y-99810560D02*
X194585610Y-100936790D01*
X188986250Y-92868570D02*
X188261250Y-92568570D01*
X192076800Y-107081720D02*
X192078300Y-107087220D01*
X193655450Y-62532970D02*
X193858650Y-63015570D01*
X191736250Y-95693570D02*
X190436250Y-94593570D01*
X187677700Y-87029020D02*
X188485900Y-88575420D01*
X193858650Y-63015570D02*
X193934850Y-63574370D01*
X179795100Y-117651920D02*
X179796400Y-117652220D01*
X186492100Y-75452520D02*
X186581100Y-75040120D01*
X196728850Y-99388370D02*
X196754250Y-97813570D01*
X178466250Y-131468570D02*
X179097690Y-130452750D01*
X189856900Y-107766420D02*
X190108000Y-107666320D01*
X187823400Y-71850820D02*
X187825500Y-71852220D01*
X196728850Y-99388370D02*
X198230620Y-101507790D01*
X188979000Y-69838220D02*
X189158100Y-69580320D01*
X186778200Y-84233420D02*
X186830100Y-84442220D01*
X184414200Y-111108020D02*
X185881000Y-109915420D01*
X178974500Y-124276520D02*
X179047600Y-129371520D01*
X186314000Y-82051820D02*
X186778200Y-84233420D01*
X182238100Y-113341320D02*
X182407700Y-113124920D01*
X189362100Y-90031320D02*
X189363600Y-90030520D01*
X191928250Y-60297770D02*
X192207650Y-60983570D01*
X193781000Y-94722120D02*
X195761100Y-95723620D01*
X192595402Y-96343570D02*
X191736250Y-95693570D01*
X189611250Y-93568570D02*
X188986250Y-92868570D01*
X179047400Y-129473320D02*
X179047600Y-129371520D01*
X181087100Y-114906420D02*
X181145100Y-114827120D01*
X178968500Y-124251320D02*
X178974200Y-124262720D01*
X177704250Y-132103570D02*
X178466250Y-131468570D01*
X186083300Y-78431720D02*
X186113200Y-78022820D01*
X186246800Y-81490920D02*
X186248100Y-81490820D01*
X179047400Y-129473320D02*
X179097690Y-130452750D01*
X179019900Y-121724120D02*
X179241800Y-119782220D01*
X186095500Y-78801120D02*
X186246800Y-81490920D01*
X184058300Y-111424820D02*
X184229700Y-111263120D01*
X186236250Y-92593570D02*
X184586250Y-92593570D01*
X178968600Y-124262720D02*
X178974500Y-124276520D01*
X190108000Y-107666320D02*
X190360300Y-107589620D01*
X195761100Y-95723620D02*
X196119250Y-96035570D01*
X189521200Y-90295920D02*
X189705300Y-90543420D01*
X193308400Y-94429720D02*
X193781000Y-94722120D01*
X196474850Y-103680970D02*
X196500250Y-104417570D01*
X188632400Y-88833320D02*
X188635200Y-88831520D01*
X186113200Y-78022820D02*
X186492100Y-75452520D01*
X180908600Y-115185820D02*
X181048300Y-114958220D01*
X192207650Y-60983570D02*
X192690250Y-61618570D01*
X194337600Y-106671920D02*
X194518100Y-106649820D01*
X186083300Y-78431720D02*
X186095500Y-78801120D01*
X194585610Y-100936790D02*
X194619720Y-101000140D01*
X196728850Y-102969770D02*
X198230620Y-101507790D01*
X196119250Y-96035570D02*
X196627250Y-96924570D01*
X180034300Y-116980120D02*
X180802500Y-115395520D01*
X186581100Y-75040120D02*
X186693700Y-74718620D01*
X164216850Y-120495770D02*
X164216850Y-110996170D01*
X181087100Y-114906420D02*
X181088400Y-114907320D01*
X188828200Y-70112020D02*
X188979000Y-69844020D01*
X181054200Y-114958220D02*
X181088400Y-114907320D01*
X181048300Y-114958220D02*
X181054200Y-114958220D01*
X190436250Y-94593570D02*
X189611250Y-93568570D01*
X178968600Y-124262720D02*
X178974200Y-124262720D01*
X188192200Y-108509420D02*
X189856900Y-107766420D01*
X186263600Y-81745920D02*
X186314000Y-82051820D01*
X195992250Y-106449570D02*
X196551050Y-106322570D01*
X188979000Y-69844020D02*
X188979000Y-69838220D01*
X164851850Y-132306770D02*
X168966650Y-136421570D01*
X191928250Y-60297770D02*
X192139410Y-58810010D01*
X184227100Y-111260220D02*
X184414200Y-111108020D01*
X189158100Y-69580320D02*
X190635200Y-67656620D01*
X188261250Y-92568570D02*
X187511250Y-92518570D01*
X190635200Y-67656620D02*
X190739000Y-67527320D01*
X182584900Y-112942020D02*
X184058300Y-111424820D01*
X196652650Y-104900170D02*
X196906650Y-105230370D01*
X194186000Y-106694420D02*
X194337600Y-106671920D01*
X194553430Y-99810560D02*
X194585650Y-99198380D01*
X196500250Y-104417570D02*
X196652650Y-104900170D01*
X193706250Y-64107770D02*
X193934850Y-63574370D01*
X196551050Y-106322570D02*
X196906650Y-106043170D01*
X185881000Y-109915420D02*
X186129600Y-109730620D01*
X181144100Y-114826420D02*
X182238100Y-113341320D01*
X196474850Y-103680970D02*
X196728850Y-102969770D01*
X175068700Y-136173620D02*
X175068700Y-134585010D01*
X186895300Y-84647120D02*
X187381800Y-86327820D01*
X175068700Y-134585010D02*
X175372060Y-133432270D01*
X180802500Y-115395520D02*
X180804000Y-115396220D01*
X187676800Y-87029520D02*
X187677700Y-87029020D01*
X187509300Y-86686420D02*
X187676800Y-87029520D01*
X187489300Y-72524720D02*
X187640100Y-72179220D01*
X188554400Y-88704820D02*
X188632400Y-88833320D01*
X179003500Y-121994520D02*
X179019900Y-121724120D01*
X181144100Y-114826420D02*
X181145100Y-114827120D01*
X195357250Y-106576570D02*
X195992250Y-106449570D01*
X189518500Y-90297720D02*
X189521200Y-90295920D01*
X192690250Y-61618570D02*
X193172850Y-62024970D01*
X196906650Y-106043170D02*
X197008250Y-105662170D01*
X186127800Y-109727920D02*
X186129600Y-109730620D01*
X192371200Y-107016820D02*
X194186000Y-106694420D01*
X192078300Y-107087220D02*
X192371200Y-107016820D01*
X192897200Y-94067820D02*
X193308400Y-94429720D01*
X186248100Y-81490820D02*
X186263600Y-81745920D01*
X180804000Y-115396220D02*
X180908600Y-115185820D01*
X190739000Y-67527320D02*
X190846400Y-67407320D01*
X186380000Y-109582420D02*
X187721300Y-108769820D01*
X196906650Y-105230370D02*
X197008250Y-105662170D01*
X182413600Y-113124920D02*
X182584900Y-112942020D01*
X191394700Y-92587620D02*
X192897200Y-94067820D01*
X186611250Y-92618570D02*
X186236250Y-92593570D01*
X193261920Y-64623570D02*
X193706250Y-64107770D01*
X187936000Y-108637520D02*
X188192200Y-108509420D01*
X164851850Y-132306770D02*
X164851850Y-121130770D01*
X175372060Y-133432270D02*
X176561250Y-132738570D01*
X178968500Y-124217120D02*
X178974400Y-124199520D01*
X184227100Y-111260220D02*
X184229700Y-111263120D01*
X186693700Y-74718620D02*
X187489300Y-72524720D01*
X191847800Y-107158220D02*
X192076800Y-107081720D01*
X187721300Y-108769820D02*
X187936000Y-108637520D01*
X186830100Y-84442220D02*
X186895300Y-84647120D01*
X179795100Y-117651920D02*
X179896000Y-117309620D01*
X190360300Y-107589620D02*
X191847800Y-107158220D01*
X188554400Y-88704820D02*
X188556200Y-88703820D01*
X189705300Y-90543420D02*
X191111700Y-92270020D01*
X188635200Y-88831520D02*
X189363600Y-90030520D01*
X179395200Y-119096720D02*
X179796400Y-117652220D01*
X178968500Y-124251320D02*
X178968500Y-124217120D01*
X189362100Y-90031320D02*
X189518500Y-90297720D01*
X179241800Y-119782220D02*
X179302700Y-119437020D01*
X187825500Y-71852220D02*
X188828200Y-70112020D01*
X187036250Y-92618570D02*
X186611250Y-92618570D01*
X164216850Y-120495770D02*
X164851850Y-121130770D01*
X193978641Y-97726809D02*
X192595402Y-96343570D01*
X179003500Y-121994520D02*
X179004200Y-122241920D01*
X178974400Y-124199520D02*
X179004200Y-122241920D01*
X187381800Y-86327820D02*
X187509300Y-86686420D01*
X188485900Y-88575420D02*
X188556200Y-88703820D01*
X191111700Y-92270020D02*
X191242200Y-92425020D01*
X187640100Y-72179220D02*
X187823400Y-71850820D01*
X182407700Y-113124920D02*
X182413600Y-113124920D01*
X176561250Y-132738570D02*
X177704250Y-132103570D01*
X161448250Y-108278368D02*
G75*
G02*
X164216831Y-110996170I25350J-2743232D01*
G01*
X194588240Y-99198510D02*
G75*
G03*
X193978655Y-97726795I-2081340J10D01*
G01*
%TO.N,/S4P1*%
X170009780Y-135377220D02*
X171049450Y-136294570D01*
X168991040Y-135023560D02*
X170009780Y-135377220D01*
X171068500Y-137691570D02*
X172243250Y-138809170D01*
X171049450Y-136294570D02*
X171068500Y-137691570D01*
X165283650Y-120013170D02*
X165842450Y-120571970D01*
X165842450Y-131874970D02*
X168991040Y-135023560D01*
X172243250Y-138809170D02*
X174293270Y-139601920D01*
X165283650Y-120013170D02*
X165283650Y-104442970D01*
X165842450Y-131874970D02*
X165842450Y-120571970D01*
X161397450Y-100658366D02*
G75*
G02*
X165283633Y-104442970I50750J-3835434D01*
G01*
%TO.N,/S4P2*%
X165817050Y-119759170D02*
X165817050Y-99718570D01*
X170319930Y-134859850D02*
X173284650Y-137488370D01*
X169189510Y-134536470D02*
X170319930Y-134859850D01*
X165817050Y-119759170D02*
X166375850Y-120317970D01*
X166375850Y-131707620D02*
X166375850Y-120317970D01*
X166375850Y-131707620D02*
X169189510Y-134536470D01*
X161575250Y-95552973D02*
G75*
G02*
X165817026Y-99718570I38050J-4203727D01*
G01*
%TO.N,/SDA1*%
X189786250Y-92943570D02*
X189036250Y-92093570D01*
X190484300Y-108072420D02*
X192003000Y-107631920D01*
X179468600Y-124262720D02*
X179472500Y-124272620D01*
X186405100Y-110143920D02*
X186620400Y-110018620D01*
X196461700Y-95481320D02*
X198024250Y-96035570D01*
X187266400Y-84129920D02*
X187310600Y-84307420D01*
X179468500Y-124251320D02*
X179472400Y-124259120D01*
X178593250Y-132103570D02*
X179228250Y-131214570D01*
X199675250Y-99972570D02*
X199675250Y-97940570D01*
X194005600Y-94276820D02*
X195997400Y-95284120D01*
X187992200Y-109187620D02*
X188178200Y-109073020D01*
X180483600Y-117196920D02*
X181251800Y-115612320D01*
X192751200Y-65972820D02*
X192814300Y-65894320D01*
X187786250Y-90518570D02*
X187986250Y-90693570D01*
X195197840Y-100216010D02*
X195070840Y-99708010D01*
X195738250Y-60577170D02*
X196043050Y-61135970D01*
X187310600Y-84307420D02*
X187365900Y-84481120D01*
X179228250Y-131214570D02*
X179596660Y-130452570D01*
X187365900Y-84481120D02*
X187860300Y-86189120D01*
X169399780Y-135819980D02*
X169881050Y-136269170D01*
X194130500Y-96594020D02*
X192867060Y-95917270D01*
X186745600Y-81463620D02*
X186759700Y-81689320D01*
X179516000Y-121778820D02*
X179737900Y-119838820D01*
X180366700Y-117475620D02*
X180483600Y-117196920D01*
X193960250Y-58570570D02*
X193966530Y-57045550D01*
X191615200Y-92095020D02*
X191744300Y-92232120D01*
X164750250Y-120241770D02*
X164750250Y-109065770D01*
X195997400Y-95284120D02*
X196220800Y-95391120D01*
X186607300Y-78093120D02*
X186986200Y-75524820D01*
X188986000Y-88454820D02*
X189052400Y-88563820D01*
X181462400Y-115237520D02*
X181466300Y-115237520D01*
X189936300Y-90019220D02*
X190092100Y-90228920D01*
X192208700Y-107567820D02*
X192457100Y-107509020D01*
X190272100Y-108137020D02*
X190484300Y-108072420D01*
X193960250Y-58570570D02*
X194214250Y-59154770D01*
X187958100Y-72694720D02*
X188085400Y-72401920D01*
X191499500Y-91956720D02*
X191615200Y-92095020D01*
X199421250Y-97178570D02*
X199675250Y-97940570D01*
X186620400Y-110018620D02*
X187992200Y-109187620D01*
X179501500Y-122008220D02*
X179502600Y-122222920D01*
X196220800Y-95391120D02*
X196453900Y-95477420D01*
X184559100Y-111633220D02*
X184716900Y-111504520D01*
X198786250Y-106449570D02*
X199167250Y-105687570D01*
X195966850Y-62202770D02*
X196043050Y-61643970D01*
X199040250Y-96670570D02*
X199421250Y-97178570D01*
X187162200Y-74888520D02*
X187958100Y-72694720D01*
X179472500Y-124272620D02*
X179545800Y-129375020D01*
X192457100Y-107509020D02*
X194271900Y-107186620D01*
X195146500Y-98372020D02*
X195019500Y-97610020D01*
X187386250Y-90443570D02*
X187586250Y-90468570D01*
X188986000Y-88454820D02*
X188987200Y-88454120D01*
X184559100Y-111633220D02*
X184560800Y-111635120D01*
X191119900Y-67849620D02*
X191213000Y-67745520D01*
X194271900Y-107186620D02*
X194406000Y-107166020D01*
X190060000Y-108221420D02*
X190272100Y-108137020D01*
X192793360Y-95843570D02*
X191336250Y-94643570D01*
X192207700Y-107564220D02*
X192208700Y-107567820D01*
X192814300Y-65894320D02*
X195515900Y-63019920D01*
X199294250Y-103147570D02*
X200764440Y-101684950D01*
X198024250Y-96035570D02*
X199040250Y-96670570D01*
X179545400Y-129469420D02*
X179596660Y-130452570D01*
X184415800Y-111772520D02*
X184560800Y-111635120D01*
X189554600Y-69883020D02*
X191031700Y-67959320D01*
X179468500Y-124217120D02*
X179472400Y-124205420D01*
X165334450Y-132078170D02*
X165334450Y-120825970D01*
X175926250Y-134770570D02*
X176053250Y-134135570D01*
X196641600Y-106969520D02*
X198024250Y-106830570D01*
X195019500Y-97610020D02*
X194638500Y-96975020D01*
X192003000Y-107631920D02*
X192207700Y-107564220D01*
X179468500Y-124251320D02*
X179468500Y-124217120D01*
X193605200Y-94029320D02*
X194005600Y-94276820D01*
X182941000Y-113291120D02*
X184415800Y-111772520D01*
X176053250Y-134135570D02*
X176561250Y-133500570D01*
X169881050Y-136269170D02*
X170262050Y-136954970D01*
X187860300Y-86189120D02*
X187968300Y-86493020D01*
X189801600Y-89795020D02*
X189934500Y-90020420D01*
X180282300Y-117765320D02*
X180366700Y-117475620D01*
X182788600Y-113453020D02*
X182941000Y-113291120D01*
X191031700Y-67959320D02*
X191119900Y-67849620D01*
X165334450Y-132078170D02*
X168802520Y-135546240D01*
X188242800Y-72125120D02*
X189275300Y-70333120D01*
X199167250Y-105687570D02*
X199294250Y-104671570D01*
X181251800Y-115612320D02*
X181344100Y-115429920D01*
X186759700Y-81689320D02*
X186802200Y-81948320D01*
X186411250Y-90418570D02*
X184586250Y-90418570D01*
X195515900Y-63019920D02*
X195966850Y-62202770D01*
X189801600Y-89795020D02*
X189802500Y-89794520D01*
X194638500Y-96975020D02*
X194130500Y-96594020D01*
X195070840Y-99708010D02*
X195146500Y-98372020D01*
X190486250Y-93743570D02*
X189786250Y-92943570D01*
X176561250Y-133500570D02*
X178593250Y-132103570D01*
X199294250Y-104671570D02*
X199294250Y-103147570D01*
X179468600Y-124262720D02*
X179472400Y-124262720D01*
X186405100Y-110143920D02*
X186406300Y-110145720D01*
X198024250Y-106830570D02*
X198786250Y-106449570D01*
X189275300Y-70333120D02*
X189402800Y-70105820D01*
X186581300Y-78439520D02*
X186592700Y-78759320D01*
X191744300Y-92232120D02*
X193255900Y-93721320D01*
X187061600Y-75174920D02*
X187162200Y-74888520D01*
X181466300Y-115237520D02*
X182640400Y-113636320D01*
X187586250Y-90468570D02*
X187786250Y-90518570D01*
X181344100Y-115429920D02*
X181462400Y-115237520D01*
X179867900Y-119258820D02*
X180282300Y-117765320D01*
X196453900Y-95477420D02*
X196461700Y-95481320D01*
X188178200Y-109073020D02*
X188395300Y-108964420D01*
X187386250Y-90443570D02*
X186411250Y-90418570D01*
X176535990Y-138409480D02*
X177069250Y-137056570D01*
X186581300Y-78439520D02*
X186607300Y-78093120D01*
X189036250Y-92093570D02*
X188336250Y-91193570D01*
X188927300Y-88344920D02*
X188987200Y-88454120D01*
X186592700Y-78759320D02*
X186745600Y-81463620D01*
X194214250Y-59154770D02*
X195738250Y-60577170D01*
X188241400Y-72124220D02*
X188242800Y-72125120D01*
X191213000Y-67745520D02*
X192751200Y-65972820D01*
X175926250Y-134770570D02*
X176942250Y-136294570D01*
X199675250Y-99972570D02*
X200764440Y-101684950D01*
X191336250Y-94643570D02*
X190486250Y-93743570D01*
X196043050Y-61643970D02*
X196043050Y-61135970D01*
X184716900Y-111504520D02*
X186195500Y-110302220D01*
X179501500Y-122008220D02*
X179516000Y-121778820D01*
X179545400Y-129469420D02*
X179545800Y-129375020D01*
X194406000Y-107166020D02*
X194559100Y-107147620D01*
X179737900Y-119838820D02*
X179789000Y-119546320D01*
X189402800Y-70105820D02*
X189402800Y-70101920D01*
X188336250Y-91193570D02*
X187986250Y-90693570D01*
X193255900Y-93721320D02*
X193605200Y-94029320D01*
X168802520Y-135546240D02*
X169399780Y-135819980D01*
X189052400Y-88563820D02*
X189054200Y-88562720D01*
X190092100Y-90228920D02*
X191499500Y-91956720D01*
X176942250Y-136294570D02*
X177069250Y-137056570D01*
X179472400Y-124205420D02*
X179502600Y-122222920D01*
X188395300Y-108964420D02*
X190060000Y-108221420D01*
X186802200Y-81948320D02*
X187266400Y-84129920D01*
X188111000Y-86783120D02*
X188927300Y-88344920D01*
X189402800Y-70101920D02*
X189554600Y-69883020D01*
X189054200Y-88562720D02*
X189802500Y-89794520D01*
X186986200Y-75524820D02*
X187061600Y-75174920D01*
X194559100Y-107147620D02*
X196641600Y-106969520D01*
X182640400Y-113636320D02*
X182784700Y-113453020D01*
X192867060Y-95917270D02*
X192793360Y-95843570D01*
X179789000Y-119546320D02*
X179867900Y-119258820D01*
X164750250Y-120241770D02*
X165334450Y-120825970D01*
X182784700Y-113453020D02*
X182788600Y-113453020D01*
X186195500Y-110302220D02*
X186406300Y-110145720D01*
X187968300Y-86493020D02*
X188111000Y-86783120D01*
X188085400Y-72401920D02*
X188241400Y-72124220D01*
X189934500Y-90020420D02*
X189936300Y-90019220D01*
X179472400Y-124262720D02*
X179472400Y-124259120D01*
X161473650Y-105712969D02*
G75*
G02*
X164750232Y-109065770I-38150J-3314731D01*
G01*
%TO.N,/S252*%
X181880400Y-112236020D02*
X183343500Y-110729520D01*
X189779900Y-106724920D02*
X190101200Y-106627220D01*
X167493450Y-131443170D02*
X167493450Y-119911570D01*
X180037500Y-114697520D02*
X180220200Y-114399620D01*
X185895600Y-108711820D02*
X187184900Y-107930820D01*
X187184900Y-107930820D02*
X187451700Y-107766420D01*
X177968600Y-124262720D02*
X177974200Y-124262720D01*
X177968500Y-124217120D02*
X177978300Y-124187820D01*
X178249600Y-119668920D02*
X178250700Y-119669020D01*
X181653800Y-112468720D02*
X181663600Y-112468720D01*
X191538600Y-106210420D02*
X191815100Y-106116920D01*
X178451300Y-118773020D02*
X178824600Y-117425820D01*
X179135900Y-116546520D02*
X179904100Y-114961920D01*
X181663600Y-112468720D02*
X181880400Y-112236020D01*
X185573100Y-108895820D02*
X185895600Y-108711820D01*
X180230000Y-114399620D02*
X180276700Y-114329820D01*
X187786000Y-107599220D02*
X189450700Y-106856220D01*
X185573100Y-108895820D02*
X185576100Y-108900320D01*
X180274600Y-114328320D02*
X180341000Y-114237820D01*
X183563000Y-110514120D02*
X183808700Y-110315120D01*
X180339400Y-114236620D02*
X181433400Y-112751520D01*
X166883850Y-119301970D02*
X167493450Y-119911570D01*
X177968500Y-124251320D02*
X177968500Y-124217120D01*
X179904100Y-114961920D02*
X179906500Y-114963120D01*
X192199300Y-106032520D02*
X194014100Y-105710120D01*
X178822500Y-117425320D02*
X178824600Y-117425820D01*
X183808700Y-110315120D02*
X185252100Y-109142020D01*
X178449900Y-118772520D02*
X178451300Y-118773020D01*
X187451700Y-107766420D02*
X187786000Y-107599220D01*
X185252100Y-109142020D02*
X185576100Y-108900320D01*
X183563000Y-110514120D02*
X183567300Y-110519020D01*
X166883850Y-119301970D02*
X166883850Y-95857770D01*
X191817600Y-106126020D02*
X192199300Y-106032520D01*
X167493450Y-131443170D02*
X169545240Y-133494960D01*
X178027700Y-121614820D02*
X178027700Y-121605020D01*
X178007400Y-121967120D02*
X178027700Y-121614820D01*
X178027700Y-121605020D02*
X178249600Y-119668920D01*
X177069250Y-131239970D02*
X177755050Y-130681170D01*
X177755050Y-130681170D02*
X178059850Y-130122370D01*
X178007400Y-122279120D02*
X178007400Y-121967120D01*
X190101200Y-106627220D02*
X191538600Y-106210420D01*
X177968600Y-124262720D02*
X177978400Y-124284320D01*
X178954600Y-116977520D02*
X179135900Y-116546520D01*
X194014100Y-105710120D02*
X195814450Y-104849370D01*
X177978300Y-124187820D02*
X178007400Y-122279120D01*
X178250700Y-119669020D02*
X178330100Y-119218220D01*
X191815100Y-106116920D02*
X191817600Y-106126020D01*
X169545240Y-133494960D02*
X171913050Y-133983170D01*
X177978400Y-124284320D02*
X178051200Y-129367220D01*
X180220200Y-114399620D02*
X180230000Y-114399620D01*
X180274600Y-114328320D02*
X180276700Y-114329820D01*
X178822500Y-117425320D02*
X178954600Y-116977520D01*
X171913050Y-133983170D02*
X172725850Y-133805370D01*
X179906500Y-114963120D02*
X180037500Y-114697520D01*
X180339400Y-114236620D02*
X180341000Y-114237820D01*
X183343500Y-110729520D02*
X183567300Y-110519020D01*
X178051200Y-129367220D02*
X178059850Y-130122370D01*
X181433400Y-112751520D02*
X181653800Y-112468720D01*
X172725850Y-133805370D02*
X177069250Y-131239970D01*
X178330100Y-119218220D02*
X178449900Y-118772520D01*
X189450700Y-106856220D02*
X189779900Y-106724920D01*
X177968500Y-124251320D02*
X177974200Y-124262720D01*
X161346650Y-90549174D02*
G75*
G02*
X166883824Y-95857770I114250J-5422926D01*
G01*
%TO.N,/S5P1*%
X166350450Y-119505170D02*
X166934650Y-120089370D01*
X180680900Y-114617320D02*
X180682600Y-114618520D01*
X194100000Y-106202220D02*
X194269300Y-106177720D01*
X192285200Y-106524620D02*
X194100000Y-106202220D01*
X181835700Y-113046420D02*
X182030800Y-112796820D01*
X177475650Y-131620970D02*
X178186850Y-130985970D01*
X178476300Y-124193720D02*
X178505800Y-122260720D01*
X180353300Y-115178720D02*
X180355300Y-115179720D01*
X178468600Y-124262720D02*
X178474200Y-124262720D01*
X194477100Y-106151920D02*
X196220850Y-105687570D01*
X178745700Y-119725520D02*
X178816400Y-119327620D01*
X191948000Y-106606620D02*
X192285200Y-106524620D01*
X186136700Y-109147820D02*
X187453200Y-108350220D01*
X184111500Y-110711620D02*
X185566600Y-109528720D01*
X191693800Y-106684120D02*
X191946000Y-106599320D01*
X194269300Y-106177720D02*
X194477100Y-106151920D01*
X172827450Y-134338770D02*
X177475650Y-131620970D01*
X166934650Y-131570170D02*
X169386680Y-134022200D01*
X166934650Y-131570170D02*
X166934650Y-120089370D01*
X178505400Y-121980820D02*
X178505800Y-122260720D01*
X185850400Y-109311820D02*
X185852800Y-109315420D01*
X189943900Y-107195620D02*
X190229100Y-107108920D01*
X185850400Y-109311820D02*
X186136700Y-109147820D01*
X187453200Y-108350220D02*
X187693800Y-108201920D01*
X178468500Y-124251320D02*
X178468500Y-124217120D01*
X178505400Y-121980820D02*
X178523800Y-121669420D01*
X179308800Y-117538620D02*
X179425300Y-117143520D01*
X183895100Y-110887120D02*
X183898500Y-110891020D01*
X178523800Y-121669420D02*
X178745700Y-119725520D01*
X182233300Y-112588420D02*
X183700900Y-111077220D01*
X187693800Y-108201920D02*
X187989100Y-108054320D01*
X189653800Y-107311320D02*
X189943900Y-107195620D01*
X179425300Y-117143520D02*
X179585100Y-116763320D01*
X178186850Y-130985970D02*
X178567850Y-130249370D01*
X180634200Y-114678920D02*
X180642100Y-114678920D01*
X180355300Y-115179720D02*
X180473000Y-114941620D01*
X166350450Y-119505170D02*
X166350450Y-97813570D01*
X179308800Y-117538620D02*
X179310400Y-117539020D01*
X187989100Y-108054320D02*
X189653800Y-107311320D01*
X180741700Y-114531520D02*
X181835700Y-113046420D01*
X180642100Y-114678920D02*
X180682600Y-114618520D01*
X171963850Y-134567370D02*
X172827450Y-134338770D01*
X185566600Y-109528720D02*
X185852800Y-109315420D01*
X178549300Y-129368920D02*
X178567850Y-130249370D01*
X178468600Y-124262720D02*
X178476400Y-124280420D01*
X178816400Y-119327620D02*
X178922600Y-118934620D01*
X182038600Y-112796820D02*
X182233300Y-112588420D01*
X178922600Y-118934620D02*
X178923600Y-118935020D01*
X183700900Y-111077220D02*
X183898500Y-110891020D01*
X180473000Y-114941620D02*
X180634200Y-114678920D01*
X178923600Y-118935020D02*
X179310400Y-117539020D01*
X182030800Y-112796820D02*
X182038600Y-112796820D01*
X190229100Y-107108920D02*
X191693800Y-106684120D01*
X180741700Y-114531520D02*
X180743000Y-114532520D01*
X178468500Y-124251320D02*
X178474200Y-124262720D01*
X179585100Y-116763320D02*
X180353300Y-115178720D01*
X180680900Y-114617320D02*
X180743000Y-114532520D01*
X178468500Y-124217120D02*
X178476300Y-124193720D01*
X191946000Y-106599320D02*
X191948000Y-106606620D01*
X178476400Y-124280420D02*
X178549300Y-129368920D01*
X169386680Y-134022200D02*
X171963850Y-134567370D01*
X183895100Y-110887120D02*
X184111500Y-110711620D01*
X161372050Y-93012968D02*
G75*
G02*
X166350431Y-97813570I88850J-4889532D01*
G01*
%TO.N,/S6P2*%
X190116900Y-66726820D02*
X191591000Y-65028020D01*
X192436250Y-63396570D02*
X192690250Y-62659970D01*
X177927440Y-116859140D02*
X178034300Y-116518650D01*
X191683400Y-64910020D02*
X191797400Y-64791220D01*
X172471850Y-132687770D02*
X176815250Y-130122370D01*
X176986390Y-123408910D02*
X176992590Y-123391420D01*
X180752250Y-111910570D02*
X182750750Y-109893770D01*
X186749400Y-71733920D02*
X186987500Y-71303920D01*
X191478850Y-105163270D02*
X191860550Y-105069770D01*
X188131400Y-69320620D02*
X188131400Y-69310820D01*
X171684450Y-132840170D02*
X172471850Y-132687770D01*
X191591000Y-65028020D02*
X191683400Y-64910020D01*
X189762450Y-105664470D02*
X191199850Y-105247670D01*
X176973540Y-128665690D02*
X176975520Y-128563910D01*
X188857950Y-106020470D02*
X189388250Y-105814570D01*
X195484250Y-97305570D02*
X195611250Y-98067570D01*
X179482250Y-113688570D02*
X180752250Y-111910570D01*
X177081290Y-120917190D02*
X177337040Y-118979460D01*
X178034300Y-116518650D02*
X178178330Y-116191620D01*
X191199850Y-105247670D02*
X191476350Y-105154170D01*
X176992590Y-123391420D02*
X177056550Y-121434640D01*
X188483200Y-90503920D02*
X188686400Y-90852420D01*
X185755600Y-74378620D02*
X186551800Y-72184920D01*
X168661850Y-131214570D02*
X169884470Y-132437190D01*
X187935600Y-69666720D02*
X188131400Y-69320620D01*
X176985790Y-123443110D02*
X176991290Y-123454610D01*
X188690900Y-90849420D02*
X188931900Y-91172320D01*
X185755600Y-74378620D02*
X185756900Y-74379120D01*
X186987500Y-71303920D02*
X186991000Y-71306220D01*
X186991000Y-71306220D02*
X187935600Y-69666720D01*
X168001450Y-118870170D02*
X168661850Y-119530570D01*
X185302850Y-107876070D02*
X186592150Y-107095070D01*
X185100700Y-78878920D02*
X185250700Y-81545620D01*
X188483200Y-90503920D02*
X188485500Y-90502620D01*
X176985690Y-123454510D02*
X176991290Y-123454610D01*
X184980350Y-108060070D02*
X184983350Y-108064570D01*
X192180200Y-94761220D02*
X192714600Y-95230520D01*
X185087200Y-78416020D02*
X185100700Y-78878920D01*
X192309250Y-64031570D02*
X192436250Y-63396570D01*
X186424700Y-86605220D02*
X186591400Y-87073120D01*
X185124900Y-77882120D02*
X185124900Y-77872420D01*
X184659350Y-108306270D02*
X184983350Y-108064570D01*
X176985690Y-123454510D02*
X176991350Y-123468410D01*
X193706250Y-104671570D02*
X194907520Y-104070930D01*
X184980350Y-108060070D02*
X185302850Y-107876070D01*
X195694510Y-102495320D02*
X196205970Y-101924270D01*
X187691100Y-89204820D02*
X187694200Y-89203020D01*
X188365200Y-68974820D02*
X189842300Y-67051120D01*
X195535590Y-99505160D02*
X195611250Y-98067570D01*
X168001450Y-118870170D02*
X168001450Y-89253770D01*
X191476350Y-105154170D02*
X191478850Y-105163270D01*
X186811000Y-87520920D02*
X187603100Y-89036320D01*
X191797400Y-64791220D02*
X192309250Y-64031570D01*
X194907520Y-104070930D02*
X195325470Y-103354440D01*
X185620200Y-74770620D02*
X185756900Y-74379120D01*
X190496100Y-93085220D02*
X190695500Y-93298520D01*
X187792600Y-89372420D02*
X187797100Y-89369520D01*
X195535590Y-99505160D02*
X196282100Y-100515820D01*
X195103250Y-96670570D02*
X195484250Y-97305570D01*
X185503800Y-75308020D02*
X185505200Y-75308220D01*
X176815250Y-130122370D02*
X176993050Y-129715970D01*
X183215950Y-109479370D02*
X184659350Y-108306270D01*
X189842300Y-67051120D02*
X189977300Y-66882820D01*
X177337040Y-118979460D02*
X177403960Y-118635370D01*
X177403960Y-118635370D02*
X177502380Y-118296740D01*
X189388250Y-105814570D02*
X189762450Y-105664470D01*
X186591400Y-87073120D02*
X186809600Y-87521720D01*
X190330800Y-92889620D02*
X190496100Y-93085220D01*
X178974070Y-114620660D02*
X179482250Y-113688570D01*
X185271400Y-81859220D02*
X185337400Y-82258920D01*
X188686400Y-90852420D02*
X188690900Y-90849420D01*
X182750750Y-109893770D02*
X182974550Y-109683270D01*
X185505200Y-75308220D02*
X185620200Y-74770620D01*
X185124900Y-77872420D02*
X185503800Y-75308020D01*
X177060170Y-121187260D02*
X177081290Y-120917190D01*
X178178330Y-116191620D02*
X178974070Y-114620660D01*
X169884470Y-132437190D02*
X171684450Y-132840170D01*
X188931900Y-91172320D02*
X190330800Y-92889620D01*
X186592150Y-107095070D02*
X186858950Y-106930670D01*
X185801600Y-84440520D02*
X185869200Y-84711720D01*
X186858950Y-106930670D02*
X187193250Y-106763470D01*
X176985790Y-123443110D02*
X176986390Y-123408910D01*
X196205970Y-101924270D02*
X196282100Y-100515820D01*
X185954000Y-84979120D02*
X186424700Y-86605220D01*
X188131400Y-69310820D02*
X188365200Y-68974820D01*
X185252900Y-81545520D02*
X185271400Y-81859220D01*
X195325470Y-103354440D02*
X195694510Y-102495320D01*
X192714600Y-95230520D02*
X193331800Y-95612820D01*
X185087200Y-78416020D02*
X185124900Y-77882120D01*
X185869200Y-84711720D02*
X185954000Y-84979120D01*
X189977300Y-66882820D02*
X190116900Y-66726820D01*
X177927440Y-116859140D02*
X177928730Y-116859460D01*
X191860550Y-105069770D02*
X193706250Y-104671570D01*
X168661850Y-131214570D02*
X168661850Y-119530570D01*
X187193250Y-106763470D02*
X188857950Y-106020470D01*
X186809600Y-87521720D02*
X186811000Y-87520920D01*
X187603100Y-89036320D02*
X187694200Y-89203020D01*
X177502380Y-118296740D02*
X177928730Y-116859460D01*
X182970250Y-109678370D02*
X183215950Y-109479370D01*
X185250700Y-81545620D02*
X185252900Y-81545520D01*
X185337400Y-82258920D02*
X185801600Y-84440520D01*
X194595250Y-96289570D02*
X195103250Y-96670570D01*
X182970250Y-109678370D02*
X182974550Y-109683270D01*
X177056550Y-121434640D02*
X177060170Y-121187260D01*
X186551800Y-72184920D02*
X186749400Y-71733920D01*
X187797100Y-89369520D02*
X188485500Y-90502620D01*
X190695500Y-93298520D02*
X192180200Y-94761220D01*
X176973540Y-128665690D02*
X176993050Y-129715970D01*
X193331800Y-95612820D02*
X194595250Y-96289570D01*
X187691100Y-89204820D02*
X187792600Y-89372420D01*
X176975520Y-128563910D02*
X176991350Y-123468410D01*
X161041850Y-82929174D02*
G75*
G02*
X168001527Y-89253766I317550J-6642126D01*
G01*
%TO.N,/S6P1*%
X186100600Y-74905320D02*
X186225300Y-74548820D01*
X191609250Y-105643870D02*
X191946450Y-105561870D01*
X177972180Y-118467070D02*
X178412590Y-116981020D01*
X196094430Y-99394550D02*
X196119250Y-98575570D01*
X185767500Y-81802620D02*
X185825700Y-82155420D01*
X189106000Y-90572720D02*
X189318600Y-90857820D01*
X177485610Y-123463230D02*
X177489410Y-123463300D01*
X194468250Y-104925570D02*
X195358480Y-104257900D01*
X186860450Y-107514470D02*
X187101050Y-107366170D01*
X177490410Y-123406010D02*
X177555210Y-121424340D01*
X192944250Y-64133170D02*
X193172850Y-63396570D01*
X187243200Y-87275620D02*
X187244300Y-87275020D01*
X188922700Y-90267620D02*
X188924600Y-90266620D01*
X191607250Y-105636570D02*
X191609250Y-105643870D01*
X187244300Y-87275020D02*
X188044500Y-88805920D01*
X171735250Y-133398970D02*
X172649650Y-133221170D01*
X168077650Y-131316170D02*
X168077650Y-119708370D01*
X177471530Y-128670480D02*
X177473580Y-128576100D01*
X188122700Y-88954820D02*
X188212500Y-89102820D01*
X185748700Y-81518320D02*
X185750400Y-81518220D01*
X177485710Y-123451830D02*
X177489480Y-123459700D01*
X195992250Y-97178570D02*
X196119250Y-98067570D01*
X188044500Y-88805920D02*
X188125100Y-88953420D01*
X189102400Y-90575120D02*
X189106000Y-90572720D01*
X188922700Y-90267620D02*
X189102400Y-90575120D01*
X192060400Y-65238120D02*
X192160700Y-65133020D01*
X196094430Y-99394550D02*
X196782750Y-100342460D01*
X178412590Y-116981020D02*
X178502030Y-116692840D01*
X187101050Y-107366170D02*
X187396350Y-107218570D01*
X177555210Y-121424340D02*
X177557860Y-121209650D01*
X184973850Y-108692970D02*
X185260050Y-108479670D01*
X178623770Y-116416220D02*
X179419510Y-114845270D01*
X196119250Y-98575570D02*
X196119250Y-98067570D01*
X179990250Y-113815570D02*
X181133250Y-112291570D01*
X190720300Y-92578620D02*
X190869100Y-92755120D01*
X186225300Y-74548820D02*
X187020600Y-72354820D01*
X168077650Y-131316170D02*
X169740500Y-132979020D01*
X191977400Y-65343420D02*
X192060400Y-65238120D01*
X189890350Y-106146170D02*
X191355050Y-105721370D01*
X185619000Y-77944620D02*
X185997900Y-75380220D01*
X187396350Y-107218570D02*
X189061050Y-106475570D01*
X190869100Y-92755120D02*
X191045100Y-92943120D01*
X188382000Y-69889020D02*
X188555200Y-69582320D01*
X193833250Y-105179570D02*
X194468250Y-104925570D01*
X178502030Y-116692840D02*
X178623770Y-116416220D01*
X190482300Y-67066420D02*
X191977400Y-65343420D01*
X185257650Y-108476070D02*
X185543950Y-108312070D01*
X177471530Y-128670480D02*
X177501050Y-129919170D01*
X185585200Y-78423820D02*
X185619000Y-77952420D01*
X188212500Y-89102820D02*
X188216100Y-89100520D01*
X177489410Y-123463300D02*
X177489480Y-123459700D01*
X191946450Y-105561870D02*
X193833250Y-105179570D01*
X177297850Y-130427170D02*
X177501050Y-129919170D01*
X172649650Y-133221170D02*
X176561250Y-130909770D01*
X195869040Y-103338820D02*
X196092180Y-102839300D01*
X189318600Y-90857820D02*
X190720300Y-92578620D01*
X192160700Y-65133020D02*
X192944250Y-64133170D01*
X169740500Y-132979020D02*
X171735250Y-133398970D01*
X188216100Y-89100520D02*
X188924600Y-90266620D01*
X186289900Y-84337020D02*
X186349600Y-84577020D01*
X193556400Y-95167520D02*
X194985500Y-95890270D01*
X190238800Y-67353920D02*
X190358200Y-67205020D01*
X189388250Y-106322570D02*
X189890350Y-106146170D01*
X185585200Y-78423820D02*
X185598000Y-78838220D01*
X185598000Y-78838220D02*
X185748700Y-81518320D01*
X167442650Y-119073370D02*
X167442650Y-93724170D01*
X185825700Y-82155420D02*
X186289900Y-84337020D01*
X177486310Y-123417640D02*
X177490410Y-123406010D01*
X187020600Y-72354820D02*
X187194700Y-71956620D01*
X188555200Y-69574520D02*
X188761700Y-69277620D01*
X177576360Y-120980540D02*
X177832080Y-119044710D01*
X185543950Y-108312070D02*
X186860450Y-107514470D01*
X191355050Y-105721370D02*
X191607250Y-105636570D01*
X196684350Y-102215780D02*
X196782750Y-100342460D01*
X181133250Y-112291570D02*
X183108150Y-110241470D01*
X176561250Y-130909770D02*
X177297850Y-130427170D01*
X177557860Y-121209650D02*
X177576360Y-120980540D01*
X185619000Y-77952420D02*
X185619000Y-77944620D01*
X186424600Y-84813220D02*
X186903200Y-86466520D01*
X193011500Y-94830120D02*
X193556400Y-95167520D01*
X186349600Y-84577020D02*
X186424600Y-84813220D01*
X179419510Y-114845270D02*
X179990250Y-113815570D01*
X192540300Y-94416120D02*
X193011500Y-94830120D01*
X187405400Y-71577320D02*
X187408200Y-71579120D01*
X183108150Y-110241470D02*
X183305750Y-110055270D01*
X185997900Y-75380220D02*
X185999000Y-75380420D01*
X187194700Y-71956620D02*
X187405400Y-71577320D01*
X195358480Y-104257900D02*
X195869040Y-103338820D01*
X187050400Y-86879720D02*
X187243200Y-87275620D01*
X177832080Y-119044710D02*
X177888280Y-118753150D01*
X183302350Y-110051370D02*
X183305750Y-110055270D01*
X185257650Y-108476070D02*
X185260050Y-108479670D01*
X167442650Y-119073370D02*
X168077650Y-119708370D01*
X195611250Y-96416570D02*
X195992250Y-97178570D01*
X177473580Y-128576100D02*
X177489340Y-123473200D01*
X187408200Y-71579120D02*
X188382000Y-69889020D01*
X196092180Y-102839300D02*
X196684350Y-102215780D01*
X188555200Y-69582320D02*
X188555200Y-69574520D01*
X190358200Y-67205020D02*
X190482300Y-67066420D01*
X185999000Y-75380420D02*
X186100600Y-74905320D01*
X186903200Y-86466520D02*
X187050400Y-86879720D01*
X188761700Y-69277620D02*
X190238800Y-67353920D01*
X185750400Y-81518220D02*
X185767500Y-81802620D01*
X177888280Y-118753150D02*
X177972180Y-118467070D01*
X177485710Y-123451830D02*
X177486310Y-123417640D01*
X183518750Y-109875870D02*
X184973850Y-108692970D01*
X189061050Y-106475570D02*
X189388250Y-106322570D01*
X183302350Y-110051370D02*
X183518750Y-109875870D01*
X194985500Y-95890270D02*
X195611250Y-96416570D01*
X191045100Y-92943120D02*
X192540300Y-94416120D01*
X177485610Y-123463230D02*
X177489340Y-123473200D01*
X188122700Y-88954820D02*
X188125100Y-88953420D01*
X161422850Y-88034567D02*
G75*
G02*
X167442734Y-93724168I165150J-5854733D01*
G01*
%TO.N,/GP16*%
X142449050Y-80415630D02*
X142474450Y-83233970D01*
X148799050Y-92098570D02*
X151516850Y-92098570D01*
X137877050Y-78890570D02*
X140721850Y-78890570D01*
X118039650Y-90320570D02*
X121214650Y-90320570D01*
X158120850Y-83462570D02*
X158120850Y-82675170D01*
X159018880Y-80507140D02*
X159340050Y-80185970D01*
X125704780Y-88468050D02*
X133386920Y-80768490D01*
X156644045Y-87323205D02*
G75*
G02*
X151516846Y-92098649I-5000245J228405D01*
G01*
X125704778Y-88468048D02*
G75*
G02*
X121214650Y-90327879I-4490078J4490148D01*
G01*
X133386922Y-80768492D02*
G75*
G02*
X137877050Y-78908650I4490078J-4490108D01*
G01*
X158120850Y-83462570D02*
G75*
G02*
X157400969Y-85436467I-3066050J-30D01*
G01*
X140366250Y-78890570D02*
G75*
G02*
X142017291Y-79373106I-50J-3066030D01*
G01*
X143334565Y-85342006D02*
G75*
G02*
X143998454Y-87501172I-2633865J-1991494D01*
G01*
X142017249Y-79373171D02*
G75*
G02*
X142449031Y-80415630I-1042449J-1042429D01*
G01*
X143336796Y-85340318D02*
G75*
G02*
X142474471Y-83208570I2203704J2131718D01*
G01*
X158120850Y-82675170D02*
G75*
G02*
X159018890Y-80507160I3066050J-30D01*
G01*
X156647650Y-87348770D02*
G75*
G02*
X157390236Y-85451944I2793950J-30D01*
G01*
X148799050Y-92098572D02*
G75*
G02*
X143998528Y-87501168I-101550J4698972D01*
G01*
%TO.N,/SW1*%
X143846050Y-120419570D02*
X143846050Y-105941570D01*
X141204450Y-103249171D02*
G75*
G02*
X143846129Y-105941571I-25350J-2667029D01*
G01*
%TO.N,/SW2*%
X144506450Y-119581370D02*
X144506450Y-104011170D01*
D37*
X148291050Y-118804560D02*
X151643850Y-118804560D01*
D35*
X144506450Y-119581370D02*
X145547850Y-120622770D01*
X141280650Y-100734569D02*
G75*
G02*
X144506531Y-104011171I-25350J-3251231D01*
G01*
%TO.N,/SW3*%
X158222450Y-122095970D02*
X158222450Y-114907770D01*
X158222448Y-114907775D02*
G75*
G02*
X159873445Y-113307547I1625652J-25425D01*
G01*
%TO.N,/GP13*%
X118039650Y-97965970D02*
X122510050Y-97947920D01*
X137501350Y-88199720D02*
X139344860Y-88199720D01*
X127000180Y-96088050D02*
X133011220Y-90059590D01*
X127000178Y-96088048D02*
G75*
G02*
X122510050Y-97947879I-4490078J4490148D01*
G01*
X133011222Y-90059592D02*
G75*
G02*
X137501350Y-88199750I4490078J-4490108D01*
G01*
%TO.N,/GP15*%
X126111180Y-91008050D02*
X134662210Y-82439600D01*
X118039650Y-92885970D02*
X121621050Y-92867920D01*
X126111178Y-91008048D02*
G75*
G02*
X121621050Y-92867879I-4490078J4490148D01*
G01*
X134662212Y-82439602D02*
G75*
G02*
X139152340Y-80579750I4490088J-4490098D01*
G01*
%TO.N,/GP10*%
X127889180Y-103708050D02*
X133900210Y-97679600D01*
X118039650Y-105585970D02*
X123399050Y-105567920D01*
X138390340Y-95819730D02*
X140163010Y-95801680D01*
X127889178Y-103708048D02*
G75*
G02*
X123399050Y-105567879I-4490078J4490148D01*
G01*
X133900212Y-97679602D02*
G75*
G02*
X138390340Y-95819750I4490088J-4490098D01*
G01*
%TO.N,/GP12*%
X118039650Y-100505970D02*
X122814850Y-100487920D01*
X127304980Y-98628050D02*
X133315980Y-92599630D01*
X137806110Y-90739760D02*
X140163070Y-90721710D01*
X133315982Y-92599632D02*
G75*
G02*
X137806110Y-90739779I4490118J-4490168D01*
G01*
X127304978Y-98628048D02*
G75*
G02*
X122814850Y-100487879I-4490078J4490148D01*
G01*
%TO.N,/GP11*%
X118039650Y-103045970D02*
X123068850Y-103027920D01*
X127558980Y-101168050D02*
X133570000Y-95139610D01*
X138060130Y-93279740D02*
X140163030Y-93261690D01*
X133570002Y-95139612D02*
G75*
G02*
X138060130Y-93279750I4490098J-4490088D01*
G01*
X127558978Y-101168048D02*
G75*
G02*
X123068850Y-103027879I-4490078J4490148D01*
G01*
%TO.N,/GP14*%
X126695380Y-93548050D02*
X135246390Y-84979620D01*
X118039650Y-95425970D02*
X122205250Y-95407920D01*
X126695378Y-93548048D02*
G75*
G02*
X122205250Y-95407879I-4490078J4490148D01*
G01*
X135246392Y-84979622D02*
G75*
G02*
X139736520Y-83119750I4490108J-4490078D01*
G01*
D11*
%TO.N,Net-(BT1-+)*%
X124518850Y-121601390D02*
X124087050Y-120077390D01*
X115044650Y-108596590D02*
X115044650Y-106910660D01*
X125668250Y-78223770D02*
X127341450Y-78223770D01*
X126474650Y-123353990D02*
X125636450Y-122922190D01*
X115628850Y-109714190D02*
X115247850Y-109307790D01*
X132367450Y-124141390D02*
X126474650Y-123353990D01*
X122182050Y-115886390D02*
X119845250Y-113143190D01*
X119845250Y-113143190D02*
X117279850Y-110831790D01*
X117279850Y-110831790D02*
X116263850Y-110069790D01*
X124087050Y-120077390D02*
X123680650Y-118705790D01*
X127361250Y-78243570D02*
X128986250Y-78243570D01*
X132977050Y-124268390D02*
X132367450Y-124141390D01*
X124925250Y-122261790D02*
X124518850Y-121601390D01*
X133457450Y-125753570D02*
X133408850Y-124725590D01*
X116263850Y-110069790D02*
X115628850Y-109714190D01*
X127341450Y-78223770D02*
X127361250Y-78243570D01*
X125636450Y-122922190D02*
X124925250Y-122261790D01*
X133408850Y-124725590D02*
X132977050Y-124268390D01*
X128986250Y-78243570D02*
X129086250Y-78343570D01*
X123680650Y-118705790D02*
X122182050Y-115886390D01*
X115247850Y-109307790D02*
X115044650Y-108596590D01*
X115054530Y-106996390D02*
X115054530Y-89856610D01*
X115069579Y-89856606D02*
G75*
G02*
X125668249Y-78223310I11113071J519966D01*
G01*
%TO.N,Net-(J99-Pin_1)*%
X177983650Y-68933770D02*
X181736250Y-68949570D01*
X174148250Y-72769170D02*
G75*
G02*
X177983650Y-68933750I3835450J-30D01*
G01*
D34*
%TO.N,Net-(BT2-+)*%
X171501390Y-78358710D02*
X169068250Y-75925570D01*
X171534600Y-78358710D02*
X171501390Y-78358710D01*
X169068250Y-75925570D02*
X169068250Y-72769170D01*
D35*
%TO.N,Net-(M1-VBUS)*%
X175565710Y-118072920D02*
X175632620Y-117728830D01*
X175632620Y-117728830D02*
X175731050Y-117390200D01*
X174336250Y-128343570D02*
X175215050Y-127464770D01*
X176406990Y-115285070D02*
X177202730Y-113714120D01*
X176262960Y-115612110D02*
X176406990Y-115285070D01*
X175215050Y-127464770D02*
X175215050Y-122484870D01*
X178980920Y-110902430D02*
X180574450Y-108887970D01*
X176156110Y-115952600D02*
X176262960Y-115612110D01*
X182581050Y-106855970D02*
X184493450Y-104943570D01*
X181006250Y-108379970D02*
X182581050Y-106855970D01*
D38*
X170686250Y-70518570D02*
X171211250Y-71093570D01*
X171486250Y-71593570D02*
X171608250Y-72769170D01*
X166586250Y-77218570D02*
X166636250Y-75593570D01*
X166636250Y-78468570D02*
X166586250Y-77218570D01*
D35*
X180574450Y-108887970D02*
X181006250Y-108379970D01*
X177710920Y-112782030D02*
X178345920Y-111893030D01*
X185136250Y-104943570D02*
X185433890Y-104645930D01*
D38*
X166686250Y-79293570D02*
X166636250Y-78468570D01*
X166686250Y-73018570D02*
X166786250Y-72068570D01*
X167786250Y-70468570D02*
X168636250Y-70193570D01*
X167461250Y-81243570D02*
X166986250Y-80418570D01*
D35*
X176157400Y-115952920D02*
X176156110Y-115952600D01*
X175309950Y-120010640D02*
X175565710Y-118072920D01*
D38*
X169686250Y-70193570D02*
X170686250Y-70518570D01*
X166786250Y-72068570D02*
X167161250Y-71143570D01*
X168911250Y-82318570D02*
X168086250Y-81918570D01*
X166636250Y-75593570D02*
X166686250Y-73018570D01*
D35*
X185433890Y-104645930D02*
X185433890Y-103598200D01*
X175285220Y-120528090D02*
X175288830Y-120280720D01*
D38*
X166986250Y-80418570D02*
X166686250Y-79293570D01*
D35*
X175221260Y-122484870D02*
X175285220Y-120528090D01*
X177202730Y-113714120D02*
X177710920Y-112782030D01*
D38*
X174336250Y-128343570D02*
X173436250Y-128343570D01*
D35*
X175288830Y-120280720D02*
X175309950Y-120010640D01*
D38*
X171211250Y-71143570D02*
X171486250Y-71593570D01*
X171536250Y-84293570D02*
X171136250Y-83443570D01*
X170086250Y-82668570D02*
X168911250Y-82318570D01*
X168636250Y-70193570D02*
X169686250Y-70193570D01*
D35*
X184493450Y-104943570D02*
X185136250Y-104943570D01*
D38*
X171211250Y-71093570D02*
X171211250Y-71143570D01*
X171608250Y-72821570D02*
X171608250Y-72769170D01*
D35*
X175731050Y-117390200D02*
X176157400Y-115952920D01*
D38*
X171536250Y-126443570D02*
X171536250Y-84293570D01*
X173436250Y-128343570D02*
X171536250Y-126443570D01*
X168086250Y-81918570D02*
X167461250Y-81243570D01*
X167161250Y-71143570D02*
X167786250Y-70468570D01*
X171136250Y-83443570D02*
X170086250Y-82668570D01*
D35*
X178345920Y-111893030D02*
X178980920Y-110902430D01*
D10*
X164068250Y-124968927D02*
G75*
G02*
X160737042Y-129004852I-3559850J-454473D01*
G01*
D39*
%TO.N,Net-(M1-VSYS)*%
X174374430Y-119645720D02*
X174395550Y-119375640D01*
X175241710Y-115317600D02*
X175348560Y-114977110D01*
X174651310Y-117437920D02*
X174718220Y-117093830D01*
X175348560Y-114977110D02*
X175492590Y-114650070D01*
X174718220Y-117093830D02*
X174816650Y-116755200D01*
X174300650Y-127193570D02*
X174275250Y-127168170D01*
X183533890Y-104901660D02*
X183533890Y-103598200D01*
X174370820Y-119893090D02*
X174374430Y-119645720D01*
X174275250Y-121849870D02*
X174370820Y-119893090D01*
X176288330Y-113079120D02*
X176796520Y-112147030D01*
X174395550Y-119375640D02*
X174651310Y-117437920D01*
X163353250Y-123797770D02*
X164064450Y-123797770D01*
X174275250Y-127168170D02*
X174275250Y-121849870D01*
X178066520Y-110369030D02*
X183533890Y-104901660D01*
X175243000Y-115317920D02*
X175241710Y-115317600D01*
X176796520Y-112147030D02*
X178066520Y-110369030D01*
X163226250Y-124534370D02*
X163226250Y-123264370D01*
X174816650Y-116755200D02*
X175243000Y-115317920D01*
X175492590Y-114650070D02*
X176288330Y-113079120D01*
X163206019Y-124280124D02*
G75*
G02*
X161168836Y-126236259I-1872119J-89176D01*
G01*
D38*
%TO.N,Net-(JP1-A)*%
X184483890Y-98995930D02*
X184586250Y-98893570D01*
X184483890Y-101723200D02*
X184483890Y-98995930D01*
D39*
%TO.N,Net-(JP1-B)*%
X163327850Y-119085170D02*
X162881250Y-118638570D01*
X163327850Y-121283170D02*
X164115250Y-121714970D01*
D38*
X173336250Y-120868570D02*
X173336250Y-124093570D01*
X175661250Y-112068570D02*
X177011250Y-109943570D01*
X180511250Y-106418570D02*
X181511250Y-105368570D01*
X182361250Y-96793570D02*
X182161250Y-97168570D01*
D39*
X163327850Y-120317970D02*
X163327850Y-119085170D01*
D38*
X182086250Y-97618570D02*
X182086250Y-104343570D01*
X183336250Y-96293570D02*
X183061250Y-96343570D01*
X173886250Y-116268570D02*
X174561250Y-114318570D01*
X177011250Y-109943570D02*
X178561250Y-108143570D01*
X182161250Y-97168570D02*
X182086250Y-97618570D01*
X179486250Y-107393570D02*
X180511250Y-106418570D01*
X183061250Y-96343570D02*
X182686250Y-96518570D01*
D39*
X162881250Y-118638570D02*
X161396250Y-118638570D01*
D38*
X173336250Y-126125570D02*
X173336250Y-124093570D01*
X173336250Y-120868570D02*
X173361250Y-119668570D01*
X184586250Y-96293570D02*
X183336250Y-96293570D01*
X182686250Y-96518570D02*
X182361250Y-96793570D01*
X181511250Y-105368570D02*
X182086250Y-104343570D01*
X178561250Y-108143570D02*
X179486250Y-107393570D01*
X173486250Y-118718570D02*
X173886250Y-116268570D01*
X174561250Y-114318570D02*
X175661250Y-112068570D01*
X173361250Y-119668570D02*
X173486250Y-118718570D01*
D39*
X163327850Y-121283170D02*
X163327850Y-120317970D01*
D35*
%TO.N,Net-(LD1-K)*%
X115652050Y-110742170D02*
X116840070Y-111650790D01*
X111725650Y-108415970D02*
X111811250Y-108718570D01*
X119208050Y-113790170D02*
X121189250Y-116279370D01*
X130003050Y-132967170D02*
X131247650Y-131900370D01*
X113924850Y-109776970D02*
X115652050Y-110742170D01*
X111725650Y-107985770D02*
X111725650Y-108415970D01*
X111811250Y-108718570D02*
X113924850Y-109776970D01*
X124389650Y-131189170D02*
X126091450Y-132840170D01*
X123780050Y-125651970D02*
X123907050Y-129995370D01*
X116840070Y-111650790D02*
X119208050Y-113790170D01*
X124059450Y-130655770D02*
X124389650Y-131189170D01*
X131755650Y-125905970D02*
X132466850Y-125194770D01*
X123526050Y-122883370D02*
X123780050Y-125651970D01*
X126091450Y-132840170D02*
X127513850Y-133297370D01*
X121570250Y-116888970D02*
X122814850Y-119657570D01*
X127513850Y-133297370D02*
X129063250Y-133348170D01*
X123907050Y-129995370D02*
X124059450Y-130655770D01*
X122814850Y-119657570D02*
X123526050Y-122883370D01*
X131755650Y-131392370D02*
X131755650Y-125905970D01*
X121189250Y-116279370D02*
X121570250Y-116888970D01*
X129063250Y-133348170D02*
X130003050Y-132967170D01*
X131247650Y-131900370D02*
X131755650Y-131392370D01*
%TD*%
M02*
