%TF.GenerationSoftware,KiCad,Pcbnew,8.0.6*%
%TF.CreationDate,2024-10-30T16:41:28+09:00*%
%TF.ProjectId,badge24,62616467-6532-4342-9e6b-696361645f70,A*%
%TF.SameCoordinates,Original*%
%TF.FileFunction,Profile,NP*%
%FSLAX46Y46*%
G04 Gerber Fmt 4.6, Leading zero omitted, Abs format (unit mm)*
G04 Created by KiCad (PCBNEW 8.0.6) date 2024-10-30 16:41:28*
%MOMM*%
%LPD*%
G01*
G04 APERTURE LIST*
%TA.AperFunction,Profile*%
%ADD10C,0.050000*%
%TD*%
G04 APERTURE END LIST*
D10*
X110476950Y-78511570D02*
X110625950Y-81187670D01*
X147132810Y-130198570D02*
X153581870Y-130206190D01*
X200269890Y-60062070D02*
X200147730Y-59433590D01*
X156115050Y-130683670D02*
X158227750Y-131492370D01*
X204082880Y-96740540D02*
X203943210Y-96080710D01*
X117424650Y-121848770D02*
X117908950Y-124107470D01*
X158750150Y-41224370D02*
X158513450Y-39931770D01*
X107708550Y-71996170D02*
X108929750Y-73938070D01*
X202740510Y-108387690D02*
X203125820Y-107876380D01*
X141798810Y-131806390D02*
X144247370Y-130752290D01*
X186949850Y-52626970D02*
X184638450Y-54430370D01*
X112915150Y-115910170D02*
X114903050Y-117668570D01*
X121527250Y-57665970D02*
X119027350Y-57129370D01*
X189992050Y-83577670D02*
X189527550Y-81397070D01*
X171288000Y-143439770D02*
X171898920Y-143637190D01*
X101859850Y-94841770D02*
X99980250Y-95857770D01*
X186420750Y-113702270D02*
X187965150Y-112447370D01*
X94212620Y-97956020D02*
X93712470Y-98397720D01*
X148304280Y-39865320D02*
X148823580Y-39597430D01*
X200272180Y-109579640D02*
X201013550Y-109383990D01*
X98637140Y-112843640D02*
X100462850Y-112926570D01*
X141797850Y-39212270D02*
X141598950Y-40448870D01*
X201013550Y-109383990D02*
X201668260Y-109129150D01*
X102310940Y-63926330D02*
X102266250Y-64564970D01*
X127216820Y-144879630D02*
X127931720Y-145118580D01*
X110240350Y-84152870D02*
X109194850Y-87348670D01*
X118115850Y-126413970D02*
X118166650Y-128369770D01*
X182462510Y-138487370D02*
X183018090Y-137977960D01*
X150559040Y-45118870D02*
X149973050Y-45174570D01*
X94798650Y-97610370D02*
X94212620Y-97956020D01*
X95522350Y-112008410D02*
X96072160Y-112339940D01*
X181496320Y-139188960D02*
X182141730Y-138749020D01*
X110133690Y-53772250D02*
X109501580Y-53884720D01*
X150559040Y-39432470D02*
X151122520Y-39597430D01*
X93047450Y-99484490D02*
X92919320Y-100146640D01*
X151122520Y-44953900D02*
X150559040Y-45118870D01*
X183652610Y-135514420D02*
X183509720Y-134826570D01*
X146026250Y-34979470D02*
X144777850Y-35165170D01*
X175531650Y-58301870D02*
X173188450Y-58245870D01*
X108912280Y-54134890D02*
X108374000Y-54541240D01*
X192969650Y-110234170D02*
X194823850Y-109903970D01*
X143042850Y-36244570D02*
X142483350Y-37082070D01*
X192258450Y-88517170D02*
X191394850Y-87094770D01*
X196906650Y-109726170D02*
X199492520Y-109623770D01*
X182250850Y-124254970D02*
X182284650Y-122103870D01*
X96729050Y-96975370D02*
X94798650Y-97610370D01*
X183693920Y-136180450D02*
X183652610Y-135514420D01*
X148823580Y-44953900D02*
X148304280Y-44686020D01*
X132387350Y-55987970D02*
X130434550Y-56819270D01*
X136306950Y-53548570D02*
X134524050Y-54813270D01*
X158513450Y-39931770D02*
X158245150Y-38729570D01*
X170138860Y-142700610D02*
X170701910Y-143120800D01*
X200248500Y-60703720D02*
X200269890Y-60062070D01*
X146969350Y-42275670D02*
X147027070Y-41710120D01*
X96072160Y-112339940D02*
X96697400Y-112573080D01*
X108374000Y-54541240D02*
X107894370Y-55122730D01*
X172536710Y-143692990D02*
X173202740Y-143586890D01*
X99980250Y-95857770D02*
X98202250Y-96518170D01*
X135235450Y-138148770D02*
X136480050Y-136573970D01*
X152919030Y-42841220D02*
X152748110Y-43385030D01*
X200147730Y-59433590D02*
X199862150Y-58822620D01*
X193348570Y-52062530D02*
X192402100Y-51218270D01*
X111495330Y-53885360D02*
X110800930Y-53778670D01*
X190531250Y-85443770D02*
X189992050Y-83577670D01*
X191217050Y-110742170D02*
X192969650Y-110234170D01*
X117409820Y-138906800D02*
X117710400Y-139472070D01*
X199854710Y-62012100D02*
X200103420Y-61355010D01*
X203662580Y-95505310D02*
X203259340Y-95005730D01*
X148304280Y-44686020D02*
X147849110Y-44325500D01*
X117908950Y-124107470D02*
X118115850Y-126413970D01*
X142080550Y-38080670D02*
X141797850Y-39212270D01*
X109194850Y-87348670D02*
X107686350Y-89927570D01*
X182276250Y-126693370D02*
X182250850Y-124254970D01*
X157497150Y-36697370D02*
X156959350Y-35917970D01*
X107686350Y-89927570D02*
X105842550Y-91958470D01*
X104127230Y-67802930D02*
X106381050Y-70203770D01*
X194925450Y-67714570D02*
X196500250Y-66038170D01*
X143795550Y-35596270D02*
X143042850Y-36244570D01*
X156273750Y-35329970D02*
X155411050Y-34958670D01*
X158227750Y-131492370D02*
X160025150Y-132671070D01*
X182141730Y-138749020D02*
X182462510Y-138487370D01*
X93712470Y-98397720D02*
X93317980Y-98904250D01*
X167493450Y-139901370D02*
X168357050Y-140790370D01*
X199492520Y-109623770D02*
X200272180Y-109579640D01*
X203943210Y-96080710D02*
X203662580Y-95505310D01*
X102365700Y-65199260D02*
X102589010Y-65828060D01*
X170640750Y-57756770D02*
X167799650Y-56819170D01*
X139866950Y-48802370D02*
X138944850Y-50584370D01*
X134524050Y-54813270D02*
X132387350Y-55987970D01*
X137769350Y-52152670D02*
X136306950Y-53548570D01*
X199015150Y-63302890D02*
X199504040Y-62693960D01*
X149387060Y-45118870D02*
X148823580Y-44953900D01*
X189885730Y-50844740D02*
X189216580Y-51058750D01*
X128371950Y-57428470D02*
X126199650Y-57789770D01*
X165029650Y-137361370D02*
X166375850Y-138758370D01*
X116453750Y-119686370D02*
X117424650Y-121848770D01*
X182403250Y-130833570D02*
X182327050Y-129461970D01*
X202157480Y-94197750D02*
X200435760Y-93646970D01*
X160025150Y-132671070D02*
X161651450Y-134033970D01*
X173899250Y-143298630D02*
X181496320Y-139188960D01*
X119027350Y-57129370D02*
X116418750Y-56242170D01*
X200435760Y-93646970D02*
X197338450Y-92885970D01*
X183395700Y-137419130D02*
X183614680Y-136817550D01*
X157916050Y-37642970D02*
X157497150Y-36697370D01*
X141447350Y-41762270D02*
X141084750Y-44432570D01*
X199504040Y-62693960D02*
X199854710Y-62012100D01*
X190543790Y-50734030D02*
X189885730Y-50844740D01*
X149387060Y-39432470D02*
X149973050Y-39376770D01*
X184892850Y-115276070D02*
X186420750Y-113702270D01*
X182227850Y-56026470D02*
X179962250Y-57176670D01*
X179962250Y-57176670D02*
X177759850Y-57940270D01*
X148823580Y-39597430D02*
X149387060Y-39432470D01*
X128603540Y-145177930D02*
X129235860Y-145077800D01*
X168357050Y-140790370D02*
X169093650Y-141577770D01*
X95061850Y-111563680D02*
X95522350Y-112008410D01*
X182284650Y-122103870D02*
X182506250Y-120167370D01*
X182506250Y-120167370D02*
X182993450Y-118407170D01*
X134092450Y-139596570D02*
X135235450Y-138148770D01*
X193706250Y-90295170D02*
X192258450Y-88517170D01*
X152096990Y-44325500D02*
X151641820Y-44686020D01*
X152470540Y-43886210D02*
X152096990Y-44325500D01*
X149973050Y-45174570D02*
X149387060Y-45118870D01*
X103917250Y-93622570D02*
X101859850Y-94841770D01*
X123918050Y-57877470D02*
X121527250Y-57665970D01*
X94215470Y-109444220D02*
X94408140Y-110201190D01*
X108872250Y-113838970D02*
X110905550Y-114660270D01*
X188042050Y-51712570D02*
X186949840Y-52626960D01*
X183018090Y-137977960D02*
X183395700Y-137419130D01*
X154342350Y-34829270D02*
X146026250Y-34979470D01*
X156959350Y-35917970D02*
X156273750Y-35329970D01*
X147197990Y-43385030D02*
X147027070Y-42841220D01*
X129831510Y-144838230D02*
X130393990Y-144479200D01*
X131281860Y-143677510D02*
X131743480Y-143047660D01*
X126199650Y-57789770D02*
X123918050Y-57877470D01*
X165953650Y-55946070D02*
X164375850Y-54841670D01*
X158245150Y-38729570D02*
X157916050Y-37642970D01*
X197338450Y-92885970D02*
X195281050Y-91844570D01*
X183778250Y-116788470D02*
X184892850Y-115276070D01*
X92919320Y-100146640D02*
X92951970Y-100899710D01*
X182682660Y-132408370D02*
X182403250Y-130833570D01*
X161651450Y-134033970D02*
X163175450Y-135456370D01*
X106381050Y-70203770D02*
X107708550Y-71996170D01*
X116418750Y-56242170D02*
X113701550Y-54978570D01*
X117710400Y-139472070D02*
X118162120Y-139972870D01*
X200103420Y-61355010D02*
X200248500Y-60703720D01*
X130434550Y-56819270D02*
X128371950Y-57428470D01*
X117190960Y-137621650D02*
X117242670Y-138286910D01*
X102519900Y-63285080D02*
X102310940Y-63926330D01*
X138037070Y-134884870D02*
X139738870Y-133261810D01*
X109501580Y-53884720D02*
X108912280Y-54134890D01*
X141084750Y-44432570D02*
X140569050Y-46765470D01*
X141598950Y-40448870D02*
X141447350Y-41762270D01*
X151641820Y-44686020D02*
X151122520Y-44953900D01*
X129235860Y-145077800D02*
X129831510Y-144838230D01*
X147475570Y-43886210D02*
X147197990Y-43385030D01*
X187965150Y-112447370D02*
X189552350Y-111484970D01*
X142483350Y-37082070D02*
X142080550Y-38080670D01*
X117242670Y-138286910D02*
X117409820Y-138906800D01*
X199862150Y-58822620D02*
X199393040Y-58232520D01*
X182993450Y-118407170D02*
X183778250Y-116788470D01*
X151122520Y-39597430D02*
X151641820Y-39865320D01*
X191394850Y-87094770D02*
X190531250Y-85443770D01*
X152470540Y-40665130D02*
X152748110Y-41166310D01*
X107894370Y-55122730D02*
X103115930Y-62317990D01*
X93317980Y-98904250D02*
X93047450Y-99484490D01*
X105842550Y-91958470D02*
X103917250Y-93622570D01*
X199393040Y-58232520D02*
X193348570Y-52062530D01*
X153581870Y-130206190D02*
X156114250Y-130701490D01*
X182327050Y-129461970D02*
X182276250Y-126693370D01*
X147849110Y-40225840D02*
X148304280Y-39865320D01*
X103115920Y-62317980D02*
X102519900Y-63285080D01*
X100462850Y-112926570D02*
X102596450Y-113002770D01*
X196500250Y-66038170D02*
X199015150Y-63302890D01*
X201668260Y-109129150D02*
X202249350Y-108801150D01*
X147197990Y-41166310D02*
X147475570Y-40665130D01*
X117607850Y-135380170D02*
X117372700Y-136165970D01*
X189365050Y-78504770D02*
X189743950Y-75940370D01*
X130393990Y-144479200D02*
X130926320Y-144020750D01*
X98202250Y-96518170D02*
X96729050Y-96975370D01*
X171898920Y-143637190D02*
X172536710Y-143692990D01*
X104730050Y-113104370D02*
X106813150Y-113366470D01*
X138944850Y-50584370D02*
X137769350Y-52152670D01*
X203259340Y-95005730D02*
X202751530Y-94572790D01*
X117236700Y-136920590D02*
X117190960Y-137621650D01*
X151641820Y-39865320D02*
X152096990Y-40225840D01*
X190576550Y-73646670D02*
X191775050Y-71566470D01*
X170701910Y-143120800D02*
X171288000Y-143439770D01*
X169093650Y-141577770D02*
X169576250Y-142136570D01*
X177759850Y-57940270D02*
X175531650Y-58301870D01*
X152748110Y-41166310D02*
X152919030Y-41710120D01*
X144777850Y-35165170D02*
X143795550Y-35596270D01*
X163175450Y-135456370D02*
X165029650Y-137361370D01*
X202751530Y-94572790D02*
X202157480Y-94197750D01*
X97383900Y-112722320D02*
X98637140Y-112843640D01*
X118166650Y-128369770D02*
X118217450Y-130630370D01*
X110800930Y-53778670D02*
X110133690Y-53772250D01*
X204063380Y-97494060D02*
X204082880Y-96740540D01*
X118090450Y-133094170D02*
X117607850Y-135380170D01*
X92951970Y-100899710D02*
X94215470Y-109444220D01*
X118162120Y-139972870D02*
X118783220Y-140400010D01*
X102266250Y-64564970D02*
X102365700Y-65199260D01*
X152976750Y-42275670D02*
X152919030Y-42841220D01*
X164375850Y-54841670D02*
X163034350Y-53467970D01*
X173188450Y-58245870D02*
X170640750Y-57756770D01*
X103540000Y-67288170D02*
X104127230Y-67802930D01*
X173202740Y-143586890D02*
X173899250Y-143298630D01*
X110905550Y-114660270D02*
X112915150Y-115910170D01*
X203388770Y-107255330D02*
X203513400Y-106511880D01*
X152096990Y-40225840D02*
X152470540Y-40665130D01*
X118783220Y-140400010D02*
X126396250Y-144549570D01*
X189216580Y-51058750D02*
X188042050Y-51712570D01*
X140569050Y-46765470D02*
X139866950Y-48802370D01*
X136480050Y-136573970D02*
X138037070Y-134884870D01*
X149973050Y-39376770D02*
X150559040Y-39432470D01*
X192402100Y-51218270D02*
X191806850Y-50901140D01*
X102589010Y-65828060D02*
X102915950Y-66449890D01*
X102915950Y-66449890D02*
X103540000Y-67288170D01*
X94704920Y-110991420D02*
X95061850Y-111563680D01*
X147027070Y-41710120D02*
X147197990Y-41166310D01*
X102596450Y-113002770D02*
X104730050Y-113104370D01*
X96697400Y-112573080D02*
X97383900Y-112722320D01*
X191775050Y-71566470D02*
X193251950Y-69642670D01*
X109882050Y-76102470D02*
X110476950Y-78511570D01*
X106813150Y-113366470D02*
X108872250Y-113838970D01*
X147849110Y-44325500D02*
X147475570Y-43886210D01*
X191806850Y-50901140D02*
X191185700Y-50746260D01*
X127931720Y-145118580D02*
X128603540Y-145177930D01*
X144247370Y-130752290D02*
X147132810Y-130198570D01*
X147475570Y-40665130D02*
X147849110Y-40225840D01*
X195281050Y-91844570D02*
X193706250Y-90295170D01*
X126396250Y-144549570D02*
X127216820Y-144879630D01*
X108929750Y-73938070D02*
X109882050Y-76102470D01*
X147027070Y-42841220D02*
X146969350Y-42275670D01*
X183509720Y-134826570D02*
X182682660Y-132408370D01*
X202249350Y-108801150D02*
X202740510Y-108387690D01*
X189527550Y-81397070D02*
X189365050Y-78504770D01*
X156114250Y-130701490D02*
X156115050Y-130683670D01*
X155411050Y-34958670D02*
X154342350Y-34829270D01*
X193251950Y-69642670D02*
X194925450Y-67714570D01*
X167799650Y-56819170D02*
X165953650Y-55946070D01*
X131743480Y-143047660D02*
X134092450Y-139596570D01*
X139738870Y-133261810D02*
X141798810Y-131806390D01*
X183614680Y-136817550D02*
X183693920Y-136180450D01*
X189743950Y-75940370D02*
X190576550Y-73646670D01*
X189552350Y-111484970D02*
X191217050Y-110742170D01*
X159390550Y-44516670D02*
X158750150Y-41224370D01*
X94408130Y-110201190D02*
X94704920Y-110991420D01*
X160107150Y-47349170D02*
X159390550Y-44516670D01*
X113701550Y-54978570D02*
X111495330Y-53885360D01*
X110625950Y-81187670D02*
X110240350Y-84152870D01*
X117372700Y-136165970D02*
X117236700Y-136920590D01*
X191185700Y-50746260D02*
X190543790Y-50734030D01*
X118217450Y-130630370D02*
X118090450Y-133094170D01*
X203513400Y-106511880D02*
X204063380Y-97494060D01*
X169576250Y-142136570D02*
X170138860Y-142700610D01*
X194823850Y-109903970D02*
X196906650Y-109726170D01*
X114903050Y-117668570D02*
X116453750Y-119686370D01*
X130926320Y-144020750D02*
X131281870Y-143677520D01*
X152748110Y-43385030D02*
X152470540Y-43886210D01*
X163034350Y-53467970D02*
X161897050Y-51786670D01*
X160932050Y-49759770D02*
X160107150Y-47349170D01*
X203125820Y-107876380D02*
X203388770Y-107255330D01*
X152919030Y-41710120D02*
X152976750Y-42275670D01*
X184638450Y-54430370D02*
X182227850Y-56026470D01*
X166375850Y-138758370D02*
X167493450Y-139901370D01*
X161897050Y-51786670D02*
X160932050Y-49759770D01*
M02*
