%TF.GenerationSoftware,KiCad,Pcbnew,8.0.6*%
%TF.CreationDate,2024-10-30T16:41:28+09:00*%
%TF.ProjectId,badge24,62616467-6532-4342-9e6b-696361645f70,A*%
%TF.SameCoordinates,Original*%
%TF.FileFunction,Legend,Bot*%
%TF.FilePolarity,Positive*%
%FSLAX46Y46*%
G04 Gerber Fmt 4.6, Leading zero omitted, Abs format (unit mm)*
G04 Created by KiCad (PCBNEW 8.0.6) date 2024-10-30 16:41:28*
%MOMM*%
%LPD*%
G01*
G04 APERTURE LIST*
%ADD10C,0.100000*%
%ADD11C,0.101600*%
%ADD12C,0.152400*%
%ADD13C,0.203200*%
%ADD14C,0.177800*%
%ADD15C,0.110000*%
%ADD16C,0.150000*%
%ADD17C,0.120000*%
G04 APERTURE END LIST*
D10*
X185786250Y-97318570D02*
X185911250Y-97418570D01*
X185786250Y-99118570D02*
X185911250Y-99018570D01*
D11*
X177196250Y-74750370D02*
X177196250Y-70787970D01*
D10*
X185936250Y-96068570D02*
G75*
G02*
X185936250Y-97318630I50J-625030D01*
G01*
X185911250Y-99018570D02*
X185911250Y-99218570D01*
X185911250Y-97868570D02*
X185786250Y-97868570D01*
D11*
X165969450Y-70787970D02*
X177196250Y-70787970D01*
D10*
X185786250Y-96068570D02*
X185911250Y-95968570D01*
X185911250Y-99118570D02*
X185786250Y-99118570D01*
X185786250Y-96068570D02*
X185911250Y-96168570D01*
X185911250Y-95968570D02*
X185911250Y-96168570D01*
X185936250Y-97868570D02*
G75*
G02*
X185936250Y-99118630I50J-625030D01*
G01*
X185786250Y-97868570D02*
X185911250Y-97968570D01*
D11*
X165969450Y-74750370D02*
X165969450Y-70787970D01*
D10*
X185786250Y-97318570D02*
X185911250Y-97218570D01*
X185911250Y-96068570D02*
X185786250Y-96068570D01*
D11*
X165969450Y-74750370D02*
X177196250Y-74750370D01*
D10*
X185786250Y-97868570D02*
X185911250Y-97768570D01*
X185911250Y-97218570D02*
X185911250Y-97418570D01*
X185786250Y-99118570D02*
X185911250Y-99218570D01*
X185911250Y-97318570D02*
X185786250Y-97318570D01*
X185911250Y-97768570D02*
X185911250Y-97968570D01*
D12*
X115563882Y-93386165D02*
X115563882Y-92370165D01*
X115563882Y-92370165D02*
X115176834Y-92370165D01*
X115176834Y-92370165D02*
X115080072Y-92418546D01*
X115080072Y-92418546D02*
X115031691Y-92466927D01*
X115031691Y-92466927D02*
X114983310Y-92563689D01*
X114983310Y-92563689D02*
X114983310Y-92708832D01*
X114983310Y-92708832D02*
X115031691Y-92805594D01*
X115031691Y-92805594D02*
X115080072Y-92853975D01*
X115080072Y-92853975D02*
X115176834Y-92902356D01*
X115176834Y-92902356D02*
X115563882Y-92902356D01*
X114015691Y-93386165D02*
X114596263Y-93386165D01*
X114305977Y-93386165D02*
X114305977Y-92370165D01*
X114305977Y-92370165D02*
X114402739Y-92515308D01*
X114402739Y-92515308D02*
X114499501Y-92612070D01*
X114499501Y-92612070D02*
X114596263Y-92660451D01*
X113096453Y-92370165D02*
X113580263Y-92370165D01*
X113580263Y-92370165D02*
X113628644Y-92853975D01*
X113628644Y-92853975D02*
X113580263Y-92805594D01*
X113580263Y-92805594D02*
X113483501Y-92757213D01*
X113483501Y-92757213D02*
X113241596Y-92757213D01*
X113241596Y-92757213D02*
X113144834Y-92805594D01*
X113144834Y-92805594D02*
X113096453Y-92853975D01*
X113096453Y-92853975D02*
X113048072Y-92950737D01*
X113048072Y-92950737D02*
X113048072Y-93192642D01*
X113048072Y-93192642D02*
X113096453Y-93289404D01*
X113096453Y-93289404D02*
X113144834Y-93337785D01*
X113144834Y-93337785D02*
X113241596Y-93386165D01*
X113241596Y-93386165D02*
X113483501Y-93386165D01*
X113483501Y-93386165D02*
X113580263Y-93337785D01*
X113580263Y-93337785D02*
X113628644Y-93289404D01*
X178801415Y-71625611D02*
X178670787Y-71669153D01*
X178670787Y-71669153D02*
X178453072Y-71669153D01*
X178453072Y-71669153D02*
X178365987Y-71625611D01*
X178365987Y-71625611D02*
X178322444Y-71582068D01*
X178322444Y-71582068D02*
X178278901Y-71494982D01*
X178278901Y-71494982D02*
X178278901Y-71407896D01*
X178278901Y-71407896D02*
X178322444Y-71320811D01*
X178322444Y-71320811D02*
X178365987Y-71277268D01*
X178365987Y-71277268D02*
X178453072Y-71233725D01*
X178453072Y-71233725D02*
X178627244Y-71190182D01*
X178627244Y-71190182D02*
X178714329Y-71146639D01*
X178714329Y-71146639D02*
X178757872Y-71103096D01*
X178757872Y-71103096D02*
X178801415Y-71016011D01*
X178801415Y-71016011D02*
X178801415Y-70928925D01*
X178801415Y-70928925D02*
X178757872Y-70841839D01*
X178757872Y-70841839D02*
X178714329Y-70798296D01*
X178714329Y-70798296D02*
X178627244Y-70754753D01*
X178627244Y-70754753D02*
X178409529Y-70754753D01*
X178409529Y-70754753D02*
X178278901Y-70798296D01*
X177408044Y-71669153D02*
X177930558Y-71669153D01*
X177669301Y-71669153D02*
X177669301Y-70754753D01*
X177669301Y-70754753D02*
X177756387Y-70885382D01*
X177756387Y-70885382D02*
X177843472Y-70972468D01*
X177843472Y-70972468D02*
X177930558Y-71016011D01*
X115563882Y-101006165D02*
X115563882Y-99990165D01*
X115563882Y-99990165D02*
X115176834Y-99990165D01*
X115176834Y-99990165D02*
X115080072Y-100038546D01*
X115080072Y-100038546D02*
X115031691Y-100086927D01*
X115031691Y-100086927D02*
X114983310Y-100183689D01*
X114983310Y-100183689D02*
X114983310Y-100328832D01*
X114983310Y-100328832D02*
X115031691Y-100425594D01*
X115031691Y-100425594D02*
X115080072Y-100473975D01*
X115080072Y-100473975D02*
X115176834Y-100522356D01*
X115176834Y-100522356D02*
X115563882Y-100522356D01*
X114015691Y-101006165D02*
X114596263Y-101006165D01*
X114305977Y-101006165D02*
X114305977Y-99990165D01*
X114305977Y-99990165D02*
X114402739Y-100135308D01*
X114402739Y-100135308D02*
X114499501Y-100232070D01*
X114499501Y-100232070D02*
X114596263Y-100280451D01*
X113628644Y-100086927D02*
X113580263Y-100038546D01*
X113580263Y-100038546D02*
X113483501Y-99990165D01*
X113483501Y-99990165D02*
X113241596Y-99990165D01*
X113241596Y-99990165D02*
X113144834Y-100038546D01*
X113144834Y-100038546D02*
X113096453Y-100086927D01*
X113096453Y-100086927D02*
X113048072Y-100183689D01*
X113048072Y-100183689D02*
X113048072Y-100280451D01*
X113048072Y-100280451D02*
X113096453Y-100425594D01*
X113096453Y-100425594D02*
X113677025Y-101006165D01*
X113677025Y-101006165D02*
X113048072Y-101006165D01*
D13*
G36*
X128644950Y-136571693D02*
G01*
X128407634Y-136541677D01*
X128380156Y-136632590D01*
X128334279Y-136722647D01*
X128268808Y-136794471D01*
X128181741Y-136844575D01*
X128088867Y-136868153D01*
X128029147Y-136871856D01*
X127929337Y-136861047D01*
X127839786Y-136828620D01*
X127760495Y-136774574D01*
X127745868Y-136761171D01*
X127685026Y-136686524D01*
X127644126Y-136592457D01*
X127630605Y-136496073D01*
X127630493Y-136485865D01*
X127643128Y-136384654D01*
X127681035Y-136296411D01*
X127737426Y-136227444D01*
X127817814Y-136169233D01*
X127911947Y-136135185D01*
X128009449Y-136125201D01*
X128106291Y-136135460D01*
X128176883Y-136151465D01*
X128150150Y-135911334D01*
X128112161Y-135913679D01*
X128011559Y-135905588D01*
X127918051Y-135881314D01*
X127839200Y-135845205D01*
X127765178Y-135783076D01*
X127723540Y-135692251D01*
X127717728Y-135633214D01*
X127737205Y-135535465D01*
X127795636Y-135455029D01*
X127806370Y-135445612D01*
X127893396Y-135394636D01*
X127991889Y-135372861D01*
X128034306Y-135371041D01*
X128131610Y-135381593D01*
X128222435Y-135416842D01*
X128265056Y-135446081D01*
X128329212Y-135519437D01*
X128369060Y-135609134D01*
X128383715Y-135671204D01*
X128621031Y-135641187D01*
X128596652Y-135540128D01*
X128561680Y-135449528D01*
X128508741Y-135358790D01*
X128441966Y-135281712D01*
X128423111Y-135264577D01*
X128341270Y-135206098D01*
X128250048Y-135164327D01*
X128149447Y-135139264D01*
X128053726Y-135131041D01*
X128039465Y-135130910D01*
X127943108Y-135137368D01*
X127842723Y-135159390D01*
X127748213Y-135197040D01*
X127664066Y-135247945D01*
X127589208Y-135316625D01*
X127544665Y-135377138D01*
X127501509Y-135464592D01*
X127478271Y-135556004D01*
X127473845Y-135619144D01*
X127484914Y-135714280D01*
X127518120Y-135802294D01*
X127540913Y-135840515D01*
X127606164Y-135914948D01*
X127685496Y-135971701D01*
X127740240Y-135999507D01*
X127649768Y-136029360D01*
X127563515Y-136078715D01*
X127492285Y-136145109D01*
X127473845Y-136168349D01*
X127423638Y-136254694D01*
X127392026Y-136353679D01*
X127379474Y-136453574D01*
X127378637Y-136489148D01*
X127385134Y-136584133D01*
X127409134Y-136687863D01*
X127450820Y-136783962D01*
X127510190Y-136872431D01*
X127563425Y-136930951D01*
X127635991Y-136992475D01*
X127729362Y-137048165D01*
X127816860Y-137082109D01*
X127911251Y-137103324D01*
X128012534Y-137111810D01*
X128030085Y-137111987D01*
X128137373Y-137104783D01*
X128236403Y-137083170D01*
X128327174Y-137047150D01*
X128409686Y-136996722D01*
X128453127Y-136961436D01*
X128519695Y-136891329D01*
X128572484Y-136812738D01*
X128611492Y-136725664D01*
X128636721Y-136630106D01*
X128644950Y-136571693D01*
G37*
D12*
X115563882Y-106086165D02*
X115563882Y-105070165D01*
X115563882Y-105070165D02*
X115176834Y-105070165D01*
X115176834Y-105070165D02*
X115080072Y-105118546D01*
X115080072Y-105118546D02*
X115031691Y-105166927D01*
X115031691Y-105166927D02*
X114983310Y-105263689D01*
X114983310Y-105263689D02*
X114983310Y-105408832D01*
X114983310Y-105408832D02*
X115031691Y-105505594D01*
X115031691Y-105505594D02*
X115080072Y-105553975D01*
X115080072Y-105553975D02*
X115176834Y-105602356D01*
X115176834Y-105602356D02*
X115563882Y-105602356D01*
X114015691Y-106086165D02*
X114596263Y-106086165D01*
X114305977Y-106086165D02*
X114305977Y-105070165D01*
X114305977Y-105070165D02*
X114402739Y-105215308D01*
X114402739Y-105215308D02*
X114499501Y-105312070D01*
X114499501Y-105312070D02*
X114596263Y-105360451D01*
X113386739Y-105070165D02*
X113289977Y-105070165D01*
X113289977Y-105070165D02*
X113193215Y-105118546D01*
X113193215Y-105118546D02*
X113144834Y-105166927D01*
X113144834Y-105166927D02*
X113096453Y-105263689D01*
X113096453Y-105263689D02*
X113048072Y-105457213D01*
X113048072Y-105457213D02*
X113048072Y-105699118D01*
X113048072Y-105699118D02*
X113096453Y-105892642D01*
X113096453Y-105892642D02*
X113144834Y-105989404D01*
X113144834Y-105989404D02*
X113193215Y-106037785D01*
X113193215Y-106037785D02*
X113289977Y-106086165D01*
X113289977Y-106086165D02*
X113386739Y-106086165D01*
X113386739Y-106086165D02*
X113483501Y-106037785D01*
X113483501Y-106037785D02*
X113531882Y-105989404D01*
X113531882Y-105989404D02*
X113580263Y-105892642D01*
X113580263Y-105892642D02*
X113628644Y-105699118D01*
X113628644Y-105699118D02*
X113628644Y-105457213D01*
X113628644Y-105457213D02*
X113580263Y-105263689D01*
X113580263Y-105263689D02*
X113531882Y-105166927D01*
X113531882Y-105166927D02*
X113483501Y-105118546D01*
X113483501Y-105118546D02*
X113386739Y-105070165D01*
X115563882Y-90846165D02*
X115563882Y-89830165D01*
X115563882Y-89830165D02*
X115176834Y-89830165D01*
X115176834Y-89830165D02*
X115080072Y-89878546D01*
X115080072Y-89878546D02*
X115031691Y-89926927D01*
X115031691Y-89926927D02*
X114983310Y-90023689D01*
X114983310Y-90023689D02*
X114983310Y-90168832D01*
X114983310Y-90168832D02*
X115031691Y-90265594D01*
X115031691Y-90265594D02*
X115080072Y-90313975D01*
X115080072Y-90313975D02*
X115176834Y-90362356D01*
X115176834Y-90362356D02*
X115563882Y-90362356D01*
X114015691Y-90846165D02*
X114596263Y-90846165D01*
X114305977Y-90846165D02*
X114305977Y-89830165D01*
X114305977Y-89830165D02*
X114402739Y-89975308D01*
X114402739Y-89975308D02*
X114499501Y-90072070D01*
X114499501Y-90072070D02*
X114596263Y-90120451D01*
X113144834Y-89830165D02*
X113338358Y-89830165D01*
X113338358Y-89830165D02*
X113435120Y-89878546D01*
X113435120Y-89878546D02*
X113483501Y-89926927D01*
X113483501Y-89926927D02*
X113580263Y-90072070D01*
X113580263Y-90072070D02*
X113628644Y-90265594D01*
X113628644Y-90265594D02*
X113628644Y-90652642D01*
X113628644Y-90652642D02*
X113580263Y-90749404D01*
X113580263Y-90749404D02*
X113531882Y-90797785D01*
X113531882Y-90797785D02*
X113435120Y-90846165D01*
X113435120Y-90846165D02*
X113241596Y-90846165D01*
X113241596Y-90846165D02*
X113144834Y-90797785D01*
X113144834Y-90797785D02*
X113096453Y-90749404D01*
X113096453Y-90749404D02*
X113048072Y-90652642D01*
X113048072Y-90652642D02*
X113048072Y-90410737D01*
X113048072Y-90410737D02*
X113096453Y-90313975D01*
X113096453Y-90313975D02*
X113144834Y-90265594D01*
X113144834Y-90265594D02*
X113241596Y-90217213D01*
X113241596Y-90217213D02*
X113435120Y-90217213D01*
X113435120Y-90217213D02*
X113531882Y-90265594D01*
X113531882Y-90265594D02*
X113580263Y-90313975D01*
X113580263Y-90313975D02*
X113628644Y-90410737D01*
D14*
X183598324Y-65658900D02*
X183174991Y-66928900D01*
X183174991Y-66928900D02*
X182751657Y-65658900D01*
X181844515Y-66868424D02*
X181965467Y-66928900D01*
X181965467Y-66928900D02*
X182207372Y-66928900D01*
X182207372Y-66928900D02*
X182328325Y-66868424D01*
X182328325Y-66868424D02*
X182388801Y-66747471D01*
X182388801Y-66747471D02*
X182388801Y-66263662D01*
X182388801Y-66263662D02*
X182328325Y-66142709D01*
X182328325Y-66142709D02*
X182207372Y-66082233D01*
X182207372Y-66082233D02*
X181965467Y-66082233D01*
X181965467Y-66082233D02*
X181844515Y-66142709D01*
X181844515Y-66142709D02*
X181784039Y-66263662D01*
X181784039Y-66263662D02*
X181784039Y-66384614D01*
X181784039Y-66384614D02*
X182388801Y-66505566D01*
X181360706Y-66928900D02*
X180695468Y-66082233D01*
X181360706Y-66082233D02*
X180695468Y-66928900D01*
X180393087Y-66082233D02*
X179909278Y-66082233D01*
X180211659Y-65658900D02*
X180211659Y-66747471D01*
X180211659Y-66747471D02*
X180151182Y-66868424D01*
X180151182Y-66868424D02*
X180030230Y-66928900D01*
X180030230Y-66928900D02*
X179909278Y-66928900D01*
D12*
X115563882Y-98466165D02*
X115563882Y-97450165D01*
X115563882Y-97450165D02*
X115176834Y-97450165D01*
X115176834Y-97450165D02*
X115080072Y-97498546D01*
X115080072Y-97498546D02*
X115031691Y-97546927D01*
X115031691Y-97546927D02*
X114983310Y-97643689D01*
X114983310Y-97643689D02*
X114983310Y-97788832D01*
X114983310Y-97788832D02*
X115031691Y-97885594D01*
X115031691Y-97885594D02*
X115080072Y-97933975D01*
X115080072Y-97933975D02*
X115176834Y-97982356D01*
X115176834Y-97982356D02*
X115563882Y-97982356D01*
X114015691Y-98466165D02*
X114596263Y-98466165D01*
X114305977Y-98466165D02*
X114305977Y-97450165D01*
X114305977Y-97450165D02*
X114402739Y-97595308D01*
X114402739Y-97595308D02*
X114499501Y-97692070D01*
X114499501Y-97692070D02*
X114596263Y-97740451D01*
X113677025Y-97450165D02*
X113048072Y-97450165D01*
X113048072Y-97450165D02*
X113386739Y-97837213D01*
X113386739Y-97837213D02*
X113241596Y-97837213D01*
X113241596Y-97837213D02*
X113144834Y-97885594D01*
X113144834Y-97885594D02*
X113096453Y-97933975D01*
X113096453Y-97933975D02*
X113048072Y-98030737D01*
X113048072Y-98030737D02*
X113048072Y-98272642D01*
X113048072Y-98272642D02*
X113096453Y-98369404D01*
X113096453Y-98369404D02*
X113144834Y-98417785D01*
X113144834Y-98417785D02*
X113241596Y-98466165D01*
X113241596Y-98466165D02*
X113531882Y-98466165D01*
X113531882Y-98466165D02*
X113628644Y-98417785D01*
X113628644Y-98417785D02*
X113677025Y-98369404D01*
D13*
G36*
X163852284Y-70724999D02*
G01*
X163976139Y-70732229D01*
X164093430Y-70748660D01*
X164219438Y-70778706D01*
X164336872Y-70820770D01*
X164347436Y-70825314D01*
X164460234Y-70885130D01*
X164557367Y-70955137D01*
X164649347Y-71040029D01*
X164666921Y-71058574D01*
X164747783Y-71155833D01*
X164816966Y-71260650D01*
X164874469Y-71373023D01*
X164917415Y-71489007D01*
X164949812Y-71616381D01*
X164969186Y-71734624D01*
X164980811Y-71861235D01*
X164984685Y-71996213D01*
X164984375Y-72032244D01*
X164976914Y-72171503D01*
X164959505Y-72302976D01*
X164932147Y-72426662D01*
X164894842Y-72542562D01*
X164834221Y-72676488D01*
X164758057Y-72798248D01*
X164666348Y-72907841D01*
X164561472Y-73003097D01*
X164445804Y-73082207D01*
X164319344Y-73145172D01*
X164182092Y-73191992D01*
X164064520Y-73217824D01*
X163940041Y-73233324D01*
X163808656Y-73238490D01*
X163678919Y-73233296D01*
X163555869Y-73217714D01*
X163439507Y-73191745D01*
X163303457Y-73144676D01*
X163177856Y-73081376D01*
X163062703Y-73001845D01*
X162957998Y-72906083D01*
X162919449Y-72863531D01*
X162833959Y-72748395D01*
X162764011Y-72620750D01*
X162719245Y-72509627D01*
X162684427Y-72390498D01*
X162659557Y-72263363D01*
X162644635Y-72128222D01*
X162639661Y-71985074D01*
X162639862Y-71973349D01*
X163144428Y-71973349D01*
X163144610Y-71999779D01*
X163151002Y-72125696D01*
X163170727Y-72263079D01*
X163203600Y-72385499D01*
X163258573Y-72509410D01*
X163331443Y-72612955D01*
X163355230Y-72638725D01*
X163444940Y-72715827D01*
X163559764Y-72779005D01*
X163687705Y-72815582D01*
X163810414Y-72825766D01*
X163846510Y-72824927D01*
X163966570Y-72808793D01*
X164091828Y-72765208D01*
X164204334Y-72694803D01*
X164292317Y-72611196D01*
X164315247Y-72583516D01*
X164383854Y-72474264D01*
X164428235Y-72365303D01*
X164459302Y-72242203D01*
X164477055Y-72104964D01*
X164481678Y-71979798D01*
X164481497Y-71953588D01*
X164475185Y-71828771D01*
X164455708Y-71692707D01*
X164423247Y-71571606D01*
X164368964Y-71449233D01*
X164297007Y-71347228D01*
X164273465Y-71321813D01*
X164170138Y-71236549D01*
X164052154Y-71177520D01*
X163936895Y-71147391D01*
X163810414Y-71137348D01*
X163773212Y-71138159D01*
X163650327Y-71153764D01*
X163523833Y-71195920D01*
X163412215Y-71264017D01*
X163326753Y-71344883D01*
X163315536Y-71358026D01*
X163246986Y-71461767D01*
X163195885Y-71586043D01*
X163165972Y-71708910D01*
X163148879Y-71846863D01*
X163144428Y-71973349D01*
X162639862Y-71973349D01*
X162640914Y-71911859D01*
X162650935Y-71771542D01*
X162670978Y-71639378D01*
X162701042Y-71515366D01*
X162741127Y-71399508D01*
X162791233Y-71291801D01*
X162867959Y-71168633D01*
X162960343Y-71058203D01*
X163065780Y-70962104D01*
X163181666Y-70882292D01*
X163308000Y-70818769D01*
X163444783Y-70771533D01*
X163561732Y-70745472D01*
X163685368Y-70729836D01*
X163815691Y-70724624D01*
X163852284Y-70724999D01*
G37*
G36*
X162267975Y-73200970D02*
G01*
X162267975Y-70762144D01*
X161793107Y-70762144D01*
X160804093Y-72410110D01*
X160804093Y-70762144D01*
X160350917Y-70762144D01*
X160350917Y-73200970D01*
X160840441Y-73200970D01*
X161814799Y-71577626D01*
X161814799Y-73200970D01*
X162267975Y-73200970D01*
G37*
G36*
X101476135Y-104812440D02*
G01*
X101476135Y-105052571D01*
X102754643Y-105052571D01*
X102747041Y-104956509D01*
X102726971Y-104884667D01*
X102686510Y-104793859D01*
X102637704Y-104712077D01*
X102577448Y-104631027D01*
X102570793Y-104622962D01*
X102502584Y-104547742D01*
X102429309Y-104476394D01*
X102355432Y-104410503D01*
X102272442Y-104341380D01*
X102259842Y-104331241D01*
X102184245Y-104269633D01*
X102098734Y-104197425D01*
X102023208Y-104130553D01*
X101945756Y-104057349D01*
X101873568Y-103981657D01*
X101833986Y-103933994D01*
X101780254Y-103854037D01*
X101741177Y-103768242D01*
X101722940Y-103669520D01*
X101722832Y-103661502D01*
X101737012Y-103566485D01*
X101784377Y-103476946D01*
X101823668Y-103434504D01*
X101908001Y-103377915D01*
X102000602Y-103348986D01*
X102087249Y-103341641D01*
X102187599Y-103350206D01*
X102282644Y-103379412D01*
X102361617Y-103429345D01*
X102424405Y-103504554D01*
X102458701Y-103598626D01*
X102465736Y-103671820D01*
X102709618Y-103641804D01*
X102695416Y-103547363D01*
X102666510Y-103448311D01*
X102624318Y-103361244D01*
X102559830Y-103276412D01*
X102521078Y-103239867D01*
X102444103Y-103185956D01*
X102356401Y-103145287D01*
X102257971Y-103117859D01*
X102165064Y-103104888D01*
X102081621Y-103101510D01*
X101981398Y-103107017D01*
X101874767Y-103127363D01*
X101779222Y-103162701D01*
X101694764Y-103213030D01*
X101641225Y-103258158D01*
X101577995Y-103330077D01*
X101524748Y-103421064D01*
X101491786Y-103521431D01*
X101479583Y-103616947D01*
X101478949Y-103645556D01*
X101486767Y-103740584D01*
X101510221Y-103834374D01*
X101526319Y-103877244D01*
X101570684Y-103964083D01*
X101626879Y-104046699D01*
X101683904Y-104116437D01*
X101757402Y-104193780D01*
X101830469Y-104263118D01*
X101904172Y-104328945D01*
X101988098Y-104400676D01*
X102049728Y-104451775D01*
X102124553Y-104513085D01*
X102198261Y-104574651D01*
X102271527Y-104638045D01*
X102324565Y-104687685D01*
X102388970Y-104761532D01*
X102424463Y-104812440D01*
X101476135Y-104812440D01*
G37*
G36*
X195724157Y-98506852D02*
G01*
X195474647Y-98476836D01*
X195450207Y-98571754D01*
X195406819Y-98657755D01*
X195346139Y-98724470D01*
X195264642Y-98774771D01*
X195171406Y-98801856D01*
X195102726Y-98807015D01*
X195000617Y-98795382D01*
X194908858Y-98760481D01*
X194827451Y-98702314D01*
X194812412Y-98687888D01*
X194749838Y-98605537D01*
X194713337Y-98518421D01*
X194695608Y-98418987D01*
X194693754Y-98370841D01*
X194702806Y-98271584D01*
X194734097Y-98176006D01*
X194787740Y-98095909D01*
X194808191Y-98074899D01*
X194886337Y-98017766D01*
X194978315Y-97981794D01*
X195072922Y-97967511D01*
X195106947Y-97966559D01*
X195203181Y-97974548D01*
X195296725Y-98000840D01*
X195314247Y-98008300D01*
X195396440Y-98056256D01*
X195459170Y-98116640D01*
X195681947Y-98086624D01*
X195494814Y-97096085D01*
X194532885Y-97096085D01*
X194532885Y-97336216D01*
X195304867Y-97336216D01*
X195408986Y-97865254D01*
X195332030Y-97811160D01*
X195242047Y-97765608D01*
X195149895Y-97737409D01*
X195055574Y-97726564D01*
X195043631Y-97726428D01*
X194936622Y-97734866D01*
X194837198Y-97760182D01*
X194745359Y-97802374D01*
X194661106Y-97861443D01*
X194616368Y-97902774D01*
X194548386Y-97984568D01*
X194497101Y-98076057D01*
X194462514Y-98177241D01*
X194446157Y-98271687D01*
X194441898Y-98355833D01*
X194447273Y-98452153D01*
X194467132Y-98558149D01*
X194501623Y-98657278D01*
X194550746Y-98749540D01*
X194594794Y-98811236D01*
X194669382Y-98891409D01*
X194753500Y-98954994D01*
X194847149Y-99001991D01*
X194950329Y-99032401D01*
X195043591Y-99045072D01*
X195102726Y-99047146D01*
X195198331Y-99041952D01*
X195301244Y-99022764D01*
X195394865Y-98989436D01*
X195479194Y-98941970D01*
X195533741Y-98899409D01*
X195599761Y-98829969D01*
X195652136Y-98751326D01*
X195690865Y-98663483D01*
X195715950Y-98566438D01*
X195724157Y-98506852D01*
G37*
D12*
X189155358Y-96219263D02*
X188589301Y-96219263D01*
X188589301Y-96219263D02*
X188894101Y-96567606D01*
X188894101Y-96567606D02*
X188763472Y-96567606D01*
X188763472Y-96567606D02*
X188676387Y-96611149D01*
X188676387Y-96611149D02*
X188632844Y-96654692D01*
X188632844Y-96654692D02*
X188589301Y-96741778D01*
X188589301Y-96741778D02*
X188589301Y-96959492D01*
X188589301Y-96959492D02*
X188632844Y-97046578D01*
X188632844Y-97046578D02*
X188676387Y-97090121D01*
X188676387Y-97090121D02*
X188763472Y-97133663D01*
X188763472Y-97133663D02*
X189024729Y-97133663D01*
X189024729Y-97133663D02*
X189111815Y-97090121D01*
X189111815Y-97090121D02*
X189155358Y-97046578D01*
X188328044Y-96219263D02*
X188023244Y-97133663D01*
X188023244Y-97133663D02*
X187718444Y-96219263D01*
X187500730Y-96219263D02*
X186934673Y-96219263D01*
X186934673Y-96219263D02*
X187239473Y-96567606D01*
X187239473Y-96567606D02*
X187108844Y-96567606D01*
X187108844Y-96567606D02*
X187021759Y-96611149D01*
X187021759Y-96611149D02*
X186978216Y-96654692D01*
X186978216Y-96654692D02*
X186934673Y-96741778D01*
X186934673Y-96741778D02*
X186934673Y-96959492D01*
X186934673Y-96959492D02*
X186978216Y-97046578D01*
X186978216Y-97046578D02*
X187021759Y-97090121D01*
X187021759Y-97090121D02*
X187108844Y-97133663D01*
X187108844Y-97133663D02*
X187370101Y-97133663D01*
X187370101Y-97133663D02*
X187457187Y-97090121D01*
X187457187Y-97090121D02*
X187500730Y-97046578D01*
D15*
G36*
X172996638Y-83153079D02*
G01*
X171805991Y-83153079D01*
X171805991Y-84334971D01*
X171035572Y-84334971D01*
X171035572Y-83153079D01*
X169844925Y-83153079D01*
X169844925Y-82365151D01*
X171035572Y-82365151D01*
X171035572Y-81179975D01*
X171805991Y-81179975D01*
X171805991Y-82365151D01*
X172996638Y-82365151D01*
X172996638Y-83153079D01*
G37*
D13*
X184989785Y-72351144D02*
X184022166Y-72351144D01*
X185015185Y-68795144D02*
X184047566Y-68795144D01*
X184531375Y-69278954D02*
X184531375Y-68311335D01*
G36*
X190027552Y-59795379D02*
G01*
X190134886Y-59808404D01*
X190233416Y-59837061D01*
X190323140Y-59881349D01*
X190404060Y-59941268D01*
X190476175Y-60016818D01*
X190535896Y-60104184D01*
X190585494Y-60206527D01*
X190617884Y-60299185D01*
X190643797Y-60401428D01*
X190663231Y-60513257D01*
X190676188Y-60634670D01*
X190681653Y-60732021D01*
X190683475Y-60834763D01*
X190680551Y-60956023D01*
X190671780Y-61068415D01*
X190657160Y-61171941D01*
X190636692Y-61266599D01*
X190602884Y-61372453D01*
X190559938Y-61464452D01*
X190496342Y-61556562D01*
X190472467Y-61583084D01*
X190395741Y-61652385D01*
X190311364Y-61706286D01*
X190219336Y-61744786D01*
X190119658Y-61767887D01*
X190012329Y-61775587D01*
X189990724Y-61775263D01*
X189887039Y-61763913D01*
X189790591Y-61736350D01*
X189701379Y-61692573D01*
X189676133Y-61676277D01*
X189599480Y-61612668D01*
X189534369Y-61534769D01*
X189485637Y-61452442D01*
X189462938Y-61402725D01*
X189431775Y-61310118D01*
X189413077Y-61213504D01*
X189407367Y-61121325D01*
X189649320Y-61121325D01*
X189650272Y-61156503D01*
X189664555Y-61253628D01*
X189700527Y-61346751D01*
X189757660Y-61424302D01*
X189829247Y-61482919D01*
X189917621Y-61522322D01*
X190016081Y-61535456D01*
X190028886Y-61535246D01*
X190122698Y-61520234D01*
X190212595Y-61481521D01*
X190229815Y-61470979D01*
X190304913Y-61405410D01*
X190358455Y-61324873D01*
X190370657Y-61298931D01*
X190400550Y-61205826D01*
X190410515Y-61109131D01*
X190399568Y-61008011D01*
X190362241Y-60911697D01*
X190298422Y-60831011D01*
X190215595Y-60770664D01*
X190121241Y-60735367D01*
X190025462Y-60725016D01*
X189929444Y-60735367D01*
X189836309Y-60770664D01*
X189756253Y-60831011D01*
X189743304Y-60844566D01*
X189687018Y-60930058D01*
X189657778Y-61023841D01*
X189649320Y-61121325D01*
X189407367Y-61121325D01*
X189406844Y-61112883D01*
X189410920Y-61028625D01*
X189426573Y-60934135D01*
X189459673Y-60833024D01*
X189508752Y-60741744D01*
X189573810Y-60660293D01*
X189616651Y-60619182D01*
X189696912Y-60560427D01*
X189783906Y-60518460D01*
X189877633Y-60493279D01*
X189978092Y-60484885D01*
X190053444Y-60489894D01*
X190151144Y-60512153D01*
X190237921Y-60548201D01*
X190318556Y-60599711D01*
X190390214Y-60667182D01*
X190447566Y-60742369D01*
X190446974Y-60706994D01*
X190442319Y-60607618D01*
X190431428Y-60504475D01*
X190411781Y-60403470D01*
X190380498Y-60311354D01*
X190340345Y-60235853D01*
X190281091Y-60158487D01*
X190203683Y-60092797D01*
X190187348Y-60082404D01*
X190098372Y-60045772D01*
X190004356Y-60034641D01*
X189936556Y-60040884D01*
X189845298Y-60073663D01*
X189766571Y-60134539D01*
X189749173Y-60155875D01*
X189704538Y-60242007D01*
X189676991Y-60334804D01*
X189441082Y-60304787D01*
X189443013Y-60289939D01*
X189462920Y-60191669D01*
X189499355Y-60091508D01*
X189550389Y-60004302D01*
X189616020Y-59930053D01*
X189625188Y-59921714D01*
X189704370Y-59864532D01*
X189793928Y-59824292D01*
X189893862Y-59800996D01*
X189989817Y-59794510D01*
X190027552Y-59795379D01*
G37*
G36*
X111800765Y-64514171D02*
G01*
X112038081Y-64514171D01*
X112038081Y-62993657D01*
X112109971Y-63055280D01*
X112189080Y-63111883D01*
X112263204Y-63158277D01*
X112347469Y-63205590D01*
X112433707Y-63248429D01*
X112513183Y-63281626D01*
X112513183Y-63050875D01*
X112428379Y-63007747D01*
X112337341Y-62953841D01*
X112252576Y-62895010D01*
X112174083Y-62831255D01*
X112164713Y-62822939D01*
X112095593Y-62756399D01*
X112030868Y-62682803D01*
X111975137Y-62602595D01*
X111953661Y-62563110D01*
X111800765Y-62563110D01*
X111800765Y-64514171D01*
G37*
G36*
X173275812Y-135096195D02*
G01*
X173275812Y-135336326D01*
X172436762Y-135336326D01*
X172436762Y-135786571D01*
X172199446Y-135786571D01*
X172199446Y-135336326D01*
X171938210Y-135336326D01*
X171938210Y-135096195D01*
X172199446Y-135096195D01*
X172436762Y-135096195D01*
X173042248Y-135096195D01*
X172436762Y-134251987D01*
X172436762Y-135096195D01*
X172199446Y-135096195D01*
X172199446Y-133865526D01*
X172393145Y-133865526D01*
X173275812Y-135096195D01*
G37*
D12*
X115556625Y-87290165D02*
X115217958Y-88306165D01*
X115217958Y-88306165D02*
X114879291Y-87290165D01*
X114540625Y-87919118D02*
X113766530Y-87919118D01*
X114153577Y-88306165D02*
X114153577Y-87532070D01*
X115563882Y-103546165D02*
X115563882Y-102530165D01*
X115563882Y-102530165D02*
X115176834Y-102530165D01*
X115176834Y-102530165D02*
X115080072Y-102578546D01*
X115080072Y-102578546D02*
X115031691Y-102626927D01*
X115031691Y-102626927D02*
X114983310Y-102723689D01*
X114983310Y-102723689D02*
X114983310Y-102868832D01*
X114983310Y-102868832D02*
X115031691Y-102965594D01*
X115031691Y-102965594D02*
X115080072Y-103013975D01*
X115080072Y-103013975D02*
X115176834Y-103062356D01*
X115176834Y-103062356D02*
X115563882Y-103062356D01*
X114015691Y-103546165D02*
X114596263Y-103546165D01*
X114305977Y-103546165D02*
X114305977Y-102530165D01*
X114305977Y-102530165D02*
X114402739Y-102675308D01*
X114402739Y-102675308D02*
X114499501Y-102772070D01*
X114499501Y-102772070D02*
X114596263Y-102820451D01*
X113048072Y-103546165D02*
X113628644Y-103546165D01*
X113338358Y-103546165D02*
X113338358Y-102530165D01*
X113338358Y-102530165D02*
X113435120Y-102675308D01*
X113435120Y-102675308D02*
X113531882Y-102772070D01*
X113531882Y-102772070D02*
X113628644Y-102820451D01*
X115563882Y-95926165D02*
X115563882Y-94910165D01*
X115563882Y-94910165D02*
X115176834Y-94910165D01*
X115176834Y-94910165D02*
X115080072Y-94958546D01*
X115080072Y-94958546D02*
X115031691Y-95006927D01*
X115031691Y-95006927D02*
X114983310Y-95103689D01*
X114983310Y-95103689D02*
X114983310Y-95248832D01*
X114983310Y-95248832D02*
X115031691Y-95345594D01*
X115031691Y-95345594D02*
X115080072Y-95393975D01*
X115080072Y-95393975D02*
X115176834Y-95442356D01*
X115176834Y-95442356D02*
X115563882Y-95442356D01*
X114015691Y-95926165D02*
X114596263Y-95926165D01*
X114305977Y-95926165D02*
X114305977Y-94910165D01*
X114305977Y-94910165D02*
X114402739Y-95055308D01*
X114402739Y-95055308D02*
X114499501Y-95152070D01*
X114499501Y-95152070D02*
X114596263Y-95200451D01*
X113144834Y-95248832D02*
X113144834Y-95926165D01*
X113386739Y-94861785D02*
X113628644Y-95587499D01*
X113628644Y-95587499D02*
X112999691Y-95587499D01*
X115031691Y-107658546D02*
X115128453Y-107610165D01*
X115128453Y-107610165D02*
X115273596Y-107610165D01*
X115273596Y-107610165D02*
X115418739Y-107658546D01*
X115418739Y-107658546D02*
X115515501Y-107755308D01*
X115515501Y-107755308D02*
X115563882Y-107852070D01*
X115563882Y-107852070D02*
X115612263Y-108045594D01*
X115612263Y-108045594D02*
X115612263Y-108190737D01*
X115612263Y-108190737D02*
X115563882Y-108384261D01*
X115563882Y-108384261D02*
X115515501Y-108481023D01*
X115515501Y-108481023D02*
X115418739Y-108577785D01*
X115418739Y-108577785D02*
X115273596Y-108626165D01*
X115273596Y-108626165D02*
X115176834Y-108626165D01*
X115176834Y-108626165D02*
X115031691Y-108577785D01*
X115031691Y-108577785D02*
X114983310Y-108529404D01*
X114983310Y-108529404D02*
X114983310Y-108190737D01*
X114983310Y-108190737D02*
X115176834Y-108190737D01*
X114547882Y-108626165D02*
X114547882Y-107610165D01*
X114547882Y-107610165D02*
X113967310Y-108626165D01*
X113967310Y-108626165D02*
X113967310Y-107610165D01*
X113483501Y-108626165D02*
X113483501Y-107610165D01*
X113483501Y-107610165D02*
X113241596Y-107610165D01*
X113241596Y-107610165D02*
X113096453Y-107658546D01*
X113096453Y-107658546D02*
X112999691Y-107755308D01*
X112999691Y-107755308D02*
X112951310Y-107852070D01*
X112951310Y-107852070D02*
X112902929Y-108045594D01*
X112902929Y-108045594D02*
X112902929Y-108190737D01*
X112902929Y-108190737D02*
X112951310Y-108384261D01*
X112951310Y-108384261D02*
X112999691Y-108481023D01*
X112999691Y-108481023D02*
X113096453Y-108577785D01*
X113096453Y-108577785D02*
X113241596Y-108626165D01*
X113241596Y-108626165D02*
X113483501Y-108626165D01*
X188713472Y-98454692D02*
X188582844Y-98498235D01*
X188582844Y-98498235D02*
X188539301Y-98541778D01*
X188539301Y-98541778D02*
X188495758Y-98628863D01*
X188495758Y-98628863D02*
X188495758Y-98759492D01*
X188495758Y-98759492D02*
X188539301Y-98846578D01*
X188539301Y-98846578D02*
X188582844Y-98890121D01*
X188582844Y-98890121D02*
X188669929Y-98933663D01*
X188669929Y-98933663D02*
X189018272Y-98933663D01*
X189018272Y-98933663D02*
X189018272Y-98019263D01*
X189018272Y-98019263D02*
X188713472Y-98019263D01*
X188713472Y-98019263D02*
X188626387Y-98062806D01*
X188626387Y-98062806D02*
X188582844Y-98106349D01*
X188582844Y-98106349D02*
X188539301Y-98193435D01*
X188539301Y-98193435D02*
X188539301Y-98280521D01*
X188539301Y-98280521D02*
X188582844Y-98367606D01*
X188582844Y-98367606D02*
X188626387Y-98411149D01*
X188626387Y-98411149D02*
X188713472Y-98454692D01*
X188713472Y-98454692D02*
X189018272Y-98454692D01*
X188147415Y-98672406D02*
X187711987Y-98672406D01*
X188234501Y-98933663D02*
X187929701Y-98019263D01*
X187929701Y-98019263D02*
X187624901Y-98933663D01*
X187450730Y-98019263D02*
X186928216Y-98019263D01*
X187189473Y-98933663D02*
X187189473Y-98019263D01*
D15*
G36*
X130553238Y-83153079D02*
G01*
X129362591Y-83153079D01*
X129362591Y-84334971D01*
X128592172Y-84334971D01*
X128592172Y-83153079D01*
X127401525Y-83153079D01*
X127401525Y-82365151D01*
X128592172Y-82365151D01*
X128592172Y-81179975D01*
X129362591Y-81179975D01*
X129362591Y-82365151D01*
X130553238Y-82365151D01*
X130553238Y-83153079D01*
G37*
D16*
X109752916Y-107618389D02*
X110086249Y-107142198D01*
X110324344Y-107618389D02*
X110324344Y-106618389D01*
X110324344Y-106618389D02*
X109943392Y-106618389D01*
X109943392Y-106618389D02*
X109848154Y-106666008D01*
X109848154Y-106666008D02*
X109800535Y-106713627D01*
X109800535Y-106713627D02*
X109752916Y-106808865D01*
X109752916Y-106808865D02*
X109752916Y-106951722D01*
X109752916Y-106951722D02*
X109800535Y-107046960D01*
X109800535Y-107046960D02*
X109848154Y-107094579D01*
X109848154Y-107094579D02*
X109943392Y-107142198D01*
X109943392Y-107142198D02*
X110324344Y-107142198D01*
X108848154Y-106618389D02*
X109324344Y-106618389D01*
X109324344Y-106618389D02*
X109371963Y-107094579D01*
X109371963Y-107094579D02*
X109324344Y-107046960D01*
X109324344Y-107046960D02*
X109229106Y-106999341D01*
X109229106Y-106999341D02*
X108991011Y-106999341D01*
X108991011Y-106999341D02*
X108895773Y-107046960D01*
X108895773Y-107046960D02*
X108848154Y-107094579D01*
X108848154Y-107094579D02*
X108800535Y-107189817D01*
X108800535Y-107189817D02*
X108800535Y-107427912D01*
X108800535Y-107427912D02*
X108848154Y-107523150D01*
X108848154Y-107523150D02*
X108895773Y-107570770D01*
X108895773Y-107570770D02*
X108991011Y-107618389D01*
X108991011Y-107618389D02*
X109229106Y-107618389D01*
X109229106Y-107618389D02*
X109324344Y-107570770D01*
X109324344Y-107570770D02*
X109371963Y-107523150D01*
X119597259Y-77537855D02*
X119644878Y-77680712D01*
X119644878Y-77680712D02*
X119692497Y-77728331D01*
X119692497Y-77728331D02*
X119787735Y-77775950D01*
X119787735Y-77775950D02*
X119930592Y-77775950D01*
X119930592Y-77775950D02*
X120025830Y-77728331D01*
X120025830Y-77728331D02*
X120073450Y-77680712D01*
X120073450Y-77680712D02*
X120121069Y-77585474D01*
X120121069Y-77585474D02*
X120121069Y-77204522D01*
X120121069Y-77204522D02*
X119121069Y-77204522D01*
X119121069Y-77204522D02*
X119121069Y-77537855D01*
X119121069Y-77537855D02*
X119168688Y-77633093D01*
X119168688Y-77633093D02*
X119216307Y-77680712D01*
X119216307Y-77680712D02*
X119311545Y-77728331D01*
X119311545Y-77728331D02*
X119406783Y-77728331D01*
X119406783Y-77728331D02*
X119502021Y-77680712D01*
X119502021Y-77680712D02*
X119549640Y-77633093D01*
X119549640Y-77633093D02*
X119597259Y-77537855D01*
X119597259Y-77537855D02*
X119597259Y-77204522D01*
X119121069Y-78061665D02*
X119121069Y-78633093D01*
X120121069Y-78347379D02*
X119121069Y-78347379D01*
X120121069Y-79490236D02*
X120121069Y-78918808D01*
X120121069Y-79204522D02*
X119121069Y-79204522D01*
X119121069Y-79204522D02*
X119263926Y-79109284D01*
X119263926Y-79109284D02*
X119359164Y-79014046D01*
X119359164Y-79014046D02*
X119406783Y-78918808D01*
X129100116Y-133332618D02*
X129100116Y-134094523D01*
X129100116Y-74562618D02*
X129100116Y-75324523D01*
X129481069Y-74943570D02*
X128719164Y-74943570D01*
X182502916Y-93873389D02*
X182836249Y-93397198D01*
X183074344Y-93873389D02*
X183074344Y-92873389D01*
X183074344Y-92873389D02*
X182693392Y-92873389D01*
X182693392Y-92873389D02*
X182598154Y-92921008D01*
X182598154Y-92921008D02*
X182550535Y-92968627D01*
X182550535Y-92968627D02*
X182502916Y-93063865D01*
X182502916Y-93063865D02*
X182502916Y-93206722D01*
X182502916Y-93206722D02*
X182550535Y-93301960D01*
X182550535Y-93301960D02*
X182598154Y-93349579D01*
X182598154Y-93349579D02*
X182693392Y-93397198D01*
X182693392Y-93397198D02*
X183074344Y-93397198D01*
X182121963Y-92968627D02*
X182074344Y-92921008D01*
X182074344Y-92921008D02*
X181979106Y-92873389D01*
X181979106Y-92873389D02*
X181741011Y-92873389D01*
X181741011Y-92873389D02*
X181645773Y-92921008D01*
X181645773Y-92921008D02*
X181598154Y-92968627D01*
X181598154Y-92968627D02*
X181550535Y-93063865D01*
X181550535Y-93063865D02*
X181550535Y-93159103D01*
X181550535Y-93159103D02*
X181598154Y-93301960D01*
X181598154Y-93301960D02*
X182169582Y-93873389D01*
X182169582Y-93873389D02*
X181550535Y-93873389D01*
X164871964Y-74774579D02*
X164729107Y-74822198D01*
X164729107Y-74822198D02*
X164681488Y-74869817D01*
X164681488Y-74869817D02*
X164633869Y-74965055D01*
X164633869Y-74965055D02*
X164633869Y-75107912D01*
X164633869Y-75107912D02*
X164681488Y-75203150D01*
X164681488Y-75203150D02*
X164729107Y-75250770D01*
X164729107Y-75250770D02*
X164824345Y-75298389D01*
X164824345Y-75298389D02*
X165205297Y-75298389D01*
X165205297Y-75298389D02*
X165205297Y-74298389D01*
X165205297Y-74298389D02*
X164871964Y-74298389D01*
X164871964Y-74298389D02*
X164776726Y-74346008D01*
X164776726Y-74346008D02*
X164729107Y-74393627D01*
X164729107Y-74393627D02*
X164681488Y-74488865D01*
X164681488Y-74488865D02*
X164681488Y-74584103D01*
X164681488Y-74584103D02*
X164729107Y-74679341D01*
X164729107Y-74679341D02*
X164776726Y-74726960D01*
X164776726Y-74726960D02*
X164871964Y-74774579D01*
X164871964Y-74774579D02*
X165205297Y-74774579D01*
X164348154Y-74298389D02*
X163776726Y-74298389D01*
X164062440Y-75298389D02*
X164062440Y-74298389D01*
X163491011Y-74393627D02*
X163443392Y-74346008D01*
X163443392Y-74346008D02*
X163348154Y-74298389D01*
X163348154Y-74298389D02*
X163110059Y-74298389D01*
X163110059Y-74298389D02*
X163014821Y-74346008D01*
X163014821Y-74346008D02*
X162967202Y-74393627D01*
X162967202Y-74393627D02*
X162919583Y-74488865D01*
X162919583Y-74488865D02*
X162919583Y-74584103D01*
X162919583Y-74584103D02*
X162967202Y-74726960D01*
X162967202Y-74726960D02*
X163538630Y-75298389D01*
X163538630Y-75298389D02*
X162919583Y-75298389D01*
X171548466Y-133347758D02*
X171548466Y-134109663D01*
X180910116Y-77962618D02*
X180910116Y-78724523D01*
X181291069Y-78343570D02*
X180529164Y-78343570D01*
X109752916Y-100973389D02*
X110086249Y-100497198D01*
X110324344Y-100973389D02*
X110324344Y-99973389D01*
X110324344Y-99973389D02*
X109943392Y-99973389D01*
X109943392Y-99973389D02*
X109848154Y-100021008D01*
X109848154Y-100021008D02*
X109800535Y-100068627D01*
X109800535Y-100068627D02*
X109752916Y-100163865D01*
X109752916Y-100163865D02*
X109752916Y-100306722D01*
X109752916Y-100306722D02*
X109800535Y-100401960D01*
X109800535Y-100401960D02*
X109848154Y-100449579D01*
X109848154Y-100449579D02*
X109943392Y-100497198D01*
X109943392Y-100497198D02*
X110324344Y-100497198D01*
X109419582Y-99973389D02*
X108800535Y-99973389D01*
X108800535Y-99973389D02*
X109133868Y-100354341D01*
X109133868Y-100354341D02*
X108991011Y-100354341D01*
X108991011Y-100354341D02*
X108895773Y-100401960D01*
X108895773Y-100401960D02*
X108848154Y-100449579D01*
X108848154Y-100449579D02*
X108800535Y-100544817D01*
X108800535Y-100544817D02*
X108800535Y-100782912D01*
X108800535Y-100782912D02*
X108848154Y-100878150D01*
X108848154Y-100878150D02*
X108895773Y-100925770D01*
X108895773Y-100925770D02*
X108991011Y-100973389D01*
X108991011Y-100973389D02*
X109276725Y-100973389D01*
X109276725Y-100973389D02*
X109371963Y-100925770D01*
X109371963Y-100925770D02*
X109419582Y-100878150D01*
X182348154Y-102048389D02*
X181776726Y-102048389D01*
X182062440Y-103048389D02*
X182062440Y-102048389D01*
X180919583Y-103048389D02*
X181491011Y-103048389D01*
X181205297Y-103048389D02*
X181205297Y-102048389D01*
X181205297Y-102048389D02*
X181300535Y-102191246D01*
X181300535Y-102191246D02*
X181395773Y-102286484D01*
X181395773Y-102286484D02*
X181491011Y-102334103D01*
X172348154Y-70250770D02*
X172205297Y-70298389D01*
X172205297Y-70298389D02*
X171967202Y-70298389D01*
X171967202Y-70298389D02*
X171871964Y-70250770D01*
X171871964Y-70250770D02*
X171824345Y-70203150D01*
X171824345Y-70203150D02*
X171776726Y-70107912D01*
X171776726Y-70107912D02*
X171776726Y-70012674D01*
X171776726Y-70012674D02*
X171824345Y-69917436D01*
X171824345Y-69917436D02*
X171871964Y-69869817D01*
X171871964Y-69869817D02*
X171967202Y-69822198D01*
X171967202Y-69822198D02*
X172157678Y-69774579D01*
X172157678Y-69774579D02*
X172252916Y-69726960D01*
X172252916Y-69726960D02*
X172300535Y-69679341D01*
X172300535Y-69679341D02*
X172348154Y-69584103D01*
X172348154Y-69584103D02*
X172348154Y-69488865D01*
X172348154Y-69488865D02*
X172300535Y-69393627D01*
X172300535Y-69393627D02*
X172252916Y-69346008D01*
X172252916Y-69346008D02*
X172157678Y-69298389D01*
X172157678Y-69298389D02*
X171919583Y-69298389D01*
X171919583Y-69298389D02*
X171776726Y-69346008D01*
X170824345Y-70298389D02*
X171395773Y-70298389D01*
X171110059Y-70298389D02*
X171110059Y-69298389D01*
X171110059Y-69298389D02*
X171205297Y-69441246D01*
X171205297Y-69441246D02*
X171300535Y-69536484D01*
X171300535Y-69536484D02*
X171395773Y-69584103D01*
X182502916Y-90048389D02*
X182836249Y-89572198D01*
X183074344Y-90048389D02*
X183074344Y-89048389D01*
X183074344Y-89048389D02*
X182693392Y-89048389D01*
X182693392Y-89048389D02*
X182598154Y-89096008D01*
X182598154Y-89096008D02*
X182550535Y-89143627D01*
X182550535Y-89143627D02*
X182502916Y-89238865D01*
X182502916Y-89238865D02*
X182502916Y-89381722D01*
X182502916Y-89381722D02*
X182550535Y-89476960D01*
X182550535Y-89476960D02*
X182598154Y-89524579D01*
X182598154Y-89524579D02*
X182693392Y-89572198D01*
X182693392Y-89572198D02*
X183074344Y-89572198D01*
X181550535Y-90048389D02*
X182121963Y-90048389D01*
X181836249Y-90048389D02*
X181836249Y-89048389D01*
X181836249Y-89048389D02*
X181931487Y-89191246D01*
X181931487Y-89191246D02*
X182026725Y-89286484D01*
X182026725Y-89286484D02*
X182121963Y-89334103D01*
X109752916Y-104323389D02*
X110086249Y-103847198D01*
X110324344Y-104323389D02*
X110324344Y-103323389D01*
X110324344Y-103323389D02*
X109943392Y-103323389D01*
X109943392Y-103323389D02*
X109848154Y-103371008D01*
X109848154Y-103371008D02*
X109800535Y-103418627D01*
X109800535Y-103418627D02*
X109752916Y-103513865D01*
X109752916Y-103513865D02*
X109752916Y-103656722D01*
X109752916Y-103656722D02*
X109800535Y-103751960D01*
X109800535Y-103751960D02*
X109848154Y-103799579D01*
X109848154Y-103799579D02*
X109943392Y-103847198D01*
X109943392Y-103847198D02*
X110324344Y-103847198D01*
X108895773Y-103656722D02*
X108895773Y-104323389D01*
X109133868Y-103275770D02*
X109371963Y-103990055D01*
X109371963Y-103990055D02*
X108752916Y-103990055D01*
X158395773Y-77548389D02*
X158395773Y-76548389D01*
X158395773Y-76548389D02*
X158062440Y-77262674D01*
X158062440Y-77262674D02*
X157729107Y-76548389D01*
X157729107Y-76548389D02*
X157729107Y-77548389D01*
X156729107Y-77548389D02*
X157300535Y-77548389D01*
X157014821Y-77548389D02*
X157014821Y-76548389D01*
X157014821Y-76548389D02*
X157110059Y-76691246D01*
X157110059Y-76691246D02*
X157205297Y-76786484D01*
X157205297Y-76786484D02*
X157300535Y-76834103D01*
D17*
%TO.C,R5*%
X111203750Y-106926312D02*
X111203750Y-107400828D01*
X112248750Y-106926312D02*
X112248750Y-107400828D01*
%TO.C,BT1*%
X120521250Y-75723570D02*
X137651250Y-75723570D01*
X120521250Y-132963570D02*
X120521250Y-75723570D01*
X121486250Y-94443570D02*
X121486250Y-76443570D01*
X121486250Y-132243570D02*
X121486250Y-114243570D01*
X123486250Y-112243570D02*
X123486250Y-96443570D01*
X126026250Y-127653570D02*
X132026250Y-127653570D01*
X130026250Y-125653570D02*
X128026250Y-125653570D01*
X131026250Y-126653570D02*
X127026250Y-126653570D01*
X133026250Y-128653570D02*
X125026250Y-128653570D01*
X134686250Y-96443570D02*
X134686250Y-112243570D01*
X136686250Y-76443570D02*
X121486250Y-76443570D01*
X136686250Y-94443570D02*
X136686250Y-76443570D01*
X136686250Y-132243570D02*
X121486250Y-132243570D01*
X136686250Y-132243570D02*
X136686250Y-114243570D01*
X137651250Y-75723570D02*
X137651250Y-132963570D01*
X137651250Y-132963570D02*
X120521250Y-132963570D01*
X121486250Y-94443570D02*
G75*
G02*
X123486250Y-96443570I0J-2000000D01*
G01*
X123486250Y-112243570D02*
G75*
G02*
X121486250Y-114243570I-2000000J0D01*
G01*
X134686250Y-96443570D02*
G75*
G02*
X136686250Y-94443570I2000000J0D01*
G01*
X136686250Y-114243570D02*
G75*
G02*
X134686250Y-112243570I0J2000000D01*
G01*
%TO.C,R2*%
X184063750Y-93655828D02*
X184063750Y-93181312D01*
X185108750Y-93655828D02*
X185108750Y-93181312D01*
%TO.C,J99*%
X180212250Y-67425570D02*
X183260250Y-67425570D01*
X180212250Y-74283570D02*
X180212250Y-67425570D01*
X180212250Y-74283570D02*
X183260250Y-74283570D01*
X183260250Y-74283570D02*
X183260250Y-67425570D01*
%TO.C,BT2*%
X162969600Y-75738710D02*
X180099600Y-75738710D01*
X162969600Y-132978710D02*
X162969600Y-75738710D01*
X163934600Y-94458710D02*
X163934600Y-76458710D01*
X163934600Y-132258710D02*
X163934600Y-114258710D01*
X165934600Y-112258710D02*
X165934600Y-96458710D01*
X168474600Y-127668710D02*
X174474600Y-127668710D01*
X172474600Y-125668710D02*
X170474600Y-125668710D01*
X173474600Y-126668710D02*
X169474600Y-126668710D01*
X175474600Y-128668710D02*
X167474600Y-128668710D01*
X177134600Y-96458710D02*
X177134600Y-112258710D01*
X179134600Y-76458710D02*
X163934600Y-76458710D01*
X179134600Y-94458710D02*
X179134600Y-76458710D01*
X179134600Y-132258710D02*
X163934600Y-132258710D01*
X179134600Y-132258710D02*
X179134600Y-114258710D01*
X180099600Y-75738710D02*
X180099600Y-132978710D01*
X180099600Y-132978710D02*
X162969600Y-132978710D01*
X163934600Y-94458710D02*
G75*
G02*
X165934600Y-96458710I0J-2000000D01*
G01*
X165934600Y-112258710D02*
G75*
G02*
X163934600Y-114258710I-2000000J0D01*
G01*
X177134600Y-96458710D02*
G75*
G02*
X179134600Y-94458710I2000000J0D01*
G01*
X179134600Y-114258710D02*
G75*
G02*
X177134600Y-112258710I0J2000000D01*
G01*
%TO.C,R3*%
X111213750Y-100755828D02*
X111213750Y-100281312D01*
X112258750Y-100755828D02*
X112258750Y-100281312D01*
%TO.C,T1*%
X182832890Y-102010700D02*
X182832890Y-102660700D01*
X182832890Y-103310700D02*
X182832890Y-102660700D01*
X186134890Y-102010700D02*
X186134890Y-102660700D01*
X186134890Y-103310700D02*
X186134890Y-102660700D01*
X186515890Y-104063200D02*
X186185890Y-103823200D01*
X186515890Y-103583200D01*
X186515890Y-104063200D01*
G36*
X186515890Y-104063200D02*
G01*
X186185890Y-103823200D01*
X186515890Y-103583200D01*
X186515890Y-104063200D01*
G37*
%TO.C,S1*%
X176718250Y-74129170D02*
X166498250Y-74129170D01*
X166498250Y-71409170D01*
X176718250Y-71409170D01*
X176718250Y-74129170D01*
%TO.C,R1*%
X184063750Y-89356312D02*
X184063750Y-89830828D01*
X185108750Y-89356312D02*
X185108750Y-89830828D01*
%TO.C,JP1*%
X183086250Y-98493570D02*
X183086250Y-99093570D01*
X183086250Y-98493570D02*
X183386251Y-98793570D01*
X183086250Y-99093570D02*
X183386251Y-98793570D01*
X183586250Y-98993571D02*
X183586251Y-96193570D01*
X184286250Y-95543570D02*
X184886250Y-95543570D01*
X184886250Y-99643570D02*
X184286250Y-99643570D01*
X185586250Y-96193569D02*
X185586249Y-98993570D01*
X183586250Y-96243570D02*
G75*
G02*
X184286250Y-95543570I700000J0D01*
G01*
X184286250Y-99643570D02*
G75*
G02*
X183586250Y-98943570I-1J699999D01*
G01*
X184886250Y-95543570D02*
G75*
G02*
X185586250Y-96243570I0J-700000D01*
G01*
X185586250Y-98943570D02*
G75*
G02*
X184886250Y-99643570I-699999J-1D01*
G01*
%TO.C,R4*%
X111188750Y-104105828D02*
X111188750Y-103631312D01*
X112233750Y-104105828D02*
X112233750Y-103631312D01*
%TO.C,M1*%
X137901250Y-78252570D02*
X137901250Y-131084570D01*
X137901250Y-131084570D02*
X141838250Y-131084570D01*
X144124250Y-128290570D02*
X141838250Y-131084570D01*
X156316250Y-128290570D02*
X144124250Y-128290570D01*
X156316250Y-128290570D02*
X158602250Y-131084570D01*
X162539250Y-78252570D02*
X137901250Y-78252570D01*
X162539250Y-131084570D02*
X158602250Y-131084570D01*
X162539250Y-131084570D02*
X162539250Y-78252570D01*
%TD*%
M02*
